<?xml version="1.0" standalone="no"?>
<!DOCTYPE svg PUBLIC "-//W3C//DTD SVG 1.1//EN" "http://www.w3.org/Graphics/SVG/1.1/DTD/svg11.dtd" >
<svg>
<metadata>
Created by FontForge 20090914 at Mon Dec  5 16:35:27 2022
 By www-data
Copyright 2020 The Inter Project Authors (https://github.com/rsms/inter)
</metadata>
<defs>
<font id="Cannonade-Bold" horiz-adv-x="0" >
  <font-face 
    font-family="Cannonade"
    font-weight="700"
    font-stretch="normal"
    units-per-em="2816"
    panose-1="2 0 8 3 0 0 0 2 0 4"
    ascent="2252"
    descent="-564"
    x-height="1536"
    cap-height="2048"
    bbox="-2234 -900.002 7274 3072"
    underline-thickness="269"
    underline-position="-301"
    unicode-range="U+000D-U+1F852"
  />
<missing-glyph horiz-adv-x="2956" 
d="M2665 1984v-512h-2374v512h2374zM291 2176v512h2374v-512h-2374zM2665 -128v-512h-2374v512h2374zM291 64v512h2374v-512h-2374zM2665 1280v-512h-2374v512h2374z" />
    <glyph glyph-name="circleplus" unicode="&#x2b;&#x20dd;" horiz-adv-x="3912" 
d="M32 1024c0 177.333 22.833 347.834 68.5 511.501s110.334 316.834 194.001 459.501s184 272.5 301 389.5s246.833 217.333 389.5 301s295.834 148.334 459.501 194c163.667 45.667 334.167 68.5 511.5 68.5s347.833 -22.833 511.5 -68.5s316.834 -110.334 459.5 -194.001
c142.667 -83.667 272.5 -184 389.5 -301s217.333 -246.833 301 -389.5s148.334 -295.834 194 -459.501c45.667 -163.667 68.5 -334.167 68.5 -511.5s-22.833 -347.833 -68.5 -511.5s-110.334 -316.834 -194 -459.501c-83.667 -142.667 -184 -272.5 -301 -389.5
s-246.833 -217.333 -389.5 -301s-295.834 -148.334 -459.5 -194.001c-163.667 -45.667 -334.167 -68.5 -511.5 -68.5s-347.833 22.833 -511.5 68.5s-316.834 110.334 -459.501 194.001s-272.5 184 -389.5 301s-217.333 246.833 -301 389.5
s-148.334 295.834 -194.001 459.501s-68.5 334.167 -68.5 511.5zM1956 -614.999c151.333 0 296.666 19.5 436 58.5c139.333 39 269.833 94.167 391.5 165.5s232.334 156.833 332 256.5c99.667 99.667 185 210.167 256 331.5s126 251.833 165 391.5
s58.5 284.834 58.5 435.501c0 151.333 -19.5 296.666 -58.5 435.999s-94 269.833 -165 391.5s-156.333 232.334 -256 332.001s-210.334 185 -332 256c-121.667 71 -252.167 126 -391.5 165s-284.666 58.5 -436 58.5c-150.667 0 -295.834 -19.5 -435.501 -58.5
s-270.334 -94 -392.001 -165s-232.334 -156.333 -332.001 -256s-185 -210.334 -256 -332.001s-126 -252.167 -165 -391.5s-58.5 -284.666 -58.5 -435.999c0 -150.667 19.5 -295.834 58.5 -435.501s94 -270.167 165 -391.5s156.333 -231.833 256 -331.5
s210.334 -185.167 332.001 -256.5s252.334 -126.5 392.001 -165.5s284.834 -58.5 435.501 -58.5zM1777 1199v529h358v-529h529v-358h-529v-529h-358v529h-529v358h529z" />
    <glyph glyph-name="uni2296" unicode="&#x20dd;&#x2212;" horiz-adv-x="3912" 
d="M32 1024c0 177.333 22.833 347.834 68.5 511.501s110.334 316.834 194.001 459.501s184 272.5 301 389.5s246.833 217.333 389.5 301s295.834 148.334 459.501 194c163.667 45.667 334.167 68.5 511.5 68.5s347.833 -22.833 511.5 -68.5s316.834 -110.334 459.5 -194.001
c142.667 -83.667 272.5 -184 389.5 -301s217.333 -246.833 301 -389.5s148.334 -295.834 194 -459.501c45.667 -163.667 68.5 -334.167 68.5 -511.5s-22.833 -347.833 -68.5 -511.5s-110.334 -316.834 -194 -459.501c-83.667 -142.667 -184 -272.5 -301 -389.5
s-246.833 -217.333 -389.5 -301s-295.834 -148.334 -459.5 -194.001c-163.667 -45.667 -334.167 -68.5 -511.5 -68.5s-347.833 22.833 -511.5 68.5s-316.834 110.334 -459.501 194.001s-272.5 184 -389.5 301s-217.333 246.833 -301 389.5
s-148.334 295.834 -194.001 459.501s-68.5 334.167 -68.5 511.5zM1956 -614.999c151.333 0 296.666 19.5 436 58.5c139.333 39 269.833 94.167 391.5 165.5s232.334 156.833 332 256.5c99.667 99.667 185 210.167 256 331.5s126 251.833 165 391.5
s58.5 284.834 58.5 435.501c0 151.333 -19.5 296.666 -58.5 435.999s-94 269.833 -165 391.5s-156.333 232.334 -256 332.001s-210.334 185 -332 256c-121.667 71 -252.167 126 -391.5 165s-284.666 58.5 -436 58.5c-150.667 0 -295.834 -19.5 -435.501 -58.5
s-270.334 -94 -392.001 -165s-232.334 -156.333 -332.001 -256s-185 -210.334 -256 -332.001s-126 -252.167 -165 -391.5s-58.5 -284.666 -58.5 -435.999c0 -150.667 19.5 -295.834 58.5 -435.501s94 -270.167 165 -391.5s156.333 -231.833 256 -331.5
s210.334 -185.167 332.001 -256.5s252.334 -126.5 392.001 -165.5s284.834 -58.5 435.501 -58.5zM2656 1203v-358h-1400v358h1400z" />
    <glyph glyph-name="circlemultiply" unicode="&#xd7;&#x20dd;" horiz-adv-x="3912" 
d="M32 1024c0 177.333 22.833 347.834 68.5 511.501s110.334 316.834 194.001 459.501s184 272.5 301 389.5s246.833 217.333 389.5 301s295.834 148.334 459.501 194c163.667 45.667 334.167 68.5 511.5 68.5s347.833 -22.833 511.5 -68.5s316.834 -110.334 459.5 -194.001
c142.667 -83.667 272.5 -184 389.5 -301s217.333 -246.833 301 -389.5s148.334 -295.834 194 -459.501c45.667 -163.667 68.5 -334.167 68.5 -511.5s-22.833 -347.833 -68.5 -511.5s-110.334 -316.834 -194 -459.501c-83.667 -142.667 -184 -272.5 -301 -389.5
s-246.833 -217.333 -389.5 -301s-295.834 -148.334 -459.5 -194.001c-163.667 -45.667 -334.167 -68.5 -511.5 -68.5s-347.833 22.833 -511.5 68.5s-316.834 110.334 -459.501 194.001s-272.5 184 -389.5 301s-217.333 246.833 -301 389.5
s-148.334 295.834 -194.001 459.501s-68.5 334.167 -68.5 511.5zM1956 -614.999c151.333 0 296.666 19.5 436 58.5c139.333 39 269.833 94.167 391.5 165.5s232.334 156.833 332 256.5c99.667 99.667 185 210.167 256 331.5s126 251.833 165 391.5
s58.5 284.834 58.5 435.501c0 151.333 -19.5 296.666 -58.5 435.999s-94 269.833 -165 391.5s-156.333 232.334 -256 332.001s-210.334 185 -332 256c-121.667 71 -252.167 126 -391.5 165s-284.666 58.5 -436 58.5c-150.667 0 -295.834 -19.5 -435.501 -58.5
s-270.334 -94 -392.001 -165s-232.334 -156.333 -332.001 -256s-185 -210.334 -256 -332.001s-126 -252.167 -165 -391.5s-58.5 -284.666 -58.5 -435.999c0 -150.667 19.5 -295.834 58.5 -435.501s94 -270.167 165 -391.5s156.333 -231.833 256 -331.5
s210.334 -185.167 332.001 -256.5s252.334 -126.5 392.001 -165.5s284.834 -58.5 435.501 -58.5zM1227 547.001l465 465l-465 465l262 265l467 -466l466 466l263 -265l-466 -465l466 -465l-263 -263l-466 466l-467 -466z" />
    <glyph glyph-name="uni2460" unicode="&#x31;&#x20dd;" horiz-adv-x="3912" 
d="M32 1024c0 177.333 22.833 347.834 68.5 511.501s110.334 316.834 194.001 459.501s184 272.5 301 389.5s246.833 217.333 389.5 301s295.834 148.334 459.501 194c163.667 45.667 334.167 68.5 511.5 68.5s347.833 -22.833 511.5 -68.5s316.834 -110.334 459.5 -194.001
c142.667 -83.667 272.5 -184 389.5 -301s217.333 -246.833 301 -389.5s148.334 -295.834 194 -459.501c45.667 -163.667 68.5 -334.167 68.5 -511.5s-22.833 -347.833 -68.5 -511.5s-110.334 -316.834 -194 -459.501c-83.667 -142.667 -184 -272.5 -301 -389.5
s-246.833 -217.333 -389.5 -301s-295.834 -148.334 -459.5 -194.001c-163.667 -45.667 -334.167 -68.5 -511.5 -68.5s-347.833 22.833 -511.5 68.5s-316.834 110.334 -459.501 194.001s-272.5 184 -389.5 301s-217.333 246.833 -301 389.5
s-148.334 295.834 -194.001 459.501s-68.5 334.167 -68.5 511.5zM1956 -614.999c151.333 0 296.666 19.5 436 58.5c139.333 39 269.833 94.167 391.5 165.5s232.334 156.833 332 256.5c99.667 99.667 185 210.167 256 331.5s126 251.833 165 391.5
s58.5 284.834 58.5 435.501c0 151.333 -19.5 296.666 -58.5 435.999s-94 269.833 -165 391.5s-156.333 232.334 -256 332.001s-210.334 185 -332 256c-121.667 71 -252.167 126 -391.5 165s-284.666 58.5 -436 58.5c-150.667 0 -295.834 -19.5 -435.501 -58.5
s-270.334 -94 -392.001 -165s-232.334 -156.333 -332.001 -256s-185 -210.334 -256 -332.001s-126 -252.167 -165 -391.5s-58.5 -284.666 -58.5 -435.999c0 -150.667 19.5 -295.834 58.5 -435.501s94 -270.167 165 -391.5s156.333 -231.833 256 -331.5
s210.334 -185.167 332.001 -256.5s252.334 -126.5 392.001 -165.5s284.834 -58.5 435.501 -58.5zM1310 1343v384l507 321h407v-2048h-433v1637h-12z" />
    <glyph glyph-name="uni2461" unicode="&#x32;&#x20dd;" horiz-adv-x="3912" 
d="M32 1024c0 177.333 22.833 347.834 68.5 511.501s110.334 316.834 194.001 459.501s184 272.5 301 389.5s246.833 217.333 389.5 301s295.834 148.334 459.501 194c163.667 45.667 334.167 68.5 511.5 68.5s347.833 -22.833 511.5 -68.5s316.834 -110.334 459.5 -194.001
c142.667 -83.667 272.5 -184 389.5 -301s217.333 -246.833 301 -389.5s148.334 -295.834 194 -459.501c45.667 -163.667 68.5 -334.167 68.5 -511.5s-22.833 -347.833 -68.5 -511.5s-110.334 -316.834 -194 -459.501c-83.667 -142.667 -184 -272.5 -301 -389.5
s-246.833 -217.333 -389.5 -301s-295.834 -148.334 -459.5 -194.001c-163.667 -45.667 -334.167 -68.5 -511.5 -68.5s-347.833 22.833 -511.5 68.5s-316.834 110.334 -459.501 194.001s-272.5 184 -389.5 301s-217.333 246.833 -301 389.5
s-148.334 295.834 -194.001 459.501s-68.5 334.167 -68.5 511.5zM1956 -614.999c151.333 0 296.666 19.5 436 58.5c139.333 39 269.833 94.167 391.5 165.5s232.334 156.833 332 256.5c99.667 99.667 185 210.167 256 331.5s126 251.833 165 391.5
s58.5 284.834 58.5 435.501c0 151.333 -19.5 296.666 -58.5 435.999s-94 269.833 -165 391.5s-156.333 232.334 -256 332.001s-210.334 185 -332 256c-121.667 71 -252.167 126 -391.5 165s-284.666 58.5 -436 58.5c-150.667 0 -295.834 -19.5 -435.501 -58.5
s-270.334 -94 -392.001 -165s-232.334 -156.333 -332.001 -256s-185 -210.334 -256 -332.001s-126 -252.167 -165 -391.5s-58.5 -284.666 -58.5 -435.999c0 -150.667 19.5 -295.834 58.5 -435.501s94 -270.167 165 -391.5s156.333 -231.833 256 -331.5
s210.334 -185.167 332.001 -256.5s252.334 -126.5 392.001 -165.5s284.834 -58.5 435.501 -58.5zM1942 2076c110 0 209.831 -15.0029 299.498 -45.0029s166.334 -71.667 230 -125c63.667 -53.333 112.834 -117.166 147.5 -191.499c34.667 -74.333 52 -155.833 52 -244.5
c0 -38.667 -3.5 -76.667 -10.5 -114s-18.5 -75.333 -34.5 -114s-37.333 -78.667 -64 -120s-59.834 -85.5 -99.5 -132.5c-39.667 -47 -86.334 -97.5 -140 -151.5c-53.667 -54 -115.5 -113 -185.5 -177l-299 -293v-14h860v-354h-1460v312l729 675
c46.667 44.667 87.834 85.834 123.501 123.501s65.5 74.167 89.5 109.5s42.167 70.833 54.5 106.5s18.5 73.834 18.5 114.501c0 45.333 -7.83301 86 -23.5 122s-37.5 66.5 -65.5 91.5s-61.167 44.333 -99.5 58s-80.166 20.5 -125.499 20.5
c-46.667 0 -89.167 -7.33301 -127.5 -22s-71 -35.5 -98 -62.5s-47.833 -60 -62.5 -99s-22 -83.167 -22 -132.5h-411c0 100.667 17.5 191.5 52.5 272.5s84.333 150.167 148 207.5s140 101.5 229 132.5s187.167 46.5 294.5 46.5z" />
    <glyph glyph-name="uni2462" unicode="&#x33;&#x20dd;" horiz-adv-x="3912" 
d="M32 1024c0 177.333 22.833 347.834 68.5 511.501s110.334 316.834 194.001 459.501s184 272.5 301 389.5s246.833 217.333 389.5 301s295.834 148.334 459.501 194c163.667 45.667 334.167 68.5 511.5 68.5s347.833 -22.833 511.5 -68.5s316.834 -110.334 459.5 -194.001
c142.667 -83.667 272.5 -184 389.5 -301s217.333 -246.833 301 -389.5s148.334 -295.834 194 -459.501c45.667 -163.667 68.5 -334.167 68.5 -511.5s-22.833 -347.833 -68.5 -511.5s-110.334 -316.834 -194 -459.501c-83.667 -142.667 -184 -272.5 -301 -389.5
s-246.833 -217.333 -389.5 -301s-295.834 -148.334 -459.5 -194.001c-163.667 -45.667 -334.167 -68.5 -511.5 -68.5s-347.833 22.833 -511.5 68.5s-316.834 110.334 -459.501 194.001s-272.5 184 -389.5 301s-217.333 246.833 -301 389.5
s-148.334 295.834 -194.001 459.501s-68.5 334.167 -68.5 511.5zM1956 -614.999c151.333 0 296.666 19.5 436 58.5c139.333 39 269.833 94.167 391.5 165.5s232.334 156.833 332 256.5c99.667 99.667 185 210.167 256 331.5s126 251.833 165 391.5
s58.5 284.834 58.5 435.501c0 151.333 -19.5 296.666 -58.5 435.999s-94 269.833 -165 391.5s-156.333 232.334 -256 332.001s-210.334 185 -332 256c-121.667 71 -252.167 126 -391.5 165s-284.666 58.5 -436 58.5c-150.667 0 -295.834 -19.5 -435.501 -58.5
s-270.334 -94 -392.001 -165s-232.334 -156.333 -332.001 -256s-185 -210.334 -256 -332.001s-126 -252.167 -165 -391.5s-58.5 -284.666 -58.5 -435.999c0 -150.667 19.5 -295.834 58.5 -435.501s94 -270.167 165 -391.5s156.333 -231.833 256 -331.5
s210.334 -185.167 332.001 -256.5s252.334 -126.5 392.001 -165.5s284.834 -58.5 435.501 -58.5zM1610 579.001c2 -37.333 11.999 -71.333 29.999 -102s42.167 -57 72.5 -79s65.833 -39 106.5 -51s85 -18 133 -18c49.333 0 94.666 6.66699 135.999 20s77 32.166 107 56.499
s53.167 53.333 69.5 87s24.5 70.834 24.5 111.501c0 41.333 -8.66699 79.166 -26 113.499s-42.166 64 -74.5 89c-32.333 25 -71.833 44.333 -118.5 58s-99 20.5 -157 20.5h-191v318h191c49.333 0 94.5 6.5 135.5 19.5s76.167 31.333 105.5 55s52 52.167 68 85.5
s24 70 24 110c0 38.667 -6.83301 73.834 -20.5 105.501s-33.334 59 -59 82c-25.667 23 -56.334 40.833 -92.001 53.5s-75.5 19 -119.5 19s-85.5 -6 -124.5 -18s-73.167 -29.333 -102.5 -52s-52.666 -49.667 -69.999 -81s-26.666 -66.666 -27.999 -105.999h-415
c1.33301 88.667 21.166 169.667 59.499 243s90.5 136.5 156.5 189.5s144 94.167 234 123.5s187.333 44 292 44c106 0 202.5 -14.833 289.5 -44.5s161.333 -70.5 223 -122.5s109.334 -113.167 143 -183.5c33.667 -70.333 50.5 -145.833 50.5 -226.5
c0 -57.333 -9.33301 -110.333 -28 -159s-45 -91.5 -79 -128.5s-74.667 -68 -122 -93s-99.666 -42.5 -157 -52.5v-16c75.333 -9.33301 141.833 -27.5 199.5 -54.5s106 -61 145 -102s68.333 -88.333 88 -142s29.5 -112.5 29.5 -176.5c0 -87.333 -19.333 -167.833 -58 -241.5
s-93 -137.334 -163 -191.001s-153.167 -95.5 -249.5 -125.5s-202.166 -45 -317.499 -45c-112.667 0 -216.167 14.833 -310.5 44.5s-175.666 71.334 -243.999 125.001s-122 117.667 -161 192s-59.5 156.166 -61.5 245.499h436z" />
    <glyph glyph-name="uni2463" unicode="&#x34;&#x20dd;" horiz-adv-x="3912" 
d="M32 1024c0 177.333 22.833 347.834 68.5 511.501s110.334 316.834 194.001 459.501s184 272.5 301 389.5s246.833 217.333 389.5 301s295.834 148.334 459.501 194c163.667 45.667 334.167 68.5 511.5 68.5s347.833 -22.833 511.5 -68.5s316.834 -110.334 459.5 -194.001
c142.667 -83.667 272.5 -184 389.5 -301s217.333 -246.833 301 -389.5s148.334 -295.834 194 -459.501c45.667 -163.667 68.5 -334.167 68.5 -511.5s-22.833 -347.833 -68.5 -511.5s-110.334 -316.834 -194 -459.501c-83.667 -142.667 -184 -272.5 -301 -389.5
s-246.833 -217.333 -389.5 -301s-295.834 -148.334 -459.5 -194.001c-163.667 -45.667 -334.167 -68.5 -511.5 -68.5s-347.833 22.833 -511.5 68.5s-316.834 110.334 -459.501 194.001s-272.5 184 -389.5 301s-217.333 246.833 -301 389.5
s-148.334 295.834 -194.001 459.501s-68.5 334.167 -68.5 511.5zM317 1024c0 -150.667 19.499 -295.834 58.499 -435.501s94 -270.167 165 -391.5s156.333 -231.833 256 -331.5s210.334 -185.167 332.001 -256.5s252.334 -126.5 392.001 -165.5s284.834 -58.5 435.501 -58.5
c151.333 0 296.666 19.5 436 58.5c139.333 39 269.833 94.167 391.5 165.5s232.334 156.833 332 256.5c99.667 99.667 185 210.167 256 331.5s126 251.833 165 391.5s58.5 284.834 58.5 435.501c0 151.333 -19.5 296.666 -58.5 435.999s-94 269.833 -165 391.5
s-156.333 232.334 -256 332.001s-210.334 185 -332 256c-121.667 71 -252.167 126 -391.5 165s-284.666 58.5 -435.999 58.5c-150.667 0 -295.834 -19.5 -435.501 -58.5s-270.334 -94 -392.001 -165s-232.334 -156.333 -332.001 -256s-185 -210.334 -256 -332.001
s-126 -252.167 -165 -391.5s-58.5 -284.666 -58.5 -435.999zM1023 360.001v341l855 1347h542v-1341h254v-347h-254v-360h-414v360h-983zM1459 707.001h555v869h-16l-539 -853v-16z" />
    <glyph glyph-name="uni2464" unicode="&#x35;&#x20dd;" horiz-adv-x="3912" 
d="M32 1024c0 177.333 22.833 347.834 68.5 511.501s110.334 316.834 194.001 459.501s184 272.5 301 389.5s246.833 217.333 389.5 301s295.834 148.334 459.501 194c163.667 45.667 334.167 68.5 511.5 68.5s347.833 -22.833 511.5 -68.5s316.834 -110.334 459.5 -194.001
c142.667 -83.667 272.5 -184 389.5 -301s217.333 -246.833 301 -389.5s148.334 -295.834 194 -459.501c45.667 -163.667 68.5 -334.167 68.5 -511.5s-22.833 -347.833 -68.5 -511.5s-110.334 -316.834 -194 -459.501c-83.667 -142.667 -184 -272.5 -301 -389.5
s-246.833 -217.333 -389.5 -301s-295.834 -148.334 -459.5 -194.001c-163.667 -45.667 -334.167 -68.5 -511.5 -68.5s-347.833 22.833 -511.5 68.5s-316.834 110.334 -459.501 194.001s-272.5 184 -389.5 301s-217.333 246.833 -301 389.5
s-148.334 295.834 -194.001 459.501s-68.5 334.167 -68.5 511.5zM1956 -614.999c151.333 0 296.666 19.5 436 58.5c139.333 39 269.833 94.167 391.5 165.5s232.334 156.833 332 256.5c99.667 99.667 185 210.167 256 331.5s126 251.833 165 391.5
s58.5 284.834 58.5 435.501c0 151.333 -19.5 296.666 -58.5 435.999s-94 269.833 -165 391.5s-156.333 232.334 -256 332.001s-210.334 185 -332 256c-121.667 71 -252.167 126 -391.5 165s-284.666 58.5 -436 58.5c-150.667 0 -295.834 -19.5 -435.501 -58.5
s-270.334 -94 -392.001 -165s-232.334 -156.333 -332.001 -256s-185 -210.334 -256 -332.001s-126 -252.167 -165 -391.5s-58.5 -284.666 -58.5 -435.999c0 -150.667 19.5 -295.834 58.5 -435.501s94 -270.167 165 -391.5s156.333 -231.833 256 -331.5
s210.334 -185.167 332.001 -256.5s252.334 -126.5 392.001 -165.5s284.834 -58.5 435.501 -58.5zM1203 579.001h419.999c2.66699 -40 12.834 -76.333 30.501 -109s40.834 -60.667 69.501 -84s62 -41.5 100 -54.5s78.333 -19.5 121 -19.5
c50.667 0 97.334 8.83301 140.001 26.5s79.334 42.334 110 74.001c30.667 31.667 54.667 69.5 72 113.5s26 92.667 26 146c0 54 -8.83301 103.333 -26.5 148s-42.167 83 -73.5 115s-68.666 57 -112 75c-43.333 18 -90.666 27 -141.999 27c-30 0 -60 -3.16699 -90 -9.5
s-58.333 -15.5 -85 -27.5s-51.167 -26.5 -73.5 -43.5s-41.5 -36.167 -57.5 -57.5l-385 69l97 1080h1252v-354h-895l-53 -513h12c18 25.333 40.833 48.666 68.5 69.999s59.167 39.833 94.5 55.5s73.666 28 114.999 37s84.333 13.5 129 13.5c92 0 177.333 -16.667 256 -50
s146.667 -80 204 -140s102 -131.167 134 -213.5s48 -172.5 48 -270.5c0 -103.333 -18.333 -198.5 -55 -285.5s-88.667 -162 -156 -225s-148 -112.167 -242 -147.5s-198 -53 -312 -53c-106 0 -203.833 15 -293.5 45s-167.334 71.833 -233.001 125.5
s-117.334 117.667 -155.001 192s-57.5 155.833 -59.5 244.5z" />
    <glyph glyph-name="uni2465" unicode="&#x36;&#x20dd;" horiz-adv-x="3912" 
d="M32 1024c0 177.333 22.833 347.834 68.5 511.501s110.334 316.834 194.001 459.501s184 272.5 301 389.5s246.833 217.333 389.5 301s295.834 148.334 459.501 194c163.667 45.667 334.167 68.5 511.5 68.5s347.833 -22.833 511.5 -68.5s316.834 -110.334 459.5 -194.001
c142.667 -83.667 272.5 -184 389.5 -301s217.333 -246.833 301 -389.5s148.334 -295.834 194 -459.501c45.667 -163.667 68.5 -334.167 68.5 -511.5s-22.833 -347.833 -68.5 -511.5s-110.334 -316.834 -194 -459.501c-83.667 -142.667 -184 -272.5 -301 -389.5
s-246.833 -217.333 -389.5 -301s-295.834 -148.334 -459.5 -194.001c-163.667 -45.667 -334.167 -68.5 -511.5 -68.5s-347.833 22.833 -511.5 68.5s-316.834 110.334 -459.501 194.001s-272.5 184 -389.5 301s-217.333 246.833 -301 389.5
s-148.334 295.834 -194.001 459.501s-68.5 334.167 -68.5 511.5zM1956 -614.999c151.333 0 296.666 19.5 436 58.5c139.333 39 269.833 94.167 391.5 165.5s232.334 156.833 332 256.5c99.667 99.667 185 210.167 256 331.5s126 251.833 165 391.5
s58.5 284.834 58.5 435.501c0 151.333 -19.5 296.666 -58.5 435.999s-94 269.833 -165 391.5s-156.333 232.334 -256 332.001s-210.334 185 -332 256c-121.667 71 -252.167 126 -391.5 165s-284.666 58.5 -436 58.5c-150.667 0 -295.834 -19.5 -435.501 -58.5
s-270.334 -94 -392.001 -165s-232.334 -156.333 -332.001 -256s-185 -210.334 -256 -332.001s-126 -252.167 -165 -391.5s-58.5 -284.666 -58.5 -435.999c0 -150.667 19.5 -295.834 58.5 -435.501s94 -270.167 165 -391.5s156.333 -231.833 256 -331.5
s210.334 -185.167 332.001 -256.5s252.334 -126.5 392.001 -165.5s284.834 -58.5 435.501 -58.5zM1152 978.001c0.666992 173.333 20.6719 328.332 60.0049 464.999s95.166 252.334 167.499 347.001s159.666 167 261.999 217s216.833 75 343.5 75
c102 0 195.5 -15.5 280.5 -46.5s159.167 -73.5 222.5 -127.5s114.5 -118 153.5 -192s63.5 -154 73.5 -240h-427c-16.667 75.333 -51.667 133.333 -105 174s-119.333 61 -198 61c-66.667 0 -125.334 -15 -176.001 -45s-93.167 -73.167 -127.5 -129.5
s-60.333 -124.833 -78 -205.5s-26.834 -171.667 -27.501 -273h14c23.333 45.333 52.666 85.833 87.999 121.5s75.333 66 120 91s93.167 44 145.5 57s106.5 19.5 162.5 19.5c90.667 0 174.5 -16.5 251.5 -49.5s143.667 -78.667 200 -137s100.166 -128 131.499 -209
s47 -169.5 47 -265.5c0 -104 -18.5 -199.833 -55.5 -287.5s-89.167 -163.167 -156.5 -226.5s-148 -112.666 -242 -147.999s-198 -52.666 -312 -51.999c-70 0 -138.833 7.66699 -206.5 23s-131.667 39.333 -192 72s-116.166 75.167 -167.499 127.5
s-95.5 115.666 -132.5 189.999s-66.167 160.666 -87.5 258.999s-32 209.833 -32 334.5zM1968 312c50 0 96.333 9.16895 139 27.502s79.5 43.833 110.5 76.5s55.167 71 72.5 115s26 91.667 26 143c0 50.667 -8.5 98 -25.5 142s-40.833 82.167 -71.5 114.5
s-67.167 57.666 -109.5 75.999s-88.5 27.5 -138.5 27.5s-96.333 -9.5 -139 -28.5s-79.667 -44.833 -111 -77.5s-56 -70.834 -74 -114.501s-27 -90.5 -27 -140.5s8.83301 -97 26.5 -141s42 -82.167 73 -114.5s67.667 -58 110 -77s88.5 -28.5 138.5 -28.5z" />
    <glyph glyph-name="uni2466" unicode="&#x37;&#x20dd;" horiz-adv-x="3912" 
d="M32 1024c0 177.333 22.833 347.834 68.5 511.501s110.334 316.834 194.001 459.501s184 272.5 301 389.5s246.833 217.333 389.5 301s295.834 148.334 459.501 194c163.667 45.667 334.167 68.5 511.5 68.5s347.833 -22.833 511.5 -68.5s316.834 -110.334 459.5 -194.001
c142.667 -83.667 272.5 -184 389.5 -301s217.333 -246.833 301 -389.5s148.334 -295.834 194 -459.501c45.667 -163.667 68.5 -334.167 68.5 -511.5s-22.833 -347.833 -68.5 -511.5s-110.334 -316.834 -194 -459.501c-83.667 -142.667 -184 -272.5 -301 -389.5
s-246.833 -217.333 -389.5 -301s-295.834 -148.334 -459.5 -194.001c-163.667 -45.667 -334.167 -68.5 -511.5 -68.5s-347.833 22.833 -511.5 68.5s-316.834 110.334 -459.501 194.001s-272.5 184 -389.5 301s-217.333 246.833 -301 389.5
s-148.334 295.834 -194.001 459.501s-68.5 334.167 -68.5 511.5zM317 1024c0 -150.667 19.499 -295.834 58.499 -435.501s94 -270.167 165 -391.5s156.333 -231.833 256 -331.5s210.334 -185.167 332.001 -256.5s252.334 -126.5 392.001 -165.5s284.834 -58.5 435.501 -58.5
c151.333 0 296.666 19.5 436 58.5c139.333 39 269.833 94.167 391.5 165.5s232.334 156.833 332 256.5c99.667 99.667 185 210.167 256 331.5s126 251.833 165 391.5s58.5 284.834 58.5 435.501c0 151.333 -19.5 296.666 -58.5 435.999s-94 269.833 -165 391.5
s-156.333 232.334 -256 332.001s-210.334 185 -332 256c-121.667 71 -252.167 126 -391.5 165s-284.666 58.5 -435.999 58.5c-150.667 0 -295.834 -19.5 -435.501 -58.5s-270.334 -94 -392.001 -165s-232.334 -156.333 -332.001 -256s-185 -210.334 -256 -332.001
s-126 -252.167 -165 -391.5s-58.5 -284.666 -58.5 -435.999zM1284 1694v354h1437v-359l-850 -1689h-447l849 1680v14h-989z" />
    <glyph glyph-name="uni2467" unicode="&#x38;&#x20dd;" horiz-adv-x="3912" 
d="M32 1024c0 177.333 22.833 347.834 68.5 511.501s110.334 316.834 194.001 459.501s184 272.5 301 389.5s246.833 217.333 389.5 301s295.834 148.334 459.501 194c163.667 45.667 334.167 68.5 511.5 68.5s347.833 -22.833 511.5 -68.5s316.834 -110.334 459.5 -194.001
c142.667 -83.667 272.5 -184 389.5 -301s217.333 -246.833 301 -389.5s148.334 -295.834 194 -459.501c45.667 -163.667 68.5 -334.167 68.5 -511.5s-22.833 -347.833 -68.5 -511.5s-110.334 -316.834 -194 -459.501c-83.667 -142.667 -184 -272.5 -301 -389.5
s-246.833 -217.333 -389.5 -301s-295.834 -148.334 -459.5 -194.001c-163.667 -45.667 -334.167 -68.5 -511.5 -68.5s-347.833 22.833 -511.5 68.5s-316.834 110.334 -459.501 194.001s-272.5 184 -389.5 301s-217.333 246.833 -301 389.5
s-148.334 295.834 -194.001 459.501s-68.5 334.167 -68.5 511.5zM1956 -614.999c151.333 0 296.666 19.5 436 58.5c139.333 39 269.833 94.167 391.5 165.5s232.334 156.833 332 256.5c99.667 99.667 185 210.167 256 331.5s126 251.833 165 391.5
s58.5 284.834 58.5 435.501c0 151.333 -19.5 296.666 -58.5 435.999s-94 269.833 -165 391.5s-156.333 232.334 -256 332.001s-210.334 185 -332 256c-121.667 71 -252.167 126 -391.5 165s-284.666 58.5 -436 58.5c-150.667 0 -295.834 -19.5 -435.501 -58.5
s-270.334 -94 -392.001 -165s-232.334 -156.333 -332.001 -256s-185 -210.334 -256 -332.001s-126 -252.167 -165 -391.5s-58.5 -284.666 -58.5 -435.999c0 -150.667 19.5 -295.834 58.5 -435.501s94 -270.167 165 -391.5s156.333 -231.833 256 -331.5
s210.334 -185.167 332.001 -256.5s252.334 -126.5 392.001 -165.5s284.834 -58.5 435.501 -58.5zM1162 551.001c0 64 11.3301 124.499 33.9971 181.499s54 107.833 94 152.5s87 82 141 112s112.333 50 175 60v14c-54.667 11.333 -104.5 30.833 -149.5 58.5
s-83.833 61.5 -116.5 101.5s-57.834 85 -75.501 135s-26.5 103 -26.5 159c0 79.333 17.833 152.666 53.5 219.999s85.5 125.5 149.5 174.5s139.833 87.333 227.5 115s183.5 41.5 287.5 41.5c103.333 0 198.833 -13.833 286.5 -41.5s163.5 -66 227.5 -115
s114.167 -107.167 150.5 -174.5s54.5 -140.666 54.5 -219.999c0 -56 -9.16699 -109.167 -27.5 -159.5s-43.833 -95.5 -76.5 -135.5s-71.5 -73.667 -116.5 -101s-94.167 -46.666 -147.5 -57.999v-14c61.333 -10 119 -30 173 -60s101 -67.333 141 -112s71.667 -95.5 95 -152.5
s35 -117.5 35 -181.5c0 -82.667 -19.833 -159.5 -59.5 -230.5s-94.667 -132.167 -165 -183.5s-154.166 -91.666 -251.5 -120.999c-97.333 -29.333 -203.666 -44 -318.999 -44s-221.666 14.667 -318.999 44s-181.166 69.666 -251.499 120.999s-125.166 112.5 -164.499 183.5
s-59 147.833 -59 230.5zM1612 585c0 -43.333 8.33398 -82.999 25.001 -118.999s40 -67 70 -93s66.167 -46.333 108.5 -61s89.166 -22 140.499 -22s98.166 7.16699 140.499 21.5s78.5 34.5 108.5 60.5s53.333 57.167 70 93.5s25 76.166 25 119.499
c0 44 -8.66699 84.667 -26 122s-41.333 69.5 -72 96.5s-67 48.167 -109 63.5s-87.667 23 -137 23c-50 0 -96 -7.66699 -138 -23s-78.167 -36.5 -108.5 -63.5s-54.166 -59.167 -71.499 -96.5s-26 -78 -26 -122zM1660 1480c0 -40.667 7.33301 -77.834 22 -111.501
s35 -62.667 61 -87s57.167 -43.166 93.5 -56.499s76.166 -20 119.499 -20s83 6.66699 119 20s67.167 32.166 93.5 56.499s46.833 53.333 61.5 87s22 70.834 22 111.501c0 40 -7.33301 76.5 -22 109.5s-35 61.333 -61 85s-57.167 42.167 -93.5 55.5s-76.166 20 -119.499 20
c-44 0 -84.167 -6.5 -120.5 -19.5s-67.5 -31.5 -93.5 -55.5s-46.167 -52.5 -60.5 -85.5s-21.5 -69.5 -21.5 -109.5z" />
    <glyph glyph-name="uni2468" unicode="&#x39;&#x20dd;" horiz-adv-x="3912" 
d="M32 1024c0 177.333 22.833 347.834 68.5 511.501s110.334 316.834 194.001 459.501s184 272.5 301 389.5s246.833 217.333 389.5 301s295.834 148.334 459.501 194c163.667 45.667 334.167 68.5 511.5 68.5s347.833 -22.833 511.5 -68.5s316.834 -110.334 459.5 -194.001
c142.667 -83.667 272.5 -184 389.5 -301s217.333 -246.833 301 -389.5s148.334 -295.834 194 -459.501c45.667 -163.667 68.5 -334.167 68.5 -511.5s-22.833 -347.833 -68.5 -511.5s-110.334 -316.834 -194 -459.501c-83.667 -142.667 -184 -272.5 -301 -389.5
s-246.833 -217.333 -389.5 -301s-295.834 -148.334 -459.5 -194.001c-163.667 -45.667 -334.167 -68.5 -511.5 -68.5s-347.833 22.833 -511.5 68.5s-316.834 110.334 -459.501 194.001s-272.5 184 -389.5 301s-217.333 246.833 -301 389.5
s-148.334 295.834 -194.001 459.501s-68.5 334.167 -68.5 511.5zM1956 -614.999c151.333 0 296.666 19.5 436 58.5c139.333 39 269.833 94.167 391.5 165.5s232.334 156.833 332 256.5c99.667 99.667 185 210.167 256 331.5s126 251.833 165 391.5
s58.5 284.834 58.5 435.501c0 151.333 -19.5 296.666 -58.5 435.999s-94 269.833 -165 391.5s-156.333 232.334 -256 332.001s-210.334 185 -332 256c-121.667 71 -252.167 126 -391.5 165s-284.666 58.5 -436 58.5c-150.667 0 -295.834 -19.5 -435.501 -58.5
s-270.334 -94 -392.001 -165s-232.334 -156.333 -332.001 -256s-185 -210.334 -256 -332.001s-126 -252.167 -165 -391.5s-58.5 -284.666 -58.5 -435.999c0 -150.667 19.5 -295.834 58.5 -435.501s94 -270.167 165 -391.5s156.333 -231.833 256 -331.5
s210.334 -185.167 332.001 -256.5s252.334 -126.5 392.001 -165.5s284.834 -58.5 435.501 -58.5zM1172 1368c-0.666992 104 17.333 199.835 54 287.502s88.667 163.167 156 226.5s148 112.666 242 147.999s198.333 52.666 313 51.999c70 0 138.833 -7.5 206.5 -22.5
s131.834 -39 192.5 -72c60.667 -33 116.5 -75.5 167.5 -127.5s95.167 -115.167 132.5 -189.5s66.5 -160.666 87.5 -258.999s31.5 -209.833 31.5 -334.5c0 -174 -19.667 -329.333 -59 -466s-95.166 -252.334 -167.5 -347.001c-72.333 -94.667 -159.833 -167 -262.5 -217
s-217.334 -75 -344 -75c-102.667 0 -196.5 15.333 -281.5 46s-159 73.167 -222 127.5s-114 118.5 -153 192.5s-63.5 154 -73.5 240h427c16.667 -74.667 51.667 -132.5 105 -173.5s119.333 -61.5 198 -61.5c66.667 0 125.5 15 176.5 45s93.667 73.167 128 129.5
s60.333 124.833 78 205.5s26.5 171.667 26.5 273h-14c-22.667 -44.667 -51.834 -85 -87.5 -121c-35.667 -36 -75.834 -66.333 -120.5 -91c-44.667 -24.667 -93.167 -43.667 -145.5 -57s-106.5 -20 -162.5 -20c-90.667 0 -174.5 16.5 -251.5 49.5s-143.5 78.667 -199.5 137
s-99.833 128 -131.5 209s-47.167 169.5 -46.5 265.5zM1592 1380c-0.666992 -50.667 7.5 -97.8359 24.5 -141.503s40.833 -81.667 71.5 -114s67.167 -57.666 109.5 -75.999s88.5 -27.5 138.5 -27.5c49.333 0 95.333 9.5 138 28.5s79.834 44.833 111.5 77.5
c31.667 32.667 56.5 70.834 74.5 114.501s27.333 90.5 28 140.5c-0.666992 49.333 -9.83398 95.833 -27.501 139.5s-42 81.834 -73 114.501s-67.5 58.5 -109.5 77.5s-88 28.5 -138 28.5s-96.5 -9.16699 -139.5 -27.5s-80 -43.833 -111 -76.5s-55.167 -71 -72.5 -115
s-25.666 -91.667 -24.999 -143z" />
    <glyph glyph-name="uni24B6" unicode="A&#x20dd;" horiz-adv-x="3912" 
d="M32 1024c0 177.333 22.833 347.834 68.5 511.501s110.334 316.834 194.001 459.501s184 272.5 301 389.5s246.833 217.333 389.5 301s295.834 148.334 459.501 194c163.667 45.667 334.167 68.5 511.5 68.5s347.833 -22.833 511.5 -68.5s316.834 -110.334 459.5 -194.001
c142.667 -83.667 272.5 -184 389.5 -301s217.333 -246.833 301 -389.5s148.334 -295.834 194 -459.501c45.667 -163.667 68.5 -334.167 68.5 -511.5s-22.833 -347.833 -68.5 -511.5s-110.334 -316.834 -194 -459.501c-83.667 -142.667 -184 -272.5 -301 -389.5
s-246.833 -217.333 -389.5 -301s-295.834 -148.334 -459.5 -194.001c-163.667 -45.667 -334.167 -68.5 -511.5 -68.5s-347.833 22.833 -511.5 68.5s-316.834 110.334 -459.501 194.001s-272.5 184 -389.5 301s-217.333 246.833 -301 389.5
s-148.334 295.834 -194.001 459.501s-68.5 334.167 -68.5 511.5zM1956 -614.999c151.333 0 296.666 19.5 436 58.5c139.333 39 269.833 94.167 391.5 165.5s232.334 156.833 332 256.5c99.667 99.667 185 210.167 256 331.5s126 251.833 165 391.5
s58.5 284.834 58.5 435.501c0 151.333 -19.5 296.666 -58.5 435.999s-94 269.833 -165 391.5s-156.333 232.334 -256 332.001s-210.334 185 -332 256c-121.667 71 -252.167 126 -391.5 165s-284.666 58.5 -436 58.5c-150.667 0 -295.834 -19.5 -435.501 -58.5
s-270.334 -94 -392.001 -165s-232.334 -156.333 -332.001 -256s-185 -210.334 -256 -332.001s-126 -252.167 -165 -391.5s-58.5 -284.666 -58.5 -435.999c0 -150.667 19.5 -295.834 58.5 -435.501s94 -270.167 165 -391.5s156.333 -231.833 256 -331.5
s210.334 -185.167 332.001 -256.5s252.334 -126.5 392.001 -165.5s284.834 -58.5 435.501 -58.5zM970 0.000976562l707 2048h558l706 -2048h-464l-152 467h-739l-152 -467h-464zM1696 805.001h520l-252 775h-16z" />
    <glyph glyph-name="uni24B7" unicode="B&#x20dd;" horiz-adv-x="3912" 
d="M32 1024c0 177.333 22.833 347.834 68.5 511.501s110.334 316.834 194.001 459.501s184 272.5 301 389.5s246.833 217.333 389.5 301s295.834 148.334 459.501 194c163.667 45.667 334.167 68.5 511.5 68.5s347.833 -22.833 511.5 -68.5s316.834 -110.334 459.5 -194.001
c142.667 -83.667 272.5 -184 389.5 -301s217.333 -246.833 301 -389.5s148.334 -295.834 194 -459.501c45.667 -163.667 68.5 -334.167 68.5 -511.5s-22.833 -347.833 -68.5 -511.5s-110.334 -316.834 -194 -459.501c-83.667 -142.667 -184 -272.5 -301 -389.5
s-246.833 -217.333 -389.5 -301s-295.834 -148.334 -459.5 -194.001c-163.667 -45.667 -334.167 -68.5 -511.5 -68.5s-347.833 22.833 -511.5 68.5s-316.834 110.334 -459.501 194.001s-272.5 184 -389.5 301s-217.333 246.833 -301 389.5
s-148.334 295.834 -194.001 459.501s-68.5 334.167 -68.5 511.5zM1956 -614.999c151.333 0 296.666 19.5 436 58.5c139.333 39 269.833 94.167 391.5 165.5s232.334 156.833 332 256.5c99.667 99.667 185 210.167 256 331.5s126 251.833 165 391.5
s58.5 284.834 58.5 435.501c0 151.333 -19.5 296.666 -58.5 435.999s-94 269.833 -165 391.5s-156.333 232.334 -256 332.001s-210.334 185 -332 256c-121.667 71 -252.167 126 -391.5 165s-284.666 58.5 -436 58.5c-150.667 0 -295.834 -19.5 -435.501 -58.5
s-270.334 -94 -392.001 -165s-232.334 -156.333 -332.001 -256s-185 -210.334 -256 -332.001s-126 -252.167 -165 -391.5s-58.5 -284.666 -58.5 -435.999c0 -150.667 19.5 -295.834 58.5 -435.501s94 -270.167 165 -391.5s156.333 -231.833 256 -331.5
s210.334 -185.167 332.001 -256.5s252.334 -126.5 392.001 -165.5s284.834 -58.5 435.501 -58.5zM1246 2048l820 -0.00195312c113.333 0 212.333 -13 297 -39s155.5 -62.167 212.5 -108.5s99.667 -101.666 128 -165.999s42.5 -134.833 42.5 -211.5
c0 -60 -9.33301 -114.5 -28 -163.5s-44.5 -92 -77.5 -129s-72 -67.833 -117 -92.5s-94.167 -43 -147.5 -55v-20c58 -2.66699 114.167 -15.834 168.5 -39.501s102.333 -56.834 144 -99.501s75 -94 100 -154s37.5 -128 37.5 -204c0 -81.333 -15.167 -156.666 -45.5 -225.999
s-75.166 -129.166 -134.5 -179.499c-59.333 -50.333 -132.833 -89.666 -220.5 -117.999s-189.167 -42.5 -304.5 -42.5h-875v2048zM2032 353.999c60.667 0 112.834 6.00195 156.5 18.002c43.667 12 79.667 29.167 108 51.5s49.166 49.166 62.5 80.499
c13.333 31.333 20 66.333 20 105c0 42 -7.83301 80.833 -23.5 116.5s-38 66.167 -67 91.5s-64.333 45.166 -106 59.499s-88.5 21.5 -140.5 21.5h-363v-544h353zM1679 1191l321 0.00195312c44 0 85 6 123 18s70.667 29.167 98 51.5s48.833 49.5 64.5 81.5
s23.5 68.333 23.5 109c0 37.333 -6.66699 71.166 -20 101.499s-32.833 56.166 -58.5 77.499s-57.167 38 -94.5 50s-80 18 -128 18h-329v-507z" />
    <glyph glyph-name="uni24B8" unicode="C&#x20dd;" horiz-adv-x="3912" 
d="M32 1024c0 177.333 22.833 347.834 68.5 511.501s110.334 316.834 194.001 459.501s184 272.5 301 389.5s246.833 217.333 389.5 301s295.834 148.334 459.501 194c163.667 45.667 334.167 68.5 511.5 68.5s347.833 -22.833 511.5 -68.5s316.834 -110.334 459.5 -194.001
c142.667 -83.667 272.5 -184 389.5 -301s217.333 -246.833 301 -389.5s148.334 -295.834 194 -459.501c45.667 -163.667 68.5 -334.167 68.5 -511.5s-22.833 -347.833 -68.5 -511.5s-110.334 -316.834 -194 -459.501c-83.667 -142.667 -184 -272.5 -301 -389.5
s-246.833 -217.333 -389.5 -301s-295.834 -148.334 -459.5 -194.001c-163.667 -45.667 -334.167 -68.5 -511.5 -68.5s-347.833 22.833 -511.5 68.5s-316.834 110.334 -459.501 194.001s-272.5 184 -389.5 301s-217.333 246.833 -301 389.5
s-148.334 295.834 -194.001 459.501s-68.5 334.167 -68.5 511.5zM1956 -614.999c151.333 0 296.666 19.5 436 58.5c139.333 39 269.833 94.167 391.5 165.5s232.334 156.833 332 256.5c99.667 99.667 185 210.167 256 331.5s126 251.833 165 391.5
s58.5 284.834 58.5 435.501c0 151.333 -19.5 296.666 -58.5 435.999s-94 269.833 -165 391.5s-156.333 232.334 -256 332.001s-210.334 185 -332 256c-121.667 71 -252.167 126 -391.5 165s-284.666 58.5 -436 58.5c-150.667 0 -295.834 -19.5 -435.501 -58.5
s-270.334 -94 -392.001 -165s-232.334 -156.333 -332.001 -256s-185 -210.334 -256 -332.001s-126 -252.167 -165 -391.5s-58.5 -284.666 -58.5 -435.999c0 -150.667 19.5 -295.834 58.5 -435.501s94 -270.167 165 -391.5s156.333 -231.833 256 -331.5
s210.334 -185.167 332.001 -256.5s252.334 -126.5 392.001 -165.5s284.834 -58.5 435.501 -58.5zM1035 1024c0 167.333 24.3369 316.327 73.0039 446.994s115.667 240.834 201 330.501s186.166 157.834 302.499 204.501s242.166 70 377.499 70
c118.667 0 229 -16.667 331 -50s192 -81.666 270 -144.999s142 -141.333 192 -234s82 -198 96 -316h-438c-8 56 -24.5 106.5 -49.5 151.5s-56.5 83 -94.5 114s-82.167 54.833 -132.5 71.5s-105.166 25 -164.499 25c-79.333 0 -151.333 -14.833 -216 -44.5
s-119.834 -73 -165.501 -130s-81 -127 -106 -210s-37.5 -177.833 -37.5 -284.5c0 -109.333 12.667 -205.666 38 -288.999s60.833 -153.166 106.5 -209.499s100.5 -98.833 164.5 -127.5s135 -43 213 -43c58 0 111.833 7.66699 161.5 23s93.667 37.833 132 67.5
s70.5 65.834 96.5 108.501s44 91.334 54 146.001l438 -2c-8 -62.667 -23.333 -124.167 -46 -184.5s-52.334 -117.333 -89.001 -171s-80.167 -103.167 -130.5 -148.5s-107 -84.5 -170 -117.5s-132.5 -58.667 -208.5 -77s-157.667 -27.5 -245 -27.5
c-91.333 0 -178.333 10.5 -261 31.5s-159.334 52 -230.001 93s-134.5 91.333 -191.5 151s-105.667 128.5 -146 206.5s-71.333 164.667 -93 260s-32.5 198.666 -32.5 309.999z" />
    <glyph glyph-name="uni24B9" unicode="D&#x20dd;" horiz-adv-x="3912" 
d="M32 1024c0 177.333 22.833 347.834 68.5 511.501s110.334 316.834 194.001 459.501s184 272.5 301 389.5s246.833 217.333 389.5 301s295.834 148.334 459.501 194c163.667 45.667 334.167 68.5 511.5 68.5s347.833 -22.833 511.5 -68.5s316.834 -110.334 459.5 -194.001
c142.667 -83.667 272.5 -184 389.5 -301s217.333 -246.833 301 -389.5s148.334 -295.834 194 -459.501c45.667 -163.667 68.5 -334.167 68.5 -511.5s-22.833 -347.833 -68.5 -511.5s-110.334 -316.834 -194 -459.501c-83.667 -142.667 -184 -272.5 -301 -389.5
s-246.833 -217.333 -389.5 -301s-295.834 -148.334 -459.5 -194.001c-163.667 -45.667 -334.167 -68.5 -511.5 -68.5s-347.833 22.833 -511.5 68.5s-316.834 110.334 -459.501 194.001s-272.5 184 -389.5 301s-217.333 246.833 -301 389.5
s-148.334 295.834 -194.001 459.501s-68.5 334.167 -68.5 511.5zM317 1024c0 -150.667 19.499 -295.834 58.499 -435.501s94 -270.167 165 -391.5s156.333 -231.833 256 -331.5s210.334 -185.167 332.001 -256.5s252.334 -126.5 392.001 -165.5s284.834 -58.5 435.501 -58.5
c151.333 0 296.666 19.5 436 58.5c139.333 39 269.833 94.167 391.5 165.5s232.334 156.833 332 256.5c99.667 99.667 185 210.167 256 331.5s126 251.833 165 391.5s58.5 284.834 58.5 435.501c0 151.333 -19.5 296.666 -58.5 435.999s-94 269.833 -165 391.5
s-156.333 232.334 -256 332.001s-210.334 185 -332 256c-121.667 71 -252.167 126 -391.5 165s-284.666 58.5 -435.999 58.5c-150.667 0 -295.834 -19.5 -435.501 -58.5s-270.334 -94 -392.001 -165s-232.334 -156.333 -332.001 -256s-185 -210.334 -256 -332.001
s-126 -252.167 -165 -391.5s-58.5 -284.666 -58.5 -435.999zM1993 2048c154.667 0 293.5 -23.334 416.5 -70.001s227.5 -114 313.5 -202s151.833 -195.167 197.5 -321.5s68.5 -269.166 68.5 -428.499c0 -160 -23 -303.5 -69 -430.5s-112 -234.5 -198 -322.5
s-191 -155.5 -315 -202.5s-264 -70.5 -420 -70.5h-726v2048h732zM1694 371l275 0.000976562c96 0 180.667 12.667 254 38s134.833 64.666 184.5 117.999s87 121.333 112 204s37.5 181 37.5 295s-12.5 212 -37.5 294s-62.333 149.5 -112 202.5s-111 92 -184 117
s-157.5 37.5 -253.5 37.5h-276v-1306z" />
    <glyph glyph-name="uni24BA" unicode="E&#x20dd;" horiz-adv-x="3912" 
d="M32 1024c0 177.333 22.833 347.834 68.5 511.501s110.334 316.834 194.001 459.501s184 272.5 301 389.5s246.833 217.333 389.5 301s295.834 148.334 459.501 194c163.667 45.667 334.167 68.5 511.5 68.5s347.833 -22.833 511.5 -68.5s316.834 -110.334 459.5 -194.001
c142.667 -83.667 272.5 -184 389.5 -301s217.333 -246.833 301 -389.5s148.334 -295.834 194 -459.501c45.667 -163.667 68.5 -334.167 68.5 -511.5s-22.833 -347.833 -68.5 -511.5s-110.334 -316.834 -194 -459.501c-83.667 -142.667 -184 -272.5 -301 -389.5
s-246.833 -217.333 -389.5 -301s-295.834 -148.334 -459.5 -194.001c-163.667 -45.667 -334.167 -68.5 -511.5 -68.5s-347.833 22.833 -511.5 68.5s-316.834 110.334 -459.501 194.001s-272.5 184 -389.5 301s-217.333 246.833 -301 389.5
s-148.334 295.834 -194.001 459.501s-68.5 334.167 -68.5 511.5zM1956 -614.999c151.333 0 296.666 19.5 436 58.5c139.333 39 269.833 94.167 391.5 165.5s232.334 156.833 332 256.5c99.667 99.667 185 210.167 256 331.5s126 251.833 165 391.5
s58.5 284.834 58.5 435.501c0 151.333 -19.5 296.666 -58.5 435.999s-94 269.833 -165 391.5s-156.333 232.334 -256 332.001s-210.334 185 -332 256c-121.667 71 -252.167 126 -391.5 165s-284.666 58.5 -436 58.5c-150.667 0 -295.834 -19.5 -435.501 -58.5
s-270.334 -94 -392.001 -165s-232.334 -156.333 -332.001 -256s-185 -210.334 -256 -332.001s-126 -252.167 -165 -391.5s-58.5 -284.666 -58.5 -435.999c0 -150.667 19.5 -295.834 58.5 -435.501s94 -270.167 165 -391.5s156.333 -231.833 256 -331.5
s210.334 -185.167 332.001 -256.5s252.334 -126.5 392.001 -165.5s284.834 -58.5 435.501 -58.5zM1262 0.000976562v2048h1380v-357h-947v-488h876v-357h-876v-489h951v-357h-1384z" />
    <glyph glyph-name="uni24BB" unicode="F&#x20dd;" horiz-adv-x="3912" 
d="M32 1024c0 177.333 22.833 347.834 68.5 511.501s110.334 316.834 194.001 459.501s184 272.5 301 389.5s246.833 217.333 389.5 301s295.834 148.334 459.501 194c163.667 45.667 334.167 68.5 511.5 68.5s347.833 -22.833 511.5 -68.5s316.834 -110.334 459.5 -194.001
c142.667 -83.667 272.5 -184 389.5 -301s217.333 -246.833 301 -389.5s148.334 -295.834 194 -459.501c45.667 -163.667 68.5 -334.167 68.5 -511.5s-22.833 -347.833 -68.5 -511.5s-110.334 -316.834 -194 -459.501c-83.667 -142.667 -184 -272.5 -301 -389.5
s-246.833 -217.333 -389.5 -301s-295.834 -148.334 -459.5 -194.001c-163.667 -45.667 -334.167 -68.5 -511.5 -68.5s-347.833 22.833 -511.5 68.5s-316.834 110.334 -459.501 194.001s-272.5 184 -389.5 301s-217.333 246.833 -301 389.5
s-148.334 295.834 -194.001 459.501s-68.5 334.167 -68.5 511.5zM1956 -614.999c151.333 0 296.666 19.5 436 58.5c139.333 39 269.833 94.167 391.5 165.5s232.334 156.833 332 256.5c99.667 99.667 185 210.167 256 331.5s126 251.833 165 391.5
s58.5 284.834 58.5 435.501c0 151.333 -19.5 296.666 -58.5 435.999s-94 269.833 -165 391.5s-156.333 232.334 -256 332.001s-210.334 185 -332 256c-121.667 71 -252.167 126 -391.5 165s-284.666 58.5 -436 58.5c-150.667 0 -295.834 -19.5 -435.501 -58.5
s-270.334 -94 -392.001 -165s-232.334 -156.333 -332.001 -256s-185 -210.334 -256 -332.001s-126 -252.167 -165 -391.5s-58.5 -284.666 -58.5 -435.999c0 -150.667 19.5 -295.834 58.5 -435.501s94 -270.167 165 -391.5s156.333 -231.833 256 -331.5
s210.334 -185.167 332.001 -256.5s252.334 -126.5 392.001 -165.5s284.834 -58.5 435.501 -58.5zM1278 0.000976562v2048h1356v-357h-923v-488h833v-357h-833v-846h-433z" />
    <glyph glyph-name="uni24BC" unicode="G&#x20dd;" horiz-adv-x="3912" 
d="M32 1024c0 177.333 22.833 347.834 68.5 511.501s110.334 316.834 194.001 459.501s184 272.5 301 389.5s246.833 217.333 389.5 301s295.834 148.334 459.501 194c163.667 45.667 334.167 68.5 511.5 68.5s347.833 -22.833 511.5 -68.5s316.834 -110.334 459.5 -194.001
c142.667 -83.667 272.5 -184 389.5 -301s217.333 -246.833 301 -389.5s148.334 -295.834 194 -459.501c45.667 -163.667 68.5 -334.167 68.5 -511.5s-22.833 -347.833 -68.5 -511.5s-110.334 -316.834 -194 -459.501c-83.667 -142.667 -184 -272.5 -301 -389.5
s-246.833 -217.333 -389.5 -301s-295.834 -148.334 -459.5 -194.001c-163.667 -45.667 -334.167 -68.5 -511.5 -68.5s-347.833 22.833 -511.5 68.5s-316.834 110.334 -459.501 194.001s-272.5 184 -389.5 301s-217.333 246.833 -301 389.5
s-148.334 295.834 -194.001 459.501s-68.5 334.167 -68.5 511.5zM1956 -614.999c151.333 0 296.666 19.5 436 58.5c139.333 39 269.833 94.167 391.5 165.5s232.334 156.833 332 256.5c99.667 99.667 185 210.167 256 331.5s126 251.833 165 391.5
s58.5 284.834 58.5 435.501c0 151.333 -19.5 296.666 -58.5 435.999s-94 269.833 -165 391.5s-156.333 232.334 -256 332.001s-210.334 185 -332 256c-121.667 71 -252.167 126 -391.5 165s-284.666 58.5 -436 58.5c-150.667 0 -295.834 -19.5 -435.501 -58.5
s-270.334 -94 -392.001 -165s-232.334 -156.333 -332.001 -256s-185 -210.334 -256 -332.001s-126 -252.167 -165 -391.5s-58.5 -284.666 -58.5 -435.999c0 -150.667 19.5 -295.834 58.5 -435.501s94 -270.167 165 -391.5s156.333 -231.833 256 -331.5
s210.334 -185.167 332.001 -256.5s252.334 -126.5 392.001 -165.5s284.834 -58.5 435.501 -58.5zM1030 1022c0 166 24.5 314.334 73.5 445.001s116.5 241 202.5 331s187.333 158.833 304 206.5s242.667 71.5 378 71.5c116 0 224.167 -17 324.5 -51s189 -81.5 266 -142.5
s140.333 -133.667 190 -218s81.5 -177.166 95.5 -278.499h-440c-14 48 -33.667 91 -59 129s-56.166 70.167 -92.5 96.5c-36.333 26.333 -77.666 46.5 -124 60.5c-46.333 14 -97.5 21 -153.5 21c-78 0 -149.333 -14.833 -214 -44.5s-120.167 -72.834 -166.5 -129.501
s-82.166 -126.334 -107.499 -209.001s-38 -177.334 -38 -284.001s12.333 -201.667 37 -285s60 -153.666 106 -210.999s101.667 -100.833 167 -130.5s138.666 -44.5 219.999 -44.5c72 0 136.5 9.66699 193.5 29s105.5 47 145.5 83s71 79.667 93 131
s33.667 108.666 35 171.999h-440v326h857v-258c0 -134.667 -21.833 -255.5 -65.5 -362.5s-104.834 -197.833 -183.5 -272.5c-78.667 -74.667 -172.167 -131.834 -280.5 -171.501s-227.166 -59.5 -356.499 -59.5c-144 0 -275.5 24.333 -394.5 73
s-220.833 118.334 -305.5 209.001s-150.334 200.834 -197.001 330.501s-70 275.5 -70 437.5z" />
    <glyph glyph-name="uni24BD" unicode="H&#x20dd;" horiz-adv-x="3912" 
d="M32 1024c0 177.333 22.833 347.834 68.5 511.501s110.334 316.834 194.001 459.501s184 272.5 301 389.5s246.833 217.333 389.5 301s295.834 148.334 459.501 194c163.667 45.667 334.167 68.5 511.5 68.5s347.833 -22.833 511.5 -68.5s316.834 -110.334 459.5 -194.001
c142.667 -83.667 272.5 -184 389.5 -301s217.333 -246.833 301 -389.5s148.334 -295.834 194 -459.501c45.667 -163.667 68.5 -334.167 68.5 -511.5s-22.833 -347.833 -68.5 -511.5s-110.334 -316.834 -194 -459.501c-83.667 -142.667 -184 -272.5 -301 -389.5
s-246.833 -217.333 -389.5 -301s-295.834 -148.334 -459.5 -194.001c-163.667 -45.667 -334.167 -68.5 -511.5 -68.5s-347.833 22.833 -511.5 68.5s-316.834 110.334 -459.501 194.001s-272.5 184 -389.5 301s-217.333 246.833 -301 389.5
s-148.334 295.834 -194.001 459.501s-68.5 334.167 -68.5 511.5zM1956 -614.999c151.333 0 296.666 19.5 436 58.5c139.333 39 269.833 94.167 391.5 165.5s232.334 156.833 332 256.5c99.667 99.667 185 210.167 256 331.5s126 251.833 165 391.5
s58.5 284.834 58.5 435.501c0 151.333 -19.5 296.666 -58.5 435.999s-94 269.833 -165 391.5s-156.333 232.334 -256 332.001s-210.334 185 -332 256c-121.667 71 -252.167 126 -391.5 165s-284.666 58.5 -436 58.5c-150.667 0 -295.834 -19.5 -435.501 -58.5
s-270.334 -94 -392.001 -165s-232.334 -156.333 -332.001 -256s-185 -210.334 -256 -332.001s-126 -252.167 -165 -391.5s-58.5 -284.666 -58.5 -435.999c0 -150.667 19.5 -295.834 58.5 -435.501s94 -270.167 165 -391.5s156.333 -231.833 256 -331.5
s210.334 -185.167 332.001 -256.5s252.334 -126.5 392.001 -165.5s284.834 -58.5 435.501 -58.5zM1074 0.000976562v2048h433v-845h879v845h432v-2048h-432v846h-879v-846h-433z" />
    <glyph glyph-name="uni24BE" unicode="I&#x20dd;" horiz-adv-x="3912" 
d="M32 1024c0 177.333 22.833 347.834 68.5 511.501s110.334 316.834 194.001 459.501s184 272.5 301 389.5s246.833 217.333 389.5 301s295.834 148.334 459.501 194c163.667 45.667 334.167 68.5 511.5 68.5s347.833 -22.833 511.5 -68.5s316.834 -110.334 459.5 -194.001
c142.667 -83.667 272.5 -184 389.5 -301s217.333 -246.833 301 -389.5s148.334 -295.834 194 -459.501c45.667 -163.667 68.5 -334.167 68.5 -511.5s-22.833 -347.833 -68.5 -511.5s-110.334 -316.834 -194 -459.501c-83.667 -142.667 -184 -272.5 -301 -389.5
s-246.833 -217.333 -389.5 -301s-295.834 -148.334 -459.5 -194.001c-163.667 -45.667 -334.167 -68.5 -511.5 -68.5s-347.833 22.833 -511.5 68.5s-316.834 110.334 -459.501 194.001s-272.5 184 -389.5 301s-217.333 246.833 -301 389.5
s-148.334 295.834 -194.001 459.501s-68.5 334.167 -68.5 511.5zM1956 -614.999c151.333 0 296.666 19.5 436 58.5c139.333 39 269.833 94.167 391.5 165.5s232.334 156.833 332 256.5c99.667 99.667 185 210.167 256 331.5s126 251.833 165 391.5
s58.5 284.834 58.5 435.501c0 151.333 -19.5 296.666 -58.5 435.999s-94 269.833 -165 391.5s-156.333 232.334 -256 332.001s-210.334 185 -332 256c-121.667 71 -252.167 126 -391.5 165s-284.666 58.5 -436 58.5c-150.667 0 -295.834 -19.5 -435.501 -58.5
s-270.334 -94 -392.001 -165s-232.334 -156.333 -332.001 -256s-185 -210.334 -256 -332.001s-126 -252.167 -165 -391.5s-58.5 -284.666 -58.5 -435.999c0 -150.667 19.5 -295.834 58.5 -435.501s94 -270.167 165 -391.5s156.333 -231.833 256 -331.5
s210.334 -185.167 332.001 -256.5s252.334 -126.5 392.001 -165.5s284.834 -58.5 435.501 -58.5zM2172 2048v-2048h-433v2048h433z" />
    <glyph glyph-name="uni24BF" unicode="J&#x20dd;" horiz-adv-x="3912" 
d="M32 1024c0 177.333 22.833 347.834 68.5 511.501s110.334 316.834 194.001 459.501s184 272.5 301 389.5s246.833 217.333 389.5 301s295.834 148.334 459.501 194c163.667 45.667 334.167 68.5 511.5 68.5s347.833 -22.833 511.5 -68.5s316.834 -110.334 459.5 -194.001
c142.667 -83.667 272.5 -184 389.5 -301s217.333 -246.833 301 -389.5s148.334 -295.834 194 -459.501c45.667 -163.667 68.5 -334.167 68.5 -511.5s-22.833 -347.833 -68.5 -511.5s-110.334 -316.834 -194 -459.501c-83.667 -142.667 -184 -272.5 -301 -389.5
s-246.833 -217.333 -389.5 -301s-295.834 -148.334 -459.5 -194.001c-163.667 -45.667 -334.167 -68.5 -511.5 -68.5s-347.833 22.833 -511.5 68.5s-316.834 110.334 -459.501 194.001s-272.5 184 -389.5 301s-217.333 246.833 -301 389.5
s-148.334 295.834 -194.001 459.501s-68.5 334.167 -68.5 511.5zM1956 -614.999c151.333 0 296.666 19.5 436 58.5c139.333 39 269.833 94.167 391.5 165.5s232.334 156.833 332 256.5c99.667 99.667 185 210.167 256 331.5s126 251.833 165 391.5
s58.5 284.834 58.5 435.501c0 151.333 -19.5 296.666 -58.5 435.999s-94 269.833 -165 391.5s-156.333 232.334 -256 332.001s-210.334 185 -332 256c-121.667 71 -252.167 126 -391.5 165s-284.666 58.5 -436 58.5c-150.667 0 -295.834 -19.5 -435.501 -58.5
s-270.334 -94 -392.001 -165s-232.334 -156.333 -332.001 -256s-185 -210.334 -256 -332.001s-126 -252.167 -165 -391.5s-58.5 -284.666 -58.5 -435.999c0 -150.667 19.5 -295.834 58.5 -435.501s94 -270.167 165 -391.5s156.333 -231.833 256 -331.5
s210.334 -185.167 332.001 -256.5s252.334 -126.5 392.001 -165.5s284.834 -58.5 435.501 -58.5zM1220 576.001h431.001c0.666992 -40.667 7.16699 -77 19.5 -109s29.333 -59 51 -81s47.834 -38.667 78.501 -50s65 -17 103 -17c80.667 0 142.167 25.333 184.5 76
s63.833 125.667 64.5 225v1428h428v-1428c0 -99.333 -17 -189 -51 -269s-81.667 -148 -143 -204s-134.833 -99.167 -220.5 -129.5s-180.5 -45.5 -284.5 -45.5c-92.667 0 -179.334 12.333 -260.001 37s-150.834 62 -210.501 112s-106.5 112.833 -140.5 188.5
s-50.667 164.5 -50 266.5z" />
    <glyph glyph-name="uni24C0" unicode="K&#x20dd;" horiz-adv-x="3912" 
d="M32 1024c0 177.333 22.833 347.834 68.5 511.501s110.334 316.834 194.001 459.501s184 272.5 301 389.5s246.833 217.333 389.5 301s295.834 148.334 459.501 194c163.667 45.667 334.167 68.5 511.5 68.5s347.833 -22.833 511.5 -68.5s316.834 -110.334 459.5 -194.001
c142.667 -83.667 272.5 -184 389.5 -301s217.333 -246.833 301 -389.5s148.334 -295.834 194 -459.501c45.667 -163.667 68.5 -334.167 68.5 -511.5s-22.833 -347.833 -68.5 -511.5s-110.334 -316.834 -194 -459.501c-83.667 -142.667 -184 -272.5 -301 -389.5
s-246.833 -217.333 -389.5 -301s-295.834 -148.334 -459.5 -194.001c-163.667 -45.667 -334.167 -68.5 -511.5 -68.5s-347.833 22.833 -511.5 68.5s-316.834 110.334 -459.501 194.001s-272.5 184 -389.5 301s-217.333 246.833 -301 389.5
s-148.334 295.834 -194.001 459.501s-68.5 334.167 -68.5 511.5zM1956 -614.999c151.333 0 296.666 19.5 436 58.5c139.333 39 269.833 94.167 391.5 165.5s232.334 156.833 332 256.5c99.667 99.667 185 210.167 256 331.5s126 251.833 165 391.5
s58.5 284.834 58.5 435.501c0 151.333 -19.5 296.666 -58.5 435.999s-94 269.833 -165 391.5s-156.333 232.334 -256 332.001s-210.334 185 -332 256c-121.667 71 -252.167 126 -391.5 165s-284.666 58.5 -436 58.5c-150.667 0 -295.834 -19.5 -435.501 -58.5
s-270.334 -94 -392.001 -165s-232.334 -156.333 -332.001 -256s-185 -210.334 -256 -332.001s-126 -252.167 -165 -391.5s-58.5 -284.666 -58.5 -435.999c0 -150.667 19.5 -295.834 58.5 -435.501s94 -270.167 165 -391.5s156.333 -231.833 256 -331.5
s210.334 -185.167 332.001 -256.5s252.334 -126.5 392.001 -165.5s284.834 -58.5 435.501 -58.5zM1146 0.000976562v2048h433v-903h27l737 903h519l-760 -917l769 -1131h-518l-561 842l-213 -260v-582h-433z" />
    <glyph glyph-name="uni24C1" unicode="L&#x20dd;" horiz-adv-x="3912" 
d="M32 1024c0 177.333 22.833 347.834 68.5 511.501s110.334 316.834 194.001 459.501s184 272.5 301 389.5s246.833 217.333 389.5 301s295.834 148.334 459.501 194c163.667 45.667 334.167 68.5 511.5 68.5s347.833 -22.833 511.5 -68.5s316.834 -110.334 459.5 -194.001
c142.667 -83.667 272.5 -184 389.5 -301s217.333 -246.833 301 -389.5s148.334 -295.834 194 -459.501c45.667 -163.667 68.5 -334.167 68.5 -511.5s-22.833 -347.833 -68.5 -511.5s-110.334 -316.834 -194 -459.501c-83.667 -142.667 -184 -272.5 -301 -389.5
s-246.833 -217.333 -389.5 -301s-295.834 -148.334 -459.5 -194.001c-163.667 -45.667 -334.167 -68.5 -511.5 -68.5s-347.833 22.833 -511.5 68.5s-316.834 110.334 -459.501 194.001s-272.5 184 -389.5 301s-217.333 246.833 -301 389.5
s-148.334 295.834 -194.001 459.501s-68.5 334.167 -68.5 511.5zM317 1024c0 -150.667 19.499 -295.834 58.499 -435.501s94 -270.167 165 -391.5s156.333 -231.833 256 -331.5s210.334 -185.167 332.001 -256.5s252.334 -126.5 392.001 -165.5s284.834 -58.5 435.501 -58.5
c151.333 0 296.666 19.5 436 58.5c139.333 39 269.833 94.167 391.5 165.5s232.334 156.833 332 256.5c99.667 99.667 185 210.167 256 331.5s126 251.833 165 391.5s58.5 284.834 58.5 435.501c0 151.333 -19.5 296.666 -58.5 435.999s-94 269.833 -165 391.5
s-156.333 232.334 -256 332.001s-210.334 185 -332 256c-121.667 71 -252.167 126 -391.5 165s-284.666 58.5 -435.999 58.5c-150.667 0 -295.834 -19.5 -435.501 -58.5s-270.334 -94 -392.001 -165s-232.334 -156.333 -332.001 -256s-185 -210.334 -256 -332.001
s-126 -252.167 -165 -391.5s-58.5 -284.666 -58.5 -435.999zM1781 2048v-1691h878v-357h-1311v2048h433z" />
    <glyph glyph-name="uni24C2" unicode="M&#x20dd;" horiz-adv-x="3912" 
d="M32 1024c0 177.333 22.833 347.834 68.5 511.501s110.334 316.834 194.001 459.501s184 272.5 301 389.5s246.833 217.333 389.5 301s295.834 148.334 459.501 194c163.667 45.667 334.167 68.5 511.5 68.5s347.833 -22.833 511.5 -68.5s316.834 -110.334 459.5 -194.001
c142.667 -83.667 272.5 -184 389.5 -301s217.333 -246.833 301 -389.5s148.334 -295.834 194 -459.501c45.667 -163.667 68.5 -334.167 68.5 -511.5s-22.833 -347.833 -68.5 -511.5s-110.334 -316.834 -194 -459.501c-83.667 -142.667 -184 -272.5 -301 -389.5
s-246.833 -217.333 -389.5 -301s-295.834 -148.334 -459.5 -194.001c-163.667 -45.667 -334.167 -68.5 -511.5 -68.5s-347.833 22.833 -511.5 68.5s-316.834 110.334 -459.501 194.001s-272.5 184 -389.5 301s-217.333 246.833 -301 389.5
s-148.334 295.834 -194.001 459.501s-68.5 334.167 -68.5 511.5zM1956 -614.999c151.333 0 296.666 19.5 436 58.5c139.333 39 269.833 94.167 391.5 165.5s232.334 156.833 332 256.5c99.667 99.667 185 210.167 256 331.5s126 251.833 165 391.5
s58.5 284.834 58.5 435.501c0 151.333 -19.5 296.666 -58.5 435.999s-94 269.833 -165 391.5s-156.333 232.334 -256 332.001s-210.334 185 -332 256c-121.667 71 -252.167 126 -391.5 165s-284.666 58.5 -436 58.5c-150.667 0 -295.834 -19.5 -435.501 -58.5
s-270.334 -94 -392.001 -165s-232.334 -156.333 -332.001 -256s-185 -210.334 -256 -332.001s-126 -252.167 -165 -391.5s-58.5 -284.666 -58.5 -435.999c0 -150.667 19.5 -295.834 58.5 -435.501s94 -270.167 165 -391.5s156.333 -231.833 256 -331.5
s210.334 -185.167 332.001 -256.5s252.334 -126.5 392.001 -165.5s284.834 -58.5 435.501 -58.5zM846 0.000976562v2048h534l564 -1376h24l564 1376h534v-2048h-420v1333h-17l-530 -1323h-286l-530 1328h-17v-1338h-420z" />
    <glyph glyph-name="uni24C3" unicode="N&#x20dd;" horiz-adv-x="3912" 
d="M32 1024c0 177.333 22.833 347.834 68.5 511.501s110.334 316.834 194.001 459.501s184 272.5 301 389.5s246.833 217.333 389.5 301s295.834 148.334 459.501 194c163.667 45.667 334.167 68.5 511.5 68.5s347.833 -22.833 511.5 -68.5s316.834 -110.334 459.5 -194.001
c142.667 -83.667 272.5 -184 389.5 -301s217.333 -246.833 301 -389.5s148.334 -295.834 194 -459.501c45.667 -163.667 68.5 -334.167 68.5 -511.5s-22.833 -347.833 -68.5 -511.5s-110.334 -316.834 -194 -459.501c-83.667 -142.667 -184 -272.5 -301 -389.5
s-246.833 -217.333 -389.5 -301s-295.834 -148.334 -459.5 -194.001c-163.667 -45.667 -334.167 -68.5 -511.5 -68.5s-347.833 22.833 -511.5 68.5s-316.834 110.334 -459.501 194.001s-272.5 184 -389.5 301s-217.333 246.833 -301 389.5
s-148.334 295.834 -194.001 459.501s-68.5 334.167 -68.5 511.5zM1956 -614.999c151.333 0 296.666 19.5 436 58.5c139.333 39 269.833 94.167 391.5 165.5s232.334 156.833 332 256.5c99.667 99.667 185 210.167 256 331.5s126 251.833 165 391.5
s58.5 284.834 58.5 435.501c0 151.333 -19.5 296.666 -58.5 435.999s-94 269.833 -165 391.5s-156.333 232.334 -256 332.001s-210.334 185 -332 256c-121.667 71 -252.167 126 -391.5 165s-284.666 58.5 -436 58.5c-150.667 0 -295.834 -19.5 -435.501 -58.5
s-270.334 -94 -392.001 -165s-232.334 -156.333 -332.001 -256s-185 -210.334 -256 -332.001s-126 -252.167 -165 -391.5s-58.5 -284.666 -58.5 -435.999c0 -150.667 19.5 -295.834 58.5 -435.501s94 -270.167 165 -391.5s156.333 -231.833 256 -331.5
s210.334 -185.167 332.001 -256.5s252.334 -126.5 392.001 -165.5s284.834 -58.5 435.501 -58.5zM1099 0.000976562v2048h380l884 -1288h18v1288h431v-2048h-374l-891 1289h-15v-1289h-433z" />
    <glyph glyph-name="uni24C4" unicode="O&#x20dd;" horiz-adv-x="3912" 
d="M32 1024c0 177.333 22.833 347.834 68.5 511.501s110.334 316.834 194.001 459.501s184 272.5 301 389.5s246.833 217.333 389.5 301s295.834 148.334 459.501 194c163.667 45.667 334.167 68.5 511.5 68.5s347.833 -22.833 511.5 -68.5s316.834 -110.334 459.5 -194.001
c142.667 -83.667 272.5 -184 389.5 -301s217.333 -246.833 301 -389.5s148.334 -295.834 194 -459.501c45.667 -163.667 68.5 -334.167 68.5 -511.5s-22.833 -347.833 -68.5 -511.5s-110.334 -316.834 -194 -459.501c-83.667 -142.667 -184 -272.5 -301 -389.5
s-246.833 -217.333 -389.5 -301s-295.834 -148.334 -459.5 -194.001c-163.667 -45.667 -334.167 -68.5 -511.5 -68.5s-347.833 22.833 -511.5 68.5s-316.834 110.334 -459.501 194.001s-272.5 184 -389.5 301s-217.333 246.833 -301 389.5
s-148.334 295.834 -194.001 459.501s-68.5 334.167 -68.5 511.5zM1956 -614.999c151.333 0 296.666 19.5 436 58.5c139.333 39 269.833 94.167 391.5 165.5s232.334 156.833 332 256.5c99.667 99.667 185 210.167 256 331.5s126 251.833 165 391.5
s58.5 284.834 58.5 435.501c0 151.333 -19.5 296.666 -58.5 435.999s-94 269.833 -165 391.5s-156.333 232.334 -256 332.001s-210.334 185 -332 256c-121.667 71 -252.167 126 -391.5 165s-284.666 58.5 -436 58.5c-150.667 0 -295.834 -19.5 -435.501 -58.5
s-270.334 -94 -392.001 -165s-232.334 -156.333 -332.001 -256s-185 -210.334 -256 -332.001s-126 -252.167 -165 -391.5s-58.5 -284.666 -58.5 -435.999c0 -150.667 19.5 -295.834 58.5 -435.501s94 -270.167 165 -391.5s156.333 -231.833 256 -331.5
s210.334 -185.167 332.001 -256.5s252.334 -126.5 392.001 -165.5s284.834 -58.5 435.501 -58.5zM1956 2076c136 0 262.333 -23.3291 379 -69.9961s218 -114.834 304 -204.501s153.5 -199.834 202.5 -330.501s73.5 -279.667 73.5 -447s-24.5 -316.333 -73.5 -447
s-116.5 -240.834 -202.5 -330.501s-187.333 -157.834 -304 -204.501s-243 -70 -379 -70c-90.667 0 -177.5 10.5 -260.5 31.5s-160 52 -231 93s-135.333 91.5 -193 151.5s-106.834 129 -147.501 207s-72 164.5 -94 259.5s-33 198.167 -33 309.5c0 112 11 215.667 33 311
s53.333 181.833 94 259.5s89.834 146.5 147.501 206.5s122 110.333 193 151s148 71.5 231 92.5s169.833 31.5 260.5 31.5zM1956 355.005c78.667 0 150 14.5 214 43.5s118.667 71.833 164 128.5s80.333 126.5 105 209.5s37 178.833 37 287.5s-12.333 204.667 -37 288
s-59.667 153.166 -105 209.499s-100 99 -164 128s-135.333 43.5 -214 43.5s-150 -14.5 -214 -43.5s-118.667 -71.667 -164 -128s-80.333 -126.166 -105 -209.499s-37 -179.333 -37 -288s12.333 -204.5 37 -287.5s59.667 -152.833 105 -209.5s100 -99.5 164 -128.5
s135.333 -43.5 214 -43.5z" />
    <glyph glyph-name="uni24C5" unicode="P&#x20dd;" horiz-adv-x="3912" 
d="M32 1024c0 177.333 22.833 347.834 68.5 511.501s110.334 316.834 194.001 459.501s184 272.5 301 389.5s246.833 217.333 389.5 301s295.834 148.334 459.501 194c163.667 45.667 334.167 68.5 511.5 68.5s347.833 -22.833 511.5 -68.5s316.834 -110.334 459.5 -194.001
c142.667 -83.667 272.5 -184 389.5 -301s217.333 -246.833 301 -389.5s148.334 -295.834 194 -459.501c45.667 -163.667 68.5 -334.167 68.5 -511.5s-22.833 -347.833 -68.5 -511.5s-110.334 -316.834 -194 -459.501c-83.667 -142.667 -184 -272.5 -301 -389.5
s-246.833 -217.333 -389.5 -301s-295.834 -148.334 -459.5 -194.001c-163.667 -45.667 -334.167 -68.5 -511.5 -68.5s-347.833 22.833 -511.5 68.5s-316.834 110.334 -459.501 194.001s-272.5 184 -389.5 301s-217.333 246.833 -301 389.5
s-148.334 295.834 -194.001 459.501s-68.5 334.167 -68.5 511.5zM1956 -614.999c151.333 0 296.666 19.5 436 58.5c139.333 39 269.833 94.167 391.5 165.5s232.334 156.833 332 256.5c99.667 99.667 185 210.167 256 331.5s126 251.833 165 391.5
s58.5 284.834 58.5 435.501c0 151.333 -19.5 296.666 -58.5 435.999s-94 269.833 -165 391.5s-156.333 232.334 -256 332.001s-210.334 185 -332 256c-121.667 71 -252.167 126 -391.5 165s-284.666 58.5 -436 58.5c-150.667 0 -295.834 -19.5 -435.501 -58.5
s-270.334 -94 -392.001 -165s-232.334 -156.333 -332.001 -256s-185 -210.334 -256 -332.001s-126 -252.167 -165 -391.5s-58.5 -284.666 -58.5 -435.999c0 -150.667 19.5 -295.834 58.5 -435.501s94 -270.167 165 -391.5s156.333 -231.833 256 -331.5
s210.334 -185.167 332.001 -256.5s252.334 -126.5 392.001 -165.5s284.834 -58.5 435.501 -58.5zM2081 2048c116 0 219.5 -16.998 310.5 -50.998s167.833 -81.667 230.5 -143s110.5 -134.5 143.5 -219.5s49.5 -178.5 49.5 -280.5s-16.667 -195.333 -50 -280
s-81.833 -157.334 -145.5 -218.001s-141.667 -107.834 -234 -141.501s-197.5 -50.5 -315.5 -50.5h-364v-664h-433v2048h808zM1706 1011l294 -0.000976562c62 0 116.167 8.33301 162.5 25s84.666 40.167 115 70.5c30.333 30.333 53.166 66.5 68.5 108.5
c15.333 42 23 88.333 23 139c0 51.333 -7.66699 97.833 -23 139.5s-38.333 77.334 -69 107.001s-69.167 52.667 -115.5 69s-100.833 24.5 -163.5 24.5h-292v-683z" />
    <glyph glyph-name="uni24C6" unicode="Q&#x20dd;" horiz-adv-x="3912" 
d="M32 1024c0 177.333 22.833 347.834 68.5 511.501s110.334 316.834 194.001 459.501s184 272.5 301 389.5s246.833 217.333 389.5 301s295.834 148.334 459.501 194c163.667 45.667 334.167 68.5 511.5 68.5s347.833 -22.833 511.5 -68.5s316.834 -110.334 459.5 -194.001
c142.667 -83.667 272.5 -184 389.5 -301s217.333 -246.833 301 -389.5s148.334 -295.834 194 -459.501c45.667 -163.667 68.5 -334.167 68.5 -511.5s-22.833 -347.833 -68.5 -511.5s-110.334 -316.834 -194 -459.501c-83.667 -142.667 -184 -272.5 -301 -389.5
s-246.833 -217.333 -389.5 -301s-295.834 -148.334 -459.5 -194.001c-163.667 -45.667 -334.167 -68.5 -511.5 -68.5s-347.833 22.833 -511.5 68.5s-316.834 110.334 -459.501 194.001s-272.5 184 -389.5 301s-217.333 246.833 -301 389.5
s-148.334 295.834 -194.001 459.501s-68.5 334.167 -68.5 511.5zM317 1024c0 -150.667 19.499 -295.834 58.499 -435.501s94 -270.167 165 -391.5s156.333 -231.833 256 -331.5s210.334 -185.167 332.001 -256.5s252.334 -126.5 392.001 -165.5s284.834 -58.5 435.501 -58.5
c151.333 0 296.666 19.5 436 58.5c139.333 39 269.833 94.167 391.5 165.5s232.334 156.833 332 256.5c99.667 99.667 185 210.167 256 331.5s126 251.833 165 391.5s58.5 284.834 58.5 435.501c0 151.333 -19.5 296.666 -58.5 435.999s-94 269.833 -165 391.5
s-156.333 232.334 -256 332.001s-210.334 185 -332 256c-121.667 71 -252.167 126 -391.5 165s-284.666 58.5 -435.999 58.5c-150.667 0 -295.834 -19.5 -435.501 -58.5s-270.334 -94 -392.001 -165s-232.334 -156.333 -332.001 -256s-185 -210.334 -256 -332.001
s-126 -252.167 -165 -391.5s-58.5 -284.666 -58.5 -435.999zM1955 2076c136 0 262.333 -23.332 379 -69.999s218 -114.834 304 -204.501s153.5 -199.834 202.5 -330.501s73.5 -279.667 73.5 -447c0 -91.333 -7.5 -177.166 -22.5 -257.499s-36.5 -155 -64.5 -224
s-62 -132.167 -102 -189.5s-85 -108.333 -135 -153l293 -368h-404l-165 203c-110 -42 -229.667 -63 -359 -63c-90.667 0 -177.5 10.5 -260.5 31.5s-160 52 -231 93s-135.333 91.5 -193 151.5s-106.834 129 -147.501 207s-72 164.5 -94 259.5s-33 198.167 -33 309.5
c0 112 11 215.667 33 311s53.333 181.833 94 259.5s89.834 146.5 147.501 206.5s122 110.333 193 151s148 71.5 231 92.5s169.833 31.5 260.5 31.5zM1955 355.002c38 0 75.333 3.66602 112 10.999l-262 346h368l152 -195c48 56.667 85 127.334 111 212.001s39 183 39 295
c0 108.667 -12.333 204.667 -37 288s-59.667 153.166 -105 209.499s-100 99 -164 128s-135.333 43.5 -214 43.5s-150 -14.5 -214 -43.5s-118.667 -71.667 -164 -128s-80.333 -126.166 -105 -209.499s-37 -179.333 -37 -288s12.333 -204.5 37 -287.5
s59.667 -152.833 105 -209.5s100 -99.5 164 -128.5s135.333 -43.5 214 -43.5z" />
    <glyph glyph-name="uni24C7" unicode="R&#x20dd;" horiz-adv-x="3912" 
d="M32 1024c0 177.333 22.833 347.834 68.5 511.501s110.334 316.834 194.001 459.501s184 272.5 301 389.5s246.833 217.333 389.5 301s295.834 148.334 459.501 194c163.667 45.667 334.167 68.5 511.5 68.5s347.833 -22.833 511.5 -68.5s316.834 -110.334 459.5 -194.001
c142.667 -83.667 272.5 -184 389.5 -301s217.333 -246.833 301 -389.5s148.334 -295.834 194 -459.501c45.667 -163.667 68.5 -334.167 68.5 -511.5s-22.833 -347.833 -68.5 -511.5s-110.334 -316.834 -194 -459.501c-83.667 -142.667 -184 -272.5 -301 -389.5
s-246.833 -217.333 -389.5 -301s-295.834 -148.334 -459.5 -194.001c-163.667 -45.667 -334.167 -68.5 -511.5 -68.5s-347.833 22.833 -511.5 68.5s-316.834 110.334 -459.501 194.001s-272.5 184 -389.5 301s-217.333 246.833 -301 389.5
s-148.334 295.834 -194.001 459.501s-68.5 334.167 -68.5 511.5zM1956 -614.999c151.333 0 296.666 19.5 436 58.5c139.333 39 269.833 94.167 391.5 165.5s232.334 156.833 332 256.5c99.667 99.667 185 210.167 256 331.5s126 251.833 165 391.5
s58.5 284.834 58.5 435.501c0 151.333 -19.5 296.666 -58.5 435.999s-94 269.833 -165 391.5s-156.333 232.334 -256 332.001s-210.334 185 -332 256c-121.667 71 -252.167 126 -391.5 165s-284.666 58.5 -436 58.5c-150.667 0 -295.834 -19.5 -435.501 -58.5
s-270.334 -94 -392.001 -165s-232.334 -156.333 -332.001 -256s-185 -210.334 -256 -332.001s-126 -252.167 -165 -391.5s-58.5 -284.666 -58.5 -435.999c0 -150.667 19.5 -295.834 58.5 -435.501s94 -270.167 165 -391.5s156.333 -231.833 256 -331.5
s210.334 -185.167 332.001 -256.5s252.334 -126.5 392.001 -165.5s284.834 -58.5 435.501 -58.5zM1220 0.000976562v2048h808c116 0 219.5 -15.833 310.5 -47.5s167.833 -76.5 230.5 -134.5s110.5 -128.167 143.5 -210.5s49.5 -174.5 49.5 -276.5
c0 -140.667 -31 -260.5 -93 -359.5s-151.667 -173.5 -269 -223.5l435 -796h-478l-388 726h-316v-726h-433zM1653 1694v-620h294c124.667 0 217.334 25.333 278 76c60.667 50.667 91 127 91 229s-30.5 180 -91.5 234s-154.167 81 -279.5 81h-292z" />
    <glyph glyph-name="uni24C8" unicode="S&#x20dd;" horiz-adv-x="3912" 
d="M32 1024c0 177.333 22.833 347.834 68.5 511.501s110.334 316.834 194.001 459.501s184 272.5 301 389.5s246.833 217.333 389.5 301s295.834 148.334 459.501 194c163.667 45.667 334.167 68.5 511.5 68.5s347.833 -22.833 511.5 -68.5s316.834 -110.334 459.5 -194.001
c142.667 -83.667 272.5 -184 389.5 -301s217.333 -246.833 301 -389.5s148.334 -295.834 194 -459.501c45.667 -163.667 68.5 -334.167 68.5 -511.5s-22.833 -347.833 -68.5 -511.5s-110.334 -316.834 -194 -459.501c-83.667 -142.667 -184 -272.5 -301 -389.5
s-246.833 -217.333 -389.5 -301s-295.834 -148.334 -459.5 -194.001c-163.667 -45.667 -334.167 -68.5 -511.5 -68.5s-347.833 22.833 -511.5 68.5s-316.834 110.334 -459.501 194.001s-272.5 184 -389.5 301s-217.333 246.833 -301 389.5
s-148.334 295.834 -194.001 459.501s-68.5 334.167 -68.5 511.5zM1956 -614.999c151.333 0 296.666 19.5 436 58.5c139.333 39 269.833 94.167 391.5 165.5s232.334 156.833 332 256.5c99.667 99.667 185 210.167 256 331.5s126 251.833 165 391.5
s58.5 284.834 58.5 435.501c0 151.333 -19.5 296.666 -58.5 435.999s-94 269.833 -165 391.5s-156.333 232.334 -256 332.001s-210.334 185 -332 256c-121.667 71 -252.167 126 -391.5 165s-284.666 58.5 -436 58.5c-150.667 0 -295.834 -19.5 -435.501 -58.5
s-270.334 -94 -392.001 -165s-232.334 -156.333 -332.001 -256s-185 -210.334 -256 -332.001s-126 -252.167 -165 -391.5s-58.5 -284.666 -58.5 -435.999c0 -150.667 19.5 -295.834 58.5 -435.501s94 -270.167 165 -391.5s156.333 -231.833 256 -331.5
s210.334 -185.167 332.001 -256.5s252.334 -126.5 392.001 -165.5s284.834 -58.5 435.501 -58.5zM1565 643.001c3.33301 -51.333 15.667 -96.3301 37 -134.997s49.5 -70.834 84.5 -96.501s76.333 -45 124 -58s99.5 -19.5 155.5 -19.5c55.333 0 105.166 6.16699 149.499 18.5
s82.333 29.5 114 51.5s56.167 48.5 73.5 79.5s26 65.167 26 102.5c0 34.667 -7.66699 65 -23 91s-37.833 49 -67.5 69s-66 37.667 -109 53s-92.5 29.666 -148.5 42.999l-223 56c-86.667 20.667 -164.5 47.167 -233.5 79.5s-127.5 71.333 -175.5 117
s-84.833 98.5 -110.5 158.5s-38.5 127.667 -38.5 203c-0.666992 93.333 18.333 178 57 254s92.5 141.167 161.5 195.5s151.167 96.333 246.5 126s199 44.5 311 44.5c114 0 217.5 -15 310.5 -45s172.667 -72.167 239 -126.5s118 -119.333 155 -195
s56.167 -159.167 57.5 -250.5h-415c-8 80.667 -42.333 143.334 -103 188.001s-143 67 -247 67c-52.667 0 -99.5 -5.66699 -140.5 -17s-75.5 -27.333 -103.5 -48s-49.167 -44.834 -63.5 -72.501s-21.5 -58.167 -21.5 -91.5c-0.666992 -36.667 7.5 -68.667 24.5 -96
s40.167 -51 69.5 -71s63.833 -37 103.5 -51s81.834 -26 126.501 -36l184 -44c89.333 -20 171.333 -46.667 246 -80s139.334 -74.5 194 -123.5c54.667 -49 97.334 -106.333 128 -172c30.667 -65.667 46 -141.167 46 -226.5c0 -94 -18 -178.833 -54 -254.5
s-88 -140.167 -156 -193.5s-151.167 -94.333 -249.5 -123s-210.166 -43 -335.499 -43c-124 0 -236.333 14.167 -337 42.5s-186.667 70.666 -258 126.999s-126.833 126.5 -166.5 210.5s-60.834 181.333 -63.501 292h419z" />
    <glyph glyph-name="uni24C9" unicode="T&#x20dd;" horiz-adv-x="3912" 
d="M32 1024c0 177.333 22.833 347.834 68.5 511.501s110.334 316.834 194.001 459.501s184 272.5 301 389.5s246.833 217.333 389.5 301s295.834 148.334 459.501 194c163.667 45.667 334.167 68.5 511.5 68.5s347.833 -22.833 511.5 -68.5s316.834 -110.334 459.5 -194.001
c142.667 -83.667 272.5 -184 389.5 -301s217.333 -246.833 301 -389.5s148.334 -295.834 194 -459.501c45.667 -163.667 68.5 -334.167 68.5 -511.5s-22.833 -347.833 -68.5 -511.5s-110.334 -316.834 -194 -459.501c-83.667 -142.667 -184 -272.5 -301 -389.5
s-246.833 -217.333 -389.5 -301s-295.834 -148.334 -459.5 -194.001c-163.667 -45.667 -334.167 -68.5 -511.5 -68.5s-347.833 22.833 -511.5 68.5s-316.834 110.334 -459.501 194.001s-272.5 184 -389.5 301s-217.333 246.833 -301 389.5
s-148.334 295.834 -194.001 459.501s-68.5 334.167 -68.5 511.5zM1956 -614.999c151.333 0 296.666 19.5 436 58.5c139.333 39 269.833 94.167 391.5 165.5s232.334 156.833 332 256.5c99.667 99.667 185 210.167 256 331.5s126 251.833 165 391.5
s58.5 284.834 58.5 435.501c0 151.333 -19.5 296.666 -58.5 435.999s-94 269.833 -165 391.5s-156.333 232.334 -256 332.001s-210.334 185 -332 256c-121.667 71 -252.167 126 -391.5 165s-284.666 58.5 -436 58.5c-150.667 0 -295.834 -19.5 -435.501 -58.5
s-270.334 -94 -392.001 -165s-232.334 -156.333 -332.001 -256s-185 -210.334 -256 -332.001s-126 -252.167 -165 -391.5s-58.5 -284.666 -58.5 -435.999c0 -150.667 19.5 -295.834 58.5 -435.501s94 -270.167 165 -391.5s156.333 -231.833 256 -331.5
s210.334 -185.167 332.001 -256.5s252.334 -126.5 392.001 -165.5s284.834 -58.5 435.501 -58.5zM1115 1691v357h1682v-357h-627v-1691h-428v1691h-627z" />
    <glyph glyph-name="uni24CA" unicode="U&#x20dd;" horiz-adv-x="3912" 
d="M32 1024c0 177.333 22.833 347.834 68.5 511.501s110.334 316.834 194.001 459.501s184 272.5 301 389.5s246.833 217.333 389.5 301s295.834 148.334 459.501 194c163.667 45.667 334.167 68.5 511.5 68.5s347.833 -22.833 511.5 -68.5s316.834 -110.334 459.5 -194.001
c142.667 -83.667 272.5 -184 389.5 -301s217.333 -246.833 301 -389.5s148.334 -295.834 194 -459.501c45.667 -163.667 68.5 -334.167 68.5 -511.5s-22.833 -347.833 -68.5 -511.5s-110.334 -316.834 -194 -459.501c-83.667 -142.667 -184 -272.5 -301 -389.5
s-246.833 -217.333 -389.5 -301s-295.834 -148.334 -459.5 -194.001c-163.667 -45.667 -334.167 -68.5 -511.5 -68.5s-347.833 22.833 -511.5 68.5s-316.834 110.334 -459.501 194.001s-272.5 184 -389.5 301s-217.333 246.833 -301 389.5
s-148.334 295.834 -194.001 459.501s-68.5 334.167 -68.5 511.5zM1956 -614.999c151.333 0 296.666 19.5 436 58.5c139.333 39 269.833 94.167 391.5 165.5s232.334 156.833 332 256.5c99.667 99.667 185 210.167 256 331.5s126 251.833 165 391.5
s58.5 284.834 58.5 435.501c0 151.333 -19.5 296.666 -58.5 435.999s-94 269.833 -165 391.5s-156.333 232.334 -256 332.001s-210.334 185 -332 256c-121.667 71 -252.167 126 -391.5 165s-284.666 58.5 -436 58.5c-150.667 0 -295.834 -19.5 -435.501 -58.5
s-270.334 -94 -392.001 -165s-232.334 -156.333 -332.001 -256s-185 -210.334 -256 -332.001s-126 -252.167 -165 -391.5s-58.5 -284.666 -58.5 -435.999c0 -150.667 19.5 -295.834 58.5 -435.501s94 -270.167 165 -391.5s156.333 -231.833 256 -331.5
s210.334 -185.167 332.001 -256.5s252.334 -126.5 392.001 -165.5s284.834 -58.5 435.501 -58.5zM1540 2048l0.000976562 -1293c0 -58.667 9.83301 -112.667 29.5 -162s47.667 -91.833 84 -127.5s80.166 -63.5 131.499 -83.5s108.333 -30 171 -30
c63.333 0 120.5 10 171.5 30s94.667 47.833 131 83.5s64.333 78.167 84 127.5s29.5 103.333 29.5 162v1293h433v-1330c0 -112 -20.333 -213.833 -61 -305.5s-98.167 -170.334 -172.5 -236.001s-163.666 -116.334 -268 -152.001
c-104.333 -35.667 -220.166 -53.5 -347.5 -53.5c-128 0 -244.167 17.833 -348.5 53.5s-193.5 86.334 -267.5 152.001s-131.333 144.334 -172 236.001s-61 193.5 -61 305.5v1330h433z" />
    <glyph glyph-name="uni24CB" unicode="V&#x20dd;" horiz-adv-x="3912" 
d="M32 1024c0 177.333 22.833 347.834 68.5 511.501s110.334 316.834 194.001 459.501s184 272.5 301 389.5s246.833 217.333 389.5 301s295.834 148.334 459.501 194c163.667 45.667 334.167 68.5 511.5 68.5s347.833 -22.833 511.5 -68.5s316.834 -110.334 459.5 -194.001
c142.667 -83.667 272.5 -184 389.5 -301s217.333 -246.833 301 -389.5s148.334 -295.834 194 -459.501c45.667 -163.667 68.5 -334.167 68.5 -511.5s-22.833 -347.833 -68.5 -511.5s-110.334 -316.834 -194 -459.501c-83.667 -142.667 -184 -272.5 -301 -389.5
s-246.833 -217.333 -389.5 -301s-295.834 -148.334 -459.5 -194.001c-163.667 -45.667 -334.167 -68.5 -511.5 -68.5s-347.833 22.833 -511.5 68.5s-316.834 110.334 -459.501 194.001s-272.5 184 -389.5 301s-217.333 246.833 -301 389.5
s-148.334 295.834 -194.001 459.501s-68.5 334.167 -68.5 511.5zM1956 -614.999c151.333 0 296.666 19.5 436 58.5c139.333 39 269.833 94.167 391.5 165.5s232.334 156.833 332 256.5c99.667 99.667 185 210.167 256 331.5s126 251.833 165 391.5
s58.5 284.834 58.5 435.501c0 151.333 -19.5 296.666 -58.5 435.999s-94 269.833 -165 391.5s-156.333 232.334 -256 332.001s-210.334 185 -332 256c-121.667 71 -252.167 126 -391.5 165s-284.666 58.5 -436 58.5c-150.667 0 -295.834 -19.5 -435.501 -58.5
s-270.334 -94 -392.001 -165s-232.334 -156.333 -332.001 -256s-185 -210.334 -256 -332.001s-126 -252.167 -165 -391.5s-58.5 -284.666 -58.5 -435.999c0 -150.667 19.5 -295.834 58.5 -435.501s94 -270.167 165 -391.5s156.333 -231.833 256 -331.5
s210.334 -185.167 332.001 -256.5s252.334 -126.5 392.001 -165.5s284.834 -58.5 435.501 -58.5zM970 2048h481l495 -1556h19l496 1556h480l-706 -2048h-558z" />
    <glyph glyph-name="uni24CC" unicode="W&#x20dd;" horiz-adv-x="3912" 
d="M32 1024c0 177.333 22.833 347.834 68.5 511.501s110.334 316.834 194.001 459.501s184 272.5 301 389.5s246.833 217.333 389.5 301s295.834 148.334 459.501 194c163.667 45.667 334.167 68.5 511.5 68.5s347.833 -22.833 511.5 -68.5s316.834 -110.334 459.5 -194.001
c142.667 -83.667 272.5 -184 389.5 -301s217.333 -246.833 301 -389.5s148.334 -295.834 194 -459.501c45.667 -163.667 68.5 -334.167 68.5 -511.5s-22.833 -347.833 -68.5 -511.5s-110.334 -316.834 -194 -459.501c-83.667 -142.667 -184 -272.5 -301 -389.5
s-246.833 -217.333 -389.5 -301s-295.834 -148.334 -459.5 -194.001c-163.667 -45.667 -334.167 -68.5 -511.5 -68.5s-347.833 22.833 -511.5 68.5s-316.834 110.334 -459.501 194.001s-272.5 184 -389.5 301s-217.333 246.833 -301 389.5
s-148.334 295.834 -194.001 459.501s-68.5 334.167 -68.5 511.5zM317 1024c0 -150.667 19.4971 -295.833 58.4971 -435.5s94 -270.167 165 -391.5s156.333 -231.833 256 -331.5s210.334 -185.167 332.001 -256.5s252.334 -126.5 392.001 -165.5s284.834 -58.5 435.501 -58.5
c151.333 0 296.666 19.5 436 58.5c139.333 39 269.833 94.167 391.5 165.5s232.334 156.833 332 256.5c99.667 99.667 185 210.167 256 331.5s126 251.833 165 391.5s58.5 284.834 58.5 435.501c0 167.333 -23.5 326.666 -70.5 477.999s-113.167 292 -198.5 422l-550 -1924
h-422l-390 1339h-16l-389 -1339h-422l-551 1925c-85.333 -130 -151.5 -270.833 -198.5 -422.5s-70.5 -311.167 -70.5 -478.5zM1024 2048l338.999 -1423h17l374 1423h405l373 -1426h18l339 1426h347c-74.667 94 -159.167 178.833 -253.5 254.5s-196 140.167 -305 193.5
s-224.167 94.5 -345.5 123.5s-246.666 43.5 -376 43.5c-129.333 0 -254.666 -14.5 -375.999 -43.5s-236.5 -70.167 -345.5 -123.5s-210.5 -117.833 -304.5 -193.5s-178.667 -160.5 -254 -254.5h348z" />
    <glyph glyph-name="uni24CD" unicode="X&#x20dd;" horiz-adv-x="3912" 
d="M32 1024c0 177.333 22.833 347.834 68.5 511.501s110.334 316.834 194.001 459.501s184 272.5 301 389.5s246.833 217.333 389.5 301s295.834 148.334 459.501 194c163.667 45.667 334.167 68.5 511.5 68.5s347.833 -22.833 511.5 -68.5s316.834 -110.334 459.5 -194.001
c142.667 -83.667 272.5 -184 389.5 -301s217.333 -246.833 301 -389.5s148.334 -295.834 194 -459.501c45.667 -163.667 68.5 -334.167 68.5 -511.5s-22.833 -347.833 -68.5 -511.5s-110.334 -316.834 -194 -459.501c-83.667 -142.667 -184 -272.5 -301 -389.5
s-246.833 -217.333 -389.5 -301s-295.834 -148.334 -459.5 -194.001c-163.667 -45.667 -334.167 -68.5 -511.5 -68.5s-347.833 22.833 -511.5 68.5s-316.834 110.334 -459.501 194.001s-272.5 184 -389.5 301s-217.333 246.833 -301 389.5
s-148.334 295.834 -194.001 459.501s-68.5 334.167 -68.5 511.5zM1956 -614.999c151.333 0 296.666 19.5 436 58.5c139.333 39 269.833 94.167 391.5 165.5s232.334 156.833 332 256.5c99.667 99.667 185 210.167 256 331.5s126 251.833 165 391.5
s58.5 284.834 58.5 435.501c0 151.333 -19.5 296.666 -58.5 435.999s-94 269.833 -165 391.5s-156.333 232.334 -256 332.001s-210.334 185 -332 256c-121.667 71 -252.167 126 -391.5 165s-284.666 58.5 -436 58.5c-150.667 0 -295.834 -19.5 -435.501 -58.5
s-270.334 -94 -392.001 -165s-232.334 -156.333 -332.001 -256s-185 -210.334 -256 -332.001s-126 -252.167 -165 -391.5s-58.5 -284.666 -58.5 -435.999c0 -150.667 19.5 -295.834 58.5 -435.501s94 -270.167 165 -391.5s156.333 -231.833 256 -331.5
s210.334 -185.167 332.001 -256.5s252.334 -126.5 392.001 -165.5s284.834 -58.5 435.501 -58.5zM1673 1024l-629 1024h491l413 -698h16l415 698h489l-625 -1024l639 -1024h-498l-420 699h-16l-420 -699h-496z" />
    <glyph glyph-name="uni24CE" unicode="Y&#x20dd;" horiz-adv-x="3912" 
d="M32 1024c0 177.333 22.833 347.834 68.5 511.501s110.334 316.834 194.001 459.501s184 272.5 301 389.5s246.833 217.333 389.5 301s295.834 148.334 459.501 194c163.667 45.667 334.167 68.5 511.5 68.5s347.833 -22.833 511.5 -68.5s316.834 -110.334 459.5 -194.001
c142.667 -83.667 272.5 -184 389.5 -301s217.333 -246.833 301 -389.5s148.334 -295.834 194 -459.501c45.667 -163.667 68.5 -334.167 68.5 -511.5s-22.833 -347.833 -68.5 -511.5s-110.334 -316.834 -194 -459.501c-83.667 -142.667 -184 -272.5 -301 -389.5
s-246.833 -217.333 -389.5 -301s-295.834 -148.334 -459.5 -194.001c-163.667 -45.667 -334.167 -68.5 -511.5 -68.5s-347.833 22.833 -511.5 68.5s-316.834 110.334 -459.501 194.001s-272.5 184 -389.5 301s-217.333 246.833 -301 389.5
s-148.334 295.834 -194.001 459.501s-68.5 334.167 -68.5 511.5zM1956 -614.999c151.333 0 296.666 19.5 436 58.5c139.333 39 269.833 94.167 391.5 165.5s232.334 156.833 332 256.5c99.667 99.667 185 210.167 256 331.5s126 251.833 165 391.5
s58.5 284.834 58.5 435.501c0 151.333 -19.5 296.666 -58.5 435.999s-94 269.833 -165 391.5s-156.333 232.334 -256 332.001s-210.334 185 -332 256c-121.667 71 -252.167 126 -391.5 165s-284.666 58.5 -436 58.5c-150.667 0 -295.834 -19.5 -435.501 -58.5
s-270.334 -94 -392.001 -165s-232.334 -156.333 -332.001 -256s-185 -210.334 -256 -332.001s-126 -252.167 -165 -391.5s-58.5 -284.666 -58.5 -435.999c0 -150.667 19.5 -295.834 58.5 -435.501s94 -270.167 165 -391.5s156.333 -231.833 256 -331.5
s210.334 -185.167 332.001 -256.5s252.334 -126.5 392.001 -165.5s284.834 -58.5 435.501 -58.5zM1479 2048l467 -882h20l467 882h485l-747 -1324v-724h-430v724l-747 1324h485z" />
    <glyph glyph-name="uni24CF" unicode="Z&#x20dd;" horiz-adv-x="3912" 
d="M32 1024c0 177.333 22.833 347.834 68.5 511.501s110.334 316.834 194.001 459.501s184 272.5 301 389.5s246.833 217.333 389.5 301s295.834 148.334 459.501 194c163.667 45.667 334.167 68.5 511.5 68.5s347.833 -22.833 511.5 -68.5s316.834 -110.334 459.5 -194.001
c142.667 -83.667 272.5 -184 389.5 -301s217.333 -246.833 301 -389.5s148.334 -295.834 194 -459.501c45.667 -163.667 68.5 -334.167 68.5 -511.5s-22.833 -347.833 -68.5 -511.5s-110.334 -316.834 -194 -459.501c-83.667 -142.667 -184 -272.5 -301 -389.5
s-246.833 -217.333 -389.5 -301s-295.834 -148.334 -459.5 -194.001c-163.667 -45.667 -334.167 -68.5 -511.5 -68.5s-347.833 22.833 -511.5 68.5s-316.834 110.334 -459.501 194.001s-272.5 184 -389.5 301s-217.333 246.833 -301 389.5
s-148.334 295.834 -194.001 459.501s-68.5 334.167 -68.5 511.5zM1956 -614.999c151.333 0 296.666 19.5 436 58.5c139.333 39 269.833 94.167 391.5 165.5s232.334 156.833 332 256.5c99.667 99.667 185 210.167 256 331.5s126 251.833 165 391.5
s58.5 284.834 58.5 435.501c0 151.333 -19.5 296.666 -58.5 435.999s-94 269.833 -165 391.5s-156.333 232.334 -256 332.001s-210.334 185 -332 256c-121.667 71 -252.167 126 -391.5 165s-284.666 58.5 -436 58.5c-150.667 0 -295.834 -19.5 -435.501 -58.5
s-270.334 -94 -392.001 -165s-232.334 -156.333 -332.001 -256s-185 -210.334 -256 -332.001s-126 -252.167 -165 -391.5s-58.5 -284.666 -58.5 -435.999c0 -150.667 19.5 -295.834 58.5 -435.501s94 -270.167 165 -391.5s156.333 -231.833 256 -331.5
s210.334 -185.167 332.001 -256.5s252.334 -126.5 392.001 -165.5s284.834 -58.5 435.501 -58.5zM2739 2048v-257l-1023 -1434h1025v-357h-1568v257l1022 1434h-1024v357h1568z" />
    <glyph glyph-name="uni24EA" unicode="&#x30;&#x20dd;" horiz-adv-x="3912" 
d="M32 1024c0 177.333 22.833 347.834 68.5 511.501s110.334 316.834 194.001 459.501s184 272.5 301 389.5s246.833 217.333 389.5 301s295.834 148.334 459.501 194c163.667 45.667 334.167 68.5 511.5 68.5s347.833 -22.833 511.5 -68.5s316.834 -110.334 459.5 -194.001
c142.667 -83.667 272.5 -184 389.5 -301s217.333 -246.833 301 -389.5s148.334 -295.834 194 -459.501c45.667 -163.667 68.5 -334.167 68.5 -511.5s-22.833 -347.833 -68.5 -511.5s-110.334 -316.834 -194 -459.501c-83.667 -142.667 -184 -272.5 -301 -389.5
s-246.833 -217.333 -389.5 -301s-295.834 -148.334 -459.5 -194.001c-163.667 -45.667 -334.167 -68.5 -511.5 -68.5s-347.833 22.833 -511.5 68.5s-316.834 110.334 -459.501 194.001s-272.5 184 -389.5 301s-217.333 246.833 -301 389.5
s-148.334 295.834 -194.001 459.501s-68.5 334.167 -68.5 511.5zM1956 -614.999c151.333 0 296.666 19.5 436 58.5c139.333 39 269.833 94.167 391.5 165.5s232.334 156.833 332 256.5c99.667 99.667 185 210.167 256 331.5s126 251.833 165 391.5
s58.5 284.834 58.5 435.501c0 151.333 -19.5 296.666 -58.5 435.999s-94 269.833 -165 391.5s-156.333 232.334 -256 332.001s-210.334 185 -332 256c-121.667 71 -252.167 126 -391.5 165s-284.666 58.5 -436 58.5c-150.667 0 -295.834 -19.5 -435.501 -58.5
s-270.334 -94 -392.001 -165s-232.334 -156.333 -332.001 -256s-185 -210.334 -256 -332.001s-126 -252.167 -165 -391.5s-58.5 -284.666 -58.5 -435.999c0 -150.667 19.5 -295.834 58.5 -435.501s94 -270.167 165 -391.5s156.333 -231.833 256 -331.5
s210.334 -185.167 332.001 -256.5s252.334 -126.5 392.001 -165.5s284.834 -58.5 435.501 -58.5zM1129 1022c0 168 19.002 317.332 57.002 447.999s92.667 240.834 164 330.501s158 158 260 205s217.333 70.5 346 70.5c128 0 243.167 -23.5 345.5 -70.5
s189.166 -115.5 260.499 -205.5s126 -200.333 164 -331s57 -279.667 57 -447c0 -168.667 -19 -319.167 -57 -451.5s-92.5 -244 -163.5 -335s-157.667 -160.5 -260 -208.5s-217.833 -72 -346.5 -72s-244.334 24.167 -347.001 72.5s-189.667 118 -261 209
s-125.833 202.667 -163.5 335s-56.167 282.5 -55.5 450.5zM1956 314c58.667 0 111.664 14.833 158.998 44.5c47.333 29.667 87.833 74 121.5 133s59.5 132.667 77.5 221s27 191.5 27 309.5c0 116 -9.16699 217.667 -27.5 305s-44.166 160.166 -77.5 218.499
c-33.333 58.333 -73.833 102.166 -121.5 131.499s-100.5 44 -158.5 44c-58.667 0 -111.667 -14.667 -159 -44s-87.833 -73.166 -121.5 -131.499s-59.667 -131.166 -78 -218.499s-27.5 -189 -27.5 -305c0 -118 9 -221.167 27 -309.5s43.833 -162 77.5 -221
s74.334 -103.333 122.001 -133s100.834 -44.5 159.501 -44.5z" />
    <glyph glyph-name="uni2A38" unicode="&#xf7;&#x20dd;" horiz-adv-x="3912" 
d="M32 1024c0 177.333 22.833 347.834 68.5 511.501s110.334 316.834 194.001 459.501s184 272.5 301 389.5s246.833 217.333 389.5 301s295.834 148.334 459.501 194c163.667 45.667 334.167 68.5 511.5 68.5s347.833 -22.833 511.5 -68.5s316.834 -110.334 459.5 -194.001
c142.667 -83.667 272.5 -184 389.5 -301s217.333 -246.833 301 -389.5s148.334 -295.834 194 -459.501c45.667 -163.667 68.5 -334.167 68.5 -511.5s-22.833 -347.833 -68.5 -511.5s-110.334 -316.834 -194 -459.501c-83.667 -142.667 -184 -272.5 -301 -389.5
s-246.833 -217.333 -389.5 -301s-295.834 -148.334 -459.5 -194.001c-163.667 -45.667 -334.167 -68.5 -511.5 -68.5s-347.833 22.833 -511.5 68.5s-316.834 110.334 -459.501 194.001s-272.5 184 -389.5 301s-217.333 246.833 -301 389.5
s-148.334 295.834 -194.001 459.501s-68.5 334.167 -68.5 511.5zM1956 -614.999c151.333 0 296.666 19.5 436 58.5c139.333 39 269.833 94.167 391.5 165.5s232.334 156.833 332 256.5c99.667 99.667 185 210.167 256 331.5s126 251.833 165 391.5
s58.5 284.834 58.5 435.501c0 151.333 -19.5 296.666 -58.5 435.999s-94 269.833 -165 391.5s-156.333 232.334 -256 332.001s-210.334 185 -332 256c-121.667 71 -252.167 126 -391.5 165s-284.666 58.5 -436 58.5c-150.667 0 -295.834 -19.5 -435.501 -58.5
s-270.334 -94 -392.001 -165s-232.334 -156.333 -332.001 -256s-185 -210.334 -256 -332.001s-126 -252.167 -165 -391.5s-58.5 -284.666 -58.5 -435.999c0 -150.667 19.5 -295.834 58.5 -435.501s94 -270.167 165 -391.5s156.333 -231.833 256 -331.5
s210.334 -185.167 332.001 -256.5s252.334 -126.5 392.001 -165.5s284.834 -58.5 435.501 -58.5zM2656 1194v-339h-1400v339h1400zM1956 708.001c32.667 0 63.5 -6.33301 92.5 -19s54.167 -29.667 75.5 -51s38.333 -46.5 51 -75.5s19 -59.833 19 -92.5
c0 -34 -6.33301 -65.667 -19 -95s-29.667 -55 -51 -77s-46.5 -39.333 -75.5 -52s-59.833 -19 -92.5 -19c-34 0 -65.667 6.33301 -95 19s-55 30 -77 52s-39.333 47.667 -52 77s-19 61 -19 95c0 32.667 6.33301 63.5 19 92.5s30 54.167 52 75.5s47.667 38.333 77 51
s61 19 95 19zM1956 1821c33.333 0 64.333 -6.16699 93 -18.5s53.834 -29.333 75.5 -51c21.667 -21.667 38.667 -46.834 51 -75.501s18.5 -59.667 18.5 -93s-6.16699 -64.833 -18.5 -94.5s-29.333 -55.5 -51 -77.5s-46.834 -39.333 -75.5 -52
c-28.667 -12.667 -59.667 -19 -93 -19s-64.833 6.33301 -94.5 19s-55.5 30 -77.5 52s-39.333 47.833 -52 77.5s-19 61.167 -19 94.5s6.33301 64.333 19 93s30 53.834 52 75.501s47.833 38.667 77.5 51s61.167 18.5 94.5 18.5z" />
    <glyph glyph-name="uniE12B" unicode="&#x20dd;&#xe06b;" horiz-adv-x="3912" 
d="M32 1024c0 177.333 22.833 347.834 68.5 511.501s110.334 316.834 194.001 459.501s184 272.5 301 389.5s246.833 217.333 389.5 301s295.834 148.334 459.501 194c163.667 45.667 334.167 68.5 511.5 68.5s347.833 -22.833 511.5 -68.5s316.834 -110.334 459.5 -194.001
c142.667 -83.667 272.5 -184 389.5 -301s217.333 -246.833 301 -389.5s148.334 -295.834 194 -459.501c45.667 -163.667 68.5 -334.167 68.5 -511.5s-22.833 -347.833 -68.5 -511.5s-110.334 -316.834 -194 -459.501c-83.667 -142.667 -184 -272.5 -301 -389.5
s-246.833 -217.333 -389.5 -301s-295.834 -148.334 -459.5 -194.001c-163.667 -45.667 -334.167 -68.5 -511.5 -68.5s-347.833 22.833 -511.5 68.5s-316.834 110.334 -459.501 194.001s-272.5 184 -389.5 301s-217.333 246.833 -301 389.5
s-148.334 295.834 -194.001 459.501s-68.5 334.167 -68.5 511.5zM317 1024c0 -150.667 19.499 -295.834 58.499 -435.501s94 -270.167 165 -391.5s156.333 -231.833 256 -331.5s210.334 -185.167 332.001 -256.5s252.334 -126.5 392.001 -165.5s284.834 -58.5 435.501 -58.5
c151.333 0 296.666 19.5 436 58.5c139.333 39 269.833 94.167 391.5 165.5s232.334 156.833 332 256.5c99.667 99.667 185 210.167 256 331.5s126 251.833 165 391.5s58.5 284.834 58.5 435.501c0 151.333 -19.5 296.666 -58.5 435.999s-94 269.833 -165 391.5
s-156.333 232.334 -256 332.001s-210.334 185 -332 256c-121.667 71 -252.167 126 -391.5 165s-284.666 58.5 -435.999 58.5c-150.667 0 -295.834 -19.5 -435.501 -58.5s-270.334 -94 -392.001 -165s-232.334 -156.333 -332.001 -256s-185 -210.334 -256 -332.001
s-126 -252.167 -165 -391.5s-58.5 -284.666 -58.5 -435.999zM1129 1024c0 168 19.001 317.332 57.001 447.999s92.667 240.834 164 330.501s158 158 260 205s217.333 70.5 346 70.5c128 0 243.167 -23.5 345.5 -70.5s189.166 -115.5 260.5 -205.5
c71.333 -90 126 -200.333 164 -331s57 -279.667 57 -447c0 -168.667 -19 -319.167 -57 -451.5s-92.5 -244 -163.5 -335s-157.667 -160.5 -260 -208.5s-217.833 -72 -346.5 -72s-244.334 24.167 -347.001 72.5s-189.667 118 -261 209s-125.833 202.667 -163.5 335
s-56.167 282.5 -55.5 450.5zM1956 316c58.667 0 111.666 14.834 159 44.501c47.333 29.667 87.833 74 121.5 133s59.5 132.667 77.5 221s27 191.5 27 309.5c0 90.667 -5.5 172.167 -16.5 244.5s-26.833 136.166 -47.5 191.499l-537 -1055
c60.667 -59.333 132.667 -89 216 -89zM1630 592.001l532.002 1050c-56.667 54 -125.334 81 -206.001 81c-58.667 0 -111.667 -14.667 -159 -44s-87.833 -73.166 -121.5 -131.499s-59.667 -131.166 -78 -218.499s-27.5 -189 -27.5 -305
c0 -89.333 5.16699 -169.833 15.5 -241.5s25.166 -135.167 44.499 -190.5z" />
    <glyph glyph-name="uniE12C" unicode="&#x20dd;&#xe06c;" horiz-adv-x="3912" 
d="M32 1024c0 177.333 22.833 347.834 68.5 511.501s110.334 316.834 194.001 459.501s184 272.5 301 389.5s246.833 217.333 389.5 301s295.834 148.334 459.501 194c163.667 45.667 334.167 68.5 511.5 68.5s347.833 -22.833 511.5 -68.5s316.834 -110.334 459.5 -194.001
c142.667 -83.667 272.5 -184 389.5 -301s217.333 -246.833 301 -389.5s148.334 -295.834 194 -459.501c45.667 -163.667 68.5 -334.167 68.5 -511.5s-22.833 -347.833 -68.5 -511.5s-110.334 -316.834 -194 -459.501c-83.667 -142.667 -184 -272.5 -301 -389.5
s-246.833 -217.333 -389.5 -301s-295.834 -148.334 -459.5 -194.001c-163.667 -45.667 -334.167 -68.5 -511.5 -68.5s-347.833 22.833 -511.5 68.5s-316.834 110.334 -459.501 194.001s-272.5 184 -389.5 301s-217.333 246.833 -301 389.5
s-148.334 295.834 -194.001 459.501s-68.5 334.167 -68.5 511.5zM1956 -614.999c151.333 0 296.666 19.5 436 58.5c139.333 39 269.833 94.167 391.5 165.5s232.334 156.833 332 256.5c99.667 99.667 185 210.167 256 331.5s126 251.833 165 391.5
s58.5 284.834 58.5 435.501c0 151.333 -19.5 296.666 -58.5 435.999s-94 269.833 -165 391.5s-156.333 232.334 -256 332.001s-210.334 185 -332 256c-121.667 71 -252.167 126 -391.5 165s-284.666 58.5 -436 58.5c-150.667 0 -295.834 -19.5 -435.501 -58.5
s-270.334 -94 -392.001 -165s-232.334 -156.333 -332.001 -256s-185 -210.334 -256 -332.001s-126 -252.167 -165 -391.5s-58.5 -284.666 -58.5 -435.999c0 -150.667 19.5 -295.834 58.5 -435.501s94 -270.167 165 -391.5s156.333 -231.833 256 -331.5
s210.334 -185.167 332.001 -256.5s252.334 -126.5 392.001 -165.5s284.834 -58.5 435.501 -58.5zM1388 1710c66 0 125.999 11.667 179.999 35s100.333 52.333 139 87s68.834 71.5 90.501 110.5s33.167 74.167 34.5 105.5h424v-2048h-432v1518h-19
c-10.667 -16.667 -27.834 -34 -51.501 -52s-53.167 -34.5 -88.5 -49.5s-76.166 -27.167 -122.499 -36.5s-97.833 -14 -154.5 -14v344z" />
    <glyph glyph-name="uniE12D" unicode="&#x20dd;&#xe06d;" horiz-adv-x="3912" 
d="M32 1024c0 177.333 22.833 347.834 68.5 511.501s110.334 316.834 194.001 459.501s184 272.5 301 389.5s246.833 217.333 389.5 301s295.834 148.334 459.501 194c163.667 45.667 334.167 68.5 511.5 68.5s347.833 -22.833 511.5 -68.5s316.834 -110.334 459.5 -194.001
c142.667 -83.667 272.5 -184 389.5 -301s217.333 -246.833 301 -389.5s148.334 -295.834 194 -459.501c45.667 -163.667 68.5 -334.167 68.5 -511.5s-22.833 -347.833 -68.5 -511.5s-110.334 -316.834 -194 -459.501c-83.667 -142.667 -184 -272.5 -301 -389.5
s-246.833 -217.333 -389.5 -301s-295.834 -148.334 -459.5 -194.001c-163.667 -45.667 -334.167 -68.5 -511.5 -68.5s-347.833 22.833 -511.5 68.5s-316.834 110.334 -459.501 194.001s-272.5 184 -389.5 301s-217.333 246.833 -301 389.5
s-148.334 295.834 -194.001 459.501s-68.5 334.167 -68.5 511.5zM1956 -614.999c151.333 0 296.666 19.5 436 58.5c139.333 39 269.833 94.167 391.5 165.5s232.334 156.833 332 256.5c99.667 99.667 185 210.167 256 331.5s126 251.833 165 391.5
s58.5 284.834 58.5 435.501c0 151.333 -19.5 296.666 -58.5 435.999s-94 269.833 -165 391.5s-156.333 232.334 -256 332.001s-210.334 185 -332 256c-121.667 71 -252.167 126 -391.5 165s-284.666 58.5 -436 58.5c-150.667 0 -295.834 -19.5 -435.501 -58.5
s-270.334 -94 -392.001 -165s-232.334 -156.333 -332.001 -256s-185 -210.334 -256 -332.001s-126 -252.167 -165 -391.5s-58.5 -284.666 -58.5 -435.999c0 -150.667 19.5 -295.834 58.5 -435.501s94 -270.167 165 -391.5s156.333 -231.833 256 -331.5
s210.334 -185.167 332.001 -256.5s252.334 -126.5 392.001 -165.5s284.834 -58.5 435.501 -58.5zM1172 579.001h436.997c2.66699 -38.667 13.334 -73.334 32.001 -104.001s43.334 -56.834 74.001 -78.501s66.167 -38.334 106.5 -50.001s83.833 -17.5 130.5 -17.5
c49.333 0 94.666 6.5 135.999 19.5s76.833 31.833 106.5 56.5s52.834 54.334 69.5 89.001c16.667 34.667 25 74 25 118c0 42 -8.16699 81 -24.5 117s-40.666 67.167 -73 93.5c-32.333 26.333 -72.5 47 -120.5 62s-103.667 22.5 -167 22.5h-221v301l454 472v14h-862v354h1394
v-312l-550 -556v-16c108 -10.667 201 -34 279 -70s142.333 -80.5 193 -133.5s88.167 -112.167 112.5 -177.5s36.5 -132 36.5 -200c0 -90.667 -20 -173.667 -60 -249s-95.167 -139.666 -165.5 -192.999s-153.666 -94.833 -250 -124.5
c-96.333 -29.667 -200.833 -44.5 -313.5 -44.5s-216 14.5 -310 43.5s-175.167 70.167 -243.5 123.5s-122.166 117.333 -161.499 192s-60.666 157.334 -63.999 248.001z" />
    <glyph glyph-name="uniE12E" unicode="&#x20dd;&#xe06e;" horiz-adv-x="3912" 
d="M32 1024c0 177.333 22.833 347.834 68.5 511.501s110.334 316.834 194.001 459.501s184 272.5 301 389.5s246.833 217.333 389.5 301s295.834 148.334 459.501 194c163.667 45.667 334.167 68.5 511.5 68.5s347.833 -22.833 511.5 -68.5s316.834 -110.334 459.5 -194.001
c142.667 -83.667 272.5 -184 389.5 -301s217.333 -246.833 301 -389.5s148.334 -295.834 194 -459.501c45.667 -163.667 68.5 -334.167 68.5 -511.5s-22.833 -347.833 -68.5 -511.5s-110.334 -316.834 -194 -459.501c-83.667 -142.667 -184 -272.5 -301 -389.5
s-246.833 -217.333 -389.5 -301s-295.834 -148.334 -459.5 -194.001c-163.667 -45.667 -334.167 -68.5 -511.5 -68.5s-347.833 22.833 -511.5 68.5s-316.834 110.334 -459.501 194.001s-272.5 184 -389.5 301s-217.333 246.833 -301 389.5
s-148.334 295.834 -194.001 459.501s-68.5 334.167 -68.5 511.5zM1956 -614.999c151.333 0 296.666 19.5 436 58.5c139.333 39 269.833 94.167 391.5 165.5s232.334 156.833 332 256.5c99.667 99.667 185 210.167 256 331.5s126 251.833 165 391.5
s58.5 284.834 58.5 435.501c0 151.333 -19.5 296.666 -58.5 435.999s-94 269.833 -165 391.5s-156.333 232.334 -256 332.001s-210.334 185 -332 256c-121.667 71 -252.167 126 -391.5 165s-284.666 58.5 -436 58.5c-150.667 0 -295.834 -19.5 -435.501 -58.5
s-270.334 -94 -392.001 -165s-232.334 -156.333 -332.001 -256s-185 -210.334 -256 -332.001s-126 -252.167 -165 -391.5s-58.5 -284.666 -58.5 -435.999c0 -150.667 19.5 -295.834 58.5 -435.501s94 -270.167 165 -391.5s156.333 -231.833 256 -331.5
s210.334 -185.167 332.001 -256.5s252.334 -126.5 392.001 -165.5s284.834 -58.5 435.501 -58.5zM1083 360.001v341l765 1347h417l-747 -1325v-16h560v573h395v-573h261v-347h-261v-360h-407v360h-983z" />
    <glyph glyph-name="uniE12F" unicode="&#x20dd;&#xe06f;" horiz-adv-x="3912" 
d="M32 1024c0 177.333 22.833 347.834 68.5 511.501s110.334 316.834 194.001 459.501s184 272.5 301 389.5s246.833 217.333 389.5 301s295.834 148.334 459.501 194c163.667 45.667 334.167 68.5 511.5 68.5s347.833 -22.833 511.5 -68.5s316.834 -110.334 459.5 -194.001
c142.667 -83.667 272.5 -184 389.5 -301s217.333 -246.833 301 -389.5s148.334 -295.834 194 -459.501c45.667 -163.667 68.5 -334.167 68.5 -511.5s-22.833 -347.833 -68.5 -511.5s-110.334 -316.834 -194 -459.501c-83.667 -142.667 -184 -272.5 -301 -389.5
s-246.833 -217.333 -389.5 -301s-295.834 -148.334 -459.5 -194.001c-163.667 -45.667 -334.167 -68.5 -511.5 -68.5s-347.833 22.833 -511.5 68.5s-316.834 110.334 -459.501 194.001s-272.5 184 -389.5 301s-217.333 246.833 -301 389.5
s-148.334 295.834 -194.001 459.501s-68.5 334.167 -68.5 511.5zM317 1024c0 -150.667 19.499 -295.834 58.499 -435.501s94 -270.167 165 -391.5s156.333 -231.833 256 -331.5s210.334 -185.167 332.001 -256.5s252.334 -126.5 392.001 -165.5s284.834 -58.5 435.501 -58.5
c151.333 0 296.666 19.5 436 58.5c139.333 39 269.833 94.167 391.5 165.5s232.334 156.833 332 256.5c99.667 99.667 185 210.167 256 331.5s126 251.833 165 391.5s58.5 284.834 58.5 435.501c0 151.333 -19.5 296.666 -58.5 435.999s-94 269.833 -165 391.5
s-156.333 232.334 -256 332.001s-210.334 185 -332 256c-121.667 71 -252.167 126 -391.5 165s-284.666 58.5 -435.999 58.5c-150.667 0 -295.834 -19.5 -435.501 -58.5s-270.334 -94 -392.001 -165s-232.334 -156.333 -332.001 -256s-185 -210.334 -256 -332.001
s-126 -252.167 -165 -391.5s-58.5 -284.666 -58.5 -435.999zM1214 665.001c0 54 5.33203 107.501 15.999 160.501s26.834 107.167 48.501 162.5s48.834 112.5 81.501 171.5s71.334 121.167 116.001 186.5l474 702h436l-497 -728c25.333 5.33301 51.5 10.166 78.5 14.499
s54.5 6.5 82.5 6.5c94 0 180.667 -16.333 260 -49s147.833 -78.334 205.5 -137.001s102.5 -128.834 134.5 -210.501s48 -171.834 48 -270.501c0 -105.333 -18.333 -201.166 -55 -287.499s-87.667 -160.166 -153 -221.499s-143 -108.833 -233 -142.5s-188 -50.5 -294 -50.5
c-68 0 -133.833 7 -197.5 21s-123.334 34.5 -179.001 61.5s-106.334 60.333 -152.001 100s-85 85.167 -118 136.5s-58.5 108.333 -76.5 171s-26.667 130.334 -26 203.001zM1637 661.002c0 -51.333 7.83398 -98.499 23.501 -141.499s37.834 -80 66.501 -111
s62.834 -55.167 102.501 -72.5s83.5 -26 131.5 -26c47.333 0 90.666 8.66699 129.999 26s73.166 41.5 101.5 72.5c28.333 31 50.333 67.833 66 110.5s23.5 89.334 23.5 140.001c0 51.333 -8 98.333 -24 141s-38.167 79.5 -66.5 110.5s-62.166 55 -101.5 72
c-39.333 17 -82.333 25.5 -129 25.5c-48 0 -91.833 -8.5 -131.5 -25.5s-73.834 -40.833 -102.501 -71.5s-50.834 -67.334 -66.501 -110.001s-23.5 -89.334 -23.5 -140.001z" />
    <glyph glyph-name="uniE130" unicode="&#x20dd;&#xe070;" horiz-adv-x="3912" 
d="M32 1024c0 177.333 22.833 347.834 68.5 511.501s110.334 316.834 194.001 459.501s184 272.5 301 389.5s246.833 217.333 389.5 301s295.834 148.334 459.501 194c163.667 45.667 334.167 68.5 511.5 68.5s347.833 -22.833 511.5 -68.5s316.834 -110.334 459.5 -194.001
c142.667 -83.667 272.5 -184 389.5 -301s217.333 -246.833 301 -389.5s148.334 -295.834 194 -459.501c45.667 -163.667 68.5 -334.167 68.5 -511.5s-22.833 -347.833 -68.5 -511.5s-110.334 -316.834 -194 -459.501c-83.667 -142.667 -184 -272.5 -301 -389.5
s-246.833 -217.333 -389.5 -301s-295.834 -148.334 -459.5 -194.001c-163.667 -45.667 -334.167 -68.5 -511.5 -68.5s-347.833 22.833 -511.5 68.5s-316.834 110.334 -459.501 194.001s-272.5 184 -389.5 301s-217.333 246.833 -301 389.5
s-148.334 295.834 -194.001 459.501s-68.5 334.167 -68.5 511.5zM1956 -614.999c151.333 0 296.666 19.5 436 58.5c139.333 39 269.833 94.167 391.5 165.5s232.334 156.833 332 256.5c99.667 99.667 185 210.167 256 331.5s126 251.833 165 391.5
s58.5 284.834 58.5 435.501c0 151.333 -19.5 296.666 -58.5 435.999s-94 269.833 -165 391.5s-156.333 232.334 -256 332.001s-210.334 185 -332 256c-121.667 71 -252.167 126 -391.5 165s-284.666 58.5 -436 58.5c-150.667 0 -295.834 -19.5 -435.501 -58.5
s-270.334 -94 -392.001 -165s-232.334 -156.333 -332.001 -256s-185 -210.334 -256 -332.001s-126 -252.167 -165 -391.5s-58.5 -284.666 -58.5 -435.999c0 -150.667 19.5 -295.834 58.5 -435.501s94 -270.167 165 -391.5s156.333 -231.833 256 -331.5
s210.334 -185.167 332.001 -256.5s252.334 -126.5 392.001 -165.5s284.834 -58.5 435.501 -58.5zM1949 2076c102 0 198.333 -15.501 289 -46.501s170.334 -76 239 -135c68.667 -59 122.834 -131.5 162.5 -217.5c39.667 -86 59.5 -184 59.5 -294
c-0.666992 -54 -6.5 -107.5 -17.5 -160.5s-27.333 -107.167 -49 -162.5s-48.834 -112.5 -81.5 -171.5c-32.667 -59 -71 -121.167 -115 -186.5l-474 -702h-435l496 730c-25.333 -6.66699 -51.333 -12.167 -78 -16.5s-54.334 -6.5 -83.001 -6.5
c-94.667 0 -181.667 16.333 -261 49s-147.666 78.334 -204.999 137.001s-102 128.834 -134 210.501s-48 171.834 -48 270.501c0 105.333 18.333 201.166 55 287.499s87.5 160.166 152.5 221.499s142.5 108.833 232.5 142.5s188.333 50.5 295 50.5zM1951 1040
c47.333 0 90.833 8.49902 130.5 25.499s73.834 40.833 102.5 71.5c28.667 30.667 51 67.334 67 110.001s24 89.334 24 140.001c0 51.333 -8 98.5 -24 141.5s-38.333 80 -67 111s-62.834 55.167 -102.5 72.5c-39.667 17.333 -83.167 26 -130.5 26
s-90.666 -8.66699 -129.999 -26s-73.166 -41.5 -101.499 -72.5s-50.333 -67.833 -66 -110.5s-23.5 -89.334 -23.5 -140.001c0 -51.333 7.83301 -98.333 23.5 -141s37.667 -79.5 66 -110.5s62.166 -55 101.499 -72s82.666 -25.5 129.999 -25.5z" />
    <glyph glyph-name="uniE131" unicode="&#x21;&#x20dd;" horiz-adv-x="3912" 
d="M32 1024c0 177.333 22.833 347.834 68.5 511.501s110.334 316.834 194.001 459.501s184 272.5 301 389.5s246.833 217.333 389.5 301s295.834 148.334 459.501 194c163.667 45.667 334.167 68.5 511.5 68.5s347.833 -22.833 511.5 -68.5s316.834 -110.334 459.5 -194.001
c142.667 -83.667 272.5 -184 389.5 -301s217.333 -246.833 301 -389.5s148.334 -295.834 194 -459.501c45.667 -163.667 68.5 -334.167 68.5 -511.5s-22.833 -347.833 -68.5 -511.5s-110.334 -316.834 -194 -459.501c-83.667 -142.667 -184 -272.5 -301 -389.5
s-246.833 -217.333 -389.5 -301s-295.834 -148.334 -459.5 -194.001c-163.667 -45.667 -334.167 -68.5 -511.5 -68.5s-347.833 22.833 -511.5 68.5s-316.834 110.334 -459.501 194.001s-272.5 184 -389.5 301s-217.333 246.833 -301 389.5
s-148.334 295.834 -194.001 459.501s-68.5 334.167 -68.5 511.5zM1956 -614.999c151.333 0 296.666 19.5 436 58.5c139.333 39 269.833 94.167 391.5 165.5s232.334 156.833 332 256.5c99.667 99.667 185 210.167 256 331.5s126 251.833 165 391.5
s58.5 284.834 58.5 435.501c0 151.333 -19.5 296.666 -58.5 435.999s-94 269.833 -165 391.5s-156.333 232.334 -256 332.001s-210.334 185 -332 256c-121.667 71 -252.167 126 -391.5 165s-284.666 58.5 -436 58.5c-150.667 0 -295.834 -19.5 -435.501 -58.5
s-270.334 -94 -392.001 -165s-232.334 -156.333 -332.001 -256s-185 -210.334 -256 -332.001s-126 -252.167 -165 -391.5s-58.5 -284.666 -58.5 -435.999c0 -150.667 19.5 -295.834 58.5 -435.501s94 -270.167 165 -391.5s156.333 -231.833 256 -331.5
s210.334 -185.167 332.001 -256.5s252.334 -126.5 392.001 -165.5s284.834 -58.5 435.501 -58.5zM2178 2048l-39 -1434h-366l-40 1434h445zM1956 452.001c32 0 62.5 -6.33301 91.5 -19s54.5 -29.667 76.5 -51s39.5 -46.5 52.5 -75.5s19.5 -59.833 19.5 -92.5
c0 -33.333 -6.5 -64.5 -19.5 -93.5s-30.5 -54.333 -52.5 -76s-47.5 -38.834 -76.5 -51.501s-59.5 -19 -91.5 -19c-32.667 0 -63.667 6.33301 -93 19s-55 29.834 -77 51.501s-39.167 47 -51.5 76s-18.5 60.167 -18.5 93.5c0 32.667 6.16699 63.5 18.5 92.5
s29.5 54.167 51.5 75.5s47.667 38.333 77 51s60.333 19 93 19z" />
    <glyph glyph-name="uniE132" unicode="&#x3f;&#x20dd;" horiz-adv-x="3912" 
d="M32 1024c0 177.333 22.833 347.834 68.5 511.501s110.334 316.834 194.001 459.501s184 272.5 301 389.5s246.833 217.333 389.5 301s295.834 148.334 459.501 194c163.667 45.667 334.167 68.5 511.5 68.5s347.833 -22.833 511.5 -68.5s316.834 -110.334 459.5 -194.001
c142.667 -83.667 272.5 -184 389.5 -301s217.333 -246.833 301 -389.5s148.334 -295.834 194 -459.501c45.667 -163.667 68.5 -334.167 68.5 -511.5s-22.833 -347.833 -68.5 -511.5s-110.334 -316.834 -194 -459.501c-83.667 -142.667 -184 -272.5 -301 -389.5
s-246.833 -217.333 -389.5 -301s-295.834 -148.334 -459.5 -194.001c-163.667 -45.667 -334.167 -68.5 -511.5 -68.5s-347.833 22.833 -511.5 68.5s-316.834 110.334 -459.501 194.001s-272.5 184 -389.5 301s-217.333 246.833 -301 389.5
s-148.334 295.834 -194.001 459.501s-68.5 334.167 -68.5 511.5zM1956 -614.999c151.333 0 296.666 19.5 436 58.5c139.333 39 269.833 94.167 391.5 165.5s232.334 156.833 332 256.5c99.667 99.667 185 210.167 256 331.5s126 251.833 165 391.5
s58.5 284.834 58.5 435.501c0 151.333 -19.5 296.666 -58.5 435.999s-94 269.833 -165 391.5s-156.333 232.334 -256 332.001s-210.334 185 -332 256c-121.667 71 -252.167 126 -391.5 165s-284.666 58.5 -436 58.5c-150.667 0 -295.834 -19.5 -435.501 -58.5
s-270.334 -94 -392.001 -165s-232.334 -156.333 -332.001 -256s-185 -210.334 -256 -332.001s-126 -252.167 -165 -391.5s-58.5 -284.666 -58.5 -435.999c0 -150.667 19.5 -295.834 58.5 -435.501s94 -270.167 165 -391.5s156.333 -231.833 256 -331.5
s210.334 -185.167 332.001 -256.5s252.334 -126.5 392.001 -165.5s284.834 -58.5 435.501 -58.5zM1310 1486c2 100 20.999 186.998 56.999 260.998s84.167 135.333 144.5 184s130.5 85 210.5 109s165.333 36 256 36c99.333 0 190.5 -12.5 273.5 -37.5
s154.5 -61.167 214.5 -108.5s106.833 -105.333 140.5 -174s50.5 -146.667 50.5 -234c0 -58.667 -7.33301 -112.167 -22 -160.5s-35.5 -92.5 -62.5 -132.5s-59.5 -76.333 -97.5 -109s-80.333 -63 -127 -91c-39.333 -24 -73.333 -48.167 -102 -72.5
s-52.5 -51.166 -71.5 -80.499s-33 -62.5 -42 -99.5s-13.833 -79.833 -14.5 -128.5v-34h-379v34c0 87.333 5.83301 160.833 17.5 220.5s28.667 110.5 51 152.5s49.833 77.5 82.5 106.5s70 56.833 112 83.5c30.667 19.333 59.334 39.5 86.001 60.5s49.667 43.5 69 67.5
s34.666 49.833 46 77.5c11.333 27.667 17 57.834 17 90.501c0 34.667 -6.33301 66.167 -19 94.5s-30 52.5 -52 72.5s-47.833 35.333 -77.5 46s-61.5 16 -95.5 16c-32.667 0 -64.167 -5.33301 -94.5 -16s-57.333 -26.5 -81 -47.5s-43 -47.167 -58 -78.5
s-23.167 -67.333 -24.5 -108h-408zM1696 213.999c0 32.667 6.16699 63.5 18.5 92.5s29.5 54.167 51.5 75.5s47.667 38.333 77 51s60.333 19 93 19c32 0 62.5 -6.33301 91.5 -19s54.5 -29.667 76.5 -51s39.5 -46.5 52.5 -75.5s19.5 -59.833 19.5 -92.5
c0 -33.333 -6.5 -64.5 -19.5 -93.5s-30.5 -54.333 -52.5 -76s-47.5 -38.834 -76.5 -51.501s-59.5 -19 -91.5 -19c-32.667 0 -63.667 6.33301 -93 19s-55 29.834 -77 51.501s-39.167 47 -51.5 76s-18.5 60.167 -18.5 93.5z" />
    <glyph glyph-name="uniE133" unicode="&#x23;&#x20dd;" horiz-adv-x="3912" 
d="M32 1024c0 177.333 22.833 347.834 68.5 511.501s110.334 316.834 194.001 459.501s184 272.5 301 389.5s246.833 217.333 389.5 301s295.834 148.334 459.501 194c163.667 45.667 334.167 68.5 511.5 68.5s347.833 -22.833 511.5 -68.5s316.834 -110.334 459.5 -194.001
c142.667 -83.667 272.5 -184 389.5 -301s217.333 -246.833 301 -389.5s148.334 -295.834 194 -459.501c45.667 -163.667 68.5 -334.167 68.5 -511.5s-22.833 -347.833 -68.5 -511.5s-110.334 -316.834 -194 -459.501c-83.667 -142.667 -184 -272.5 -301 -389.5
s-246.833 -217.333 -389.5 -301s-295.834 -148.334 -459.5 -194.001c-163.667 -45.667 -334.167 -68.5 -511.5 -68.5s-347.833 22.833 -511.5 68.5s-316.834 110.334 -459.501 194.001s-272.5 184 -389.5 301s-217.333 246.833 -301 389.5
s-148.334 295.834 -194.001 459.501s-68.5 334.167 -68.5 511.5zM1956 -614.999c151.333 0 296.666 19.5 436 58.5c139.333 39 269.833 94.167 391.5 165.5s232.334 156.833 332 256.5c99.667 99.667 185 210.167 256 331.5s126 251.833 165 391.5
s58.5 284.834 58.5 435.501c0 151.333 -19.5 296.666 -58.5 435.999s-94 269.833 -165 391.5s-156.333 232.334 -256 332.001s-210.334 185 -332 256c-121.667 71 -252.167 126 -391.5 165s-284.666 58.5 -436 58.5c-150.667 0 -295.834 -19.5 -435.501 -58.5
s-270.334 -94 -392.001 -165s-232.334 -156.333 -332.001 -256s-185 -210.334 -256 -332.001s-126 -252.167 -165 -391.5s-58.5 -284.666 -58.5 -435.999c0 -150.667 19.5 -295.834 58.5 -435.501s94 -270.167 165 -391.5s156.333 -231.833 256 -331.5
s210.334 -185.167 332.001 -256.5s252.334 -126.5 392.001 -165.5s284.834 -58.5 435.501 -58.5zM1124 828.001h280l64 392h-280l54 320h279l83 508h320l-83 -508h400l83 508h320l-83 -508h281l-54 -320h-280l-64 -392h280l-53 -320h-280l-83 -508h-320l83 508h-400
l-83 -508h-320l83 508h-280zM1724 828.001h400l64 392h-400z" />
    <glyph glyph-name="uniE134" unicode="&#x2d;&#x20dd;" horiz-adv-x="3912" 
d="M32 1024c0 177.333 22.833 347.834 68.5 511.501s110.334 316.834 194.001 459.501s184 272.5 301 389.5s246.833 217.333 389.5 301s295.834 148.334 459.501 194c163.667 45.667 334.167 68.5 511.5 68.5s347.833 -22.833 511.5 -68.5s316.834 -110.334 459.5 -194.001
c142.667 -83.667 272.5 -184 389.5 -301s217.333 -246.833 301 -389.5s148.334 -295.834 194 -459.501c45.667 -163.667 68.5 -334.167 68.5 -511.5s-22.833 -347.833 -68.5 -511.5s-110.334 -316.834 -194 -459.501c-83.667 -142.667 -184 -272.5 -301 -389.5
s-246.833 -217.333 -389.5 -301s-295.834 -148.334 -459.5 -194.001c-163.667 -45.667 -334.167 -68.5 -511.5 -68.5s-347.833 22.833 -511.5 68.5s-316.834 110.334 -459.501 194.001s-272.5 184 -389.5 301s-217.333 246.833 -301 389.5
s-148.334 295.834 -194.001 459.501s-68.5 334.167 -68.5 511.5zM1956 -614.999c151.333 0 296.666 19.5 436 58.5c139.333 39 269.833 94.167 391.5 165.5s232.334 156.833 332 256.5c99.667 99.667 185 210.167 256 331.5s126 251.833 165 391.5
s58.5 284.834 58.5 435.501c0 151.333 -19.5 296.666 -58.5 435.999s-94 269.833 -165 391.5s-156.333 232.334 -256 332.001s-210.334 185 -332 256c-121.667 71 -252.167 126 -391.5 165s-284.666 58.5 -436 58.5c-150.667 0 -295.834 -19.5 -435.501 -58.5
s-270.334 -94 -392.001 -165s-232.334 -156.333 -332.001 -256s-185 -210.334 -256 -332.001s-126 -252.167 -165 -391.5s-58.5 -284.666 -58.5 -435.999c0 -150.667 19.5 -295.834 58.5 -435.501s94 -270.167 165 -391.5s156.333 -231.833 256 -331.5
s210.334 -185.167 332.001 -256.5s252.334 -126.5 392.001 -165.5s284.834 -58.5 435.501 -58.5zM2423 1193v-338h-934v338h934z" />
    <glyph glyph-name="uniE135" unicode="&#x3c;&#x20dd;" horiz-adv-x="3912" 
d="M32 1024c0 177.333 22.833 347.834 68.5 511.501s110.334 316.834 194.001 459.501s184 272.5 301 389.5s246.833 217.333 389.5 301s295.834 148.334 459.501 194c163.667 45.667 334.167 68.5 511.5 68.5s347.833 -22.833 511.5 -68.5s316.834 -110.334 459.5 -194.001
c142.667 -83.667 272.5 -184 389.5 -301s217.333 -246.833 301 -389.5s148.334 -295.834 194 -459.501c45.667 -163.667 68.5 -334.167 68.5 -511.5s-22.833 -347.833 -68.5 -511.5s-110.334 -316.834 -194 -459.501c-83.667 -142.667 -184 -272.5 -301 -389.5
s-246.833 -217.333 -389.5 -301s-295.834 -148.334 -459.5 -194.001c-163.667 -45.667 -334.167 -68.5 -511.5 -68.5s-347.833 22.833 -511.5 68.5s-316.834 110.334 -459.501 194.001s-272.5 184 -389.5 301s-217.333 246.833 -301 389.5
s-148.334 295.834 -194.001 459.501s-68.5 334.167 -68.5 511.5zM1956 -614.999c151.333 0 296.666 19.5 436 58.5c139.333 39 269.833 94.167 391.5 165.5s232.334 156.833 332 256.5c99.667 99.667 185 210.167 256 331.5s126 251.833 165 391.5
s58.5 284.834 58.5 435.501c0 151.333 -19.5 296.666 -58.5 435.999s-94 269.833 -165 391.5s-156.333 232.334 -256 332.001s-210.334 185 -332 256c-121.667 71 -252.167 126 -391.5 165s-284.666 58.5 -436 58.5c-150.667 0 -295.834 -19.5 -435.501 -58.5
s-270.334 -94 -392.001 -165s-232.334 -156.333 -332.001 -256s-185 -210.334 -256 -332.001s-126 -252.167 -165 -391.5s-58.5 -284.666 -58.5 -435.999c0 -150.667 19.5 -295.834 58.5 -435.501s94 -270.167 165 -391.5s156.333 -231.833 256 -331.5
s210.334 -185.167 332.001 -256.5s252.334 -126.5 392.001 -165.5s284.834 -58.5 435.501 -58.5zM1212 835.001v352l1408 620v-405l-951 -382v-18l951 -382v-405z" />
    <glyph glyph-name="uniE136" unicode="&#x3e;&#x20dd;" horiz-adv-x="3912" 
d="M32 1024c0 177.333 22.833 347.834 68.5 511.501s110.334 316.834 194.001 459.501s184 272.5 301 389.5s246.833 217.333 389.5 301s295.834 148.334 459.501 194c163.667 45.667 334.167 68.5 511.5 68.5s347.833 -22.833 511.5 -68.5s316.834 -110.334 459.5 -194.001
c142.667 -83.667 272.5 -184 389.5 -301s217.333 -246.833 301 -389.5s148.334 -295.834 194 -459.501c45.667 -163.667 68.5 -334.167 68.5 -511.5s-22.833 -347.833 -68.5 -511.5s-110.334 -316.834 -194 -459.501c-83.667 -142.667 -184 -272.5 -301 -389.5
s-246.833 -217.333 -389.5 -301s-295.834 -148.334 -459.5 -194.001c-163.667 -45.667 -334.167 -68.5 -511.5 -68.5s-347.833 22.833 -511.5 68.5s-316.834 110.334 -459.501 194.001s-272.5 184 -389.5 301s-217.333 246.833 -301 389.5
s-148.334 295.834 -194.001 459.501s-68.5 334.167 -68.5 511.5zM317 1024c0 -150.667 19.499 -295.834 58.499 -435.501s94 -270.167 165 -391.5s156.333 -231.833 256 -331.5s210.334 -185.167 332.001 -256.5s252.334 -126.5 392.001 -165.5s284.834 -58.5 435.501 -58.5
c151.333 0 296.666 19.5 436 58.5c139.333 39 269.833 94.167 391.5 165.5s232.334 156.833 332 256.5c99.667 99.667 185 210.167 256 331.5s126 251.833 165 391.5s58.5 284.834 58.5 435.501c0 151.333 -19.5 296.666 -58.5 435.999s-94 269.833 -165 391.5
s-156.333 232.334 -256 332.001s-210.334 185 -332 256c-121.667 71 -252.167 126 -391.5 165s-284.666 58.5 -435.999 58.5c-150.667 0 -295.834 -19.5 -435.501 -58.5s-270.334 -94 -392.001 -165s-232.334 -156.333 -332.001 -256s-185 -210.334 -256 -332.001
s-126 -252.167 -165 -391.5s-58.5 -284.666 -58.5 -435.999zM1292 1402v405l1408 -620v-352l-1408 -620v405l951 382v18z" />
    <glyph glyph-name="uniE137" unicode="&#x3d;&#x20dd;" horiz-adv-x="3912" 
d="M32 1024c0 177.333 22.833 347.834 68.5 511.501s110.334 316.834 194.001 459.501s184 272.5 301 389.5s246.833 217.333 389.5 301s295.834 148.334 459.501 194c163.667 45.667 334.167 68.5 511.5 68.5s347.833 -22.833 511.5 -68.5s316.834 -110.334 459.5 -194.001
c142.667 -83.667 272.5 -184 389.5 -301s217.333 -246.833 301 -389.5s148.334 -295.834 194 -459.501c45.667 -163.667 68.5 -334.167 68.5 -511.5s-22.833 -347.833 -68.5 -511.5s-110.334 -316.834 -194 -459.501c-83.667 -142.667 -184 -272.5 -301 -389.5
s-246.833 -217.333 -389.5 -301s-295.834 -148.334 -459.5 -194.001c-163.667 -45.667 -334.167 -68.5 -511.5 -68.5s-347.833 22.833 -511.5 68.5s-316.834 110.334 -459.501 194.001s-272.5 184 -389.5 301s-217.333 246.833 -301 389.5
s-148.334 295.834 -194.001 459.501s-68.5 334.167 -68.5 511.5zM317 1024c0 -150.667 19.499 -295.834 58.499 -435.501s94 -270.167 165 -391.5s156.333 -231.833 256 -331.5s210.334 -185.167 332.001 -256.5s252.334 -126.5 392.001 -165.5s284.834 -58.5 435.501 -58.5
c151.333 0 296.666 19.5 436 58.5c139.333 39 269.833 94.167 391.5 165.5s232.334 156.833 332 256.5c99.667 99.667 185 210.167 256 331.5s126 251.833 165 391.5s58.5 284.834 58.5 435.501c0 151.333 -19.5 296.666 -58.5 435.999s-94 269.833 -165 391.5
s-156.333 232.334 -256 332.001s-210.334 185 -332 256c-121.667 71 -252.167 126 -391.5 165s-284.666 58.5 -435.999 58.5c-150.667 0 -295.834 -19.5 -435.501 -58.5s-270.334 -94 -392.001 -165s-232.334 -156.333 -332.001 -256s-185 -210.334 -256 -332.001
s-126 -252.167 -165 -391.5s-58.5 -284.666 -58.5 -435.999zM1265 870.001h1381v-355h-1381v355zM1265 1534h1381v-355h-1381v355z" />
    <glyph glyph-name="uniE138" unicode="&#x20dd;&#x2191;" horiz-adv-x="3912" 
d="M32 1024c0 177.333 22.833 347.834 68.5 511.501s110.334 316.834 194.001 459.501s184 272.5 301 389.5s246.833 217.333 389.5 301s295.834 148.334 459.501 194c163.667 45.667 334.167 68.5 511.5 68.5s347.833 -22.833 511.5 -68.5s316.834 -110.334 459.5 -194.001
c142.667 -83.667 272.5 -184 389.5 -301s217.333 -246.833 301 -389.5s148.334 -295.834 194 -459.501c45.667 -163.667 68.5 -334.167 68.5 -511.5s-22.833 -347.833 -68.5 -511.5s-110.334 -316.834 -194 -459.501c-83.667 -142.667 -184 -272.5 -301 -389.5
s-246.833 -217.333 -389.5 -301s-295.834 -148.334 -459.5 -194.001c-163.667 -45.667 -334.167 -68.5 -511.5 -68.5s-347.833 22.833 -511.5 68.5s-316.834 110.334 -459.501 194.001s-272.5 184 -389.5 301s-217.333 246.833 -301 389.5
s-148.334 295.834 -194.001 459.501s-68.5 334.167 -68.5 511.5zM1956 -614.999c151.333 0 296.666 19.5 436 58.5c139.333 39 269.833 94.167 391.5 165.5s232.334 156.833 332 256.5c99.667 99.667 185 210.167 256 331.5s126 251.833 165 391.5
s58.5 284.834 58.5 435.501c0 151.333 -19.5 296.666 -58.5 435.999s-94 269.833 -165 391.5s-156.333 232.334 -256 332.001s-210.334 185 -332 256c-121.667 71 -252.167 126 -391.5 165s-284.666 58.5 -436 58.5c-150.667 0 -295.834 -19.5 -435.501 -58.5
s-270.334 -94 -392.001 -165s-232.334 -156.333 -332.001 -256s-185 -210.334 -256 -332.001s-126 -252.167 -165 -391.5s-58.5 -284.666 -58.5 -435.999c0 -150.667 19.5 -295.834 58.5 -435.501s94 -270.167 165 -391.5s156.333 -231.833 256 -331.5
s210.334 -185.167 332.001 -256.5s252.334 -126.5 392.001 -165.5s284.834 -58.5 435.501 -58.5zM1958 2060l934 -934l-230 -232l-535 535v-1429h-338v1429l-533 -535l-234 232z" />
    <glyph glyph-name="uniE139" unicode="&#x20dd;&#x2193;" horiz-adv-x="3912" 
d="M32 1024c0 177.333 22.833 347.834 68.5 511.501s110.334 316.834 194.001 459.501s184 272.5 301 389.5s246.833 217.333 389.5 301s295.834 148.334 459.501 194c163.667 45.667 334.167 68.5 511.5 68.5s347.833 -22.833 511.5 -68.5s316.834 -110.334 459.5 -194.001
c142.667 -83.667 272.5 -184 389.5 -301s217.333 -246.833 301 -389.5s148.334 -295.834 194 -459.501c45.667 -163.667 68.5 -334.167 68.5 -511.5s-22.833 -347.833 -68.5 -511.5s-110.334 -316.834 -194 -459.501c-83.667 -142.667 -184 -272.5 -301 -389.5
s-246.833 -217.333 -389.5 -301s-295.834 -148.334 -459.5 -194.001c-163.667 -45.667 -334.167 -68.5 -511.5 -68.5s-347.833 22.833 -511.5 68.5s-316.834 110.334 -459.501 194.001s-272.5 184 -389.5 301s-217.333 246.833 -301 389.5
s-148.334 295.834 -194.001 459.501s-68.5 334.167 -68.5 511.5zM317 1024c0 -150.667 19.499 -295.834 58.499 -435.501s94 -270.167 165 -391.5s156.333 -231.833 256 -331.5s210.334 -185.167 332.001 -256.5s252.334 -126.5 392.001 -165.5s284.834 -58.5 435.501 -58.5
c151.333 0 296.666 19.5 436 58.5c139.333 39 269.833 94.167 391.5 165.5s232.334 156.833 332 256.5c99.667 99.667 185 210.167 256 331.5s126 251.833 165 391.5s58.5 284.834 58.5 435.501c0 151.333 -19.5 296.666 -58.5 435.999s-94 269.833 -165 391.5
s-156.333 232.334 -256 332.001s-210.334 185 -332 256c-121.667 71 -252.167 126 -391.5 165s-284.666 58.5 -435.999 58.5c-150.667 0 -295.834 -19.5 -435.501 -58.5s-270.334 -94 -392.001 -165s-232.334 -156.333 -332.001 -256s-185 -210.334 -256 -332.001
s-126 -252.167 -165 -391.5s-58.5 -284.666 -58.5 -435.999zM1022 922.001l230 232l535 -535v1429h338v-1429l533 535l234 -232l-936 -934z" />
    <glyph glyph-name="uniE13A" unicode="&#x20dd;&#x2190;" horiz-adv-x="3912" 
d="M32 1024c0 177.333 22.833 347.834 68.5 511.501s110.334 316.834 194.001 459.501s184 272.5 301 389.5s246.833 217.333 389.5 301s295.834 148.334 459.501 194c163.667 45.667 334.167 68.5 511.5 68.5s347.833 -22.833 511.5 -68.5s316.834 -110.334 459.5 -194.001
c142.667 -83.667 272.5 -184 389.5 -301s217.333 -246.833 301 -389.5s148.334 -295.834 194 -459.501c45.667 -163.667 68.5 -334.167 68.5 -511.5s-22.833 -347.833 -68.5 -511.5s-110.334 -316.834 -194 -459.501c-83.667 -142.667 -184 -272.5 -301 -389.5
s-246.833 -217.333 -389.5 -301s-295.834 -148.334 -459.5 -194.001c-163.667 -45.667 -334.167 -68.5 -511.5 -68.5s-347.833 22.833 -511.5 68.5s-316.834 110.334 -459.501 194.001s-272.5 184 -389.5 301s-217.333 246.833 -301 389.5
s-148.334 295.834 -194.001 459.501s-68.5 334.167 -68.5 511.5zM1956 -614.999c151.333 0 296.666 19.5 436 58.5c139.333 39 269.833 94.167 391.5 165.5s232.334 156.833 332 256.5c99.667 99.667 185 210.167 256 331.5s126 251.833 165 391.5
s58.5 284.834 58.5 435.501c0 151.333 -19.5 296.666 -58.5 435.999s-94 269.833 -165 391.5s-156.333 232.334 -256 332.001s-210.334 185 -332 256c-121.667 71 -252.167 126 -391.5 165s-284.666 58.5 -436 58.5c-150.667 0 -295.834 -19.5 -435.501 -58.5
s-270.334 -94 -392.001 -165s-232.334 -156.333 -332.001 -256s-185 -210.334 -256 -332.001s-126 -252.167 -165 -391.5s-58.5 -284.666 -58.5 -435.999c0 -150.667 19.5 -295.834 58.5 -435.501s94 -270.167 165 -391.5s156.333 -231.833 256 -331.5
s210.334 -185.167 332.001 -256.5s252.334 -126.5 392.001 -165.5s284.834 -58.5 435.501 -58.5zM928 1024l1008 1008l232 -230l-609 -609h1427v-338h-1427l609 -608l-232 -231z" />
    <glyph glyph-name="uniE13B" unicode="&#x20dd;&#x2192;" horiz-adv-x="3912" 
d="M32 1024c0 177.333 22.833 347.834 68.5 511.501s110.334 316.834 194.001 459.501s184 272.5 301 389.5s246.833 217.333 389.5 301s295.834 148.334 459.501 194c163.667 45.667 334.167 68.5 511.5 68.5s347.833 -22.833 511.5 -68.5s316.834 -110.334 459.5 -194.001
c142.667 -83.667 272.5 -184 389.5 -301s217.333 -246.833 301 -389.5s148.334 -295.834 194 -459.501c45.667 -163.667 68.5 -334.167 68.5 -511.5s-22.833 -347.833 -68.5 -511.5s-110.334 -316.834 -194 -459.501c-83.667 -142.667 -184 -272.5 -301 -389.5
s-246.833 -217.333 -389.5 -301s-295.834 -148.334 -459.5 -194.001c-163.667 -45.667 -334.167 -68.5 -511.5 -68.5s-347.833 22.833 -511.5 68.5s-316.834 110.334 -459.501 194.001s-272.5 184 -389.5 301s-217.333 246.833 -301 389.5
s-148.334 295.834 -194.001 459.501s-68.5 334.167 -68.5 511.5zM317 1024c0 -150.667 19.499 -295.834 58.499 -435.501s94 -270.167 165 -391.5s156.333 -231.833 256 -331.5s210.334 -185.167 332.001 -256.5s252.334 -126.5 392.001 -165.5s284.834 -58.5 435.501 -58.5
c151.333 0 296.666 19.5 436 58.5c139.333 39 269.833 94.167 391.5 165.5s232.334 156.833 332 256.5c99.667 99.667 185 210.167 256 331.5s126 251.833 165 391.5s58.5 284.834 58.5 435.501c0 151.333 -19.5 296.666 -58.5 435.999s-94 269.833 -165 391.5
s-156.333 232.334 -256 332.001s-210.334 185 -332 256c-121.667 71 -252.167 126 -391.5 165s-284.666 58.5 -435.999 58.5c-150.667 0 -295.834 -19.5 -435.501 -58.5s-270.334 -94 -392.001 -165s-232.334 -156.333 -332.001 -256s-185 -210.334 -256 -332.001
s-126 -252.167 -165 -391.5s-58.5 -284.666 -58.5 -435.999zM927.999 1193h1427l-609 608l232 231l1008 -1008l-1008 -1008l-232 230l609 609h-1427v338z" />
    <glyph glyph-name="uniE13C" unicode="&#x20dd;&#x2713;" horiz-adv-x="3912" 
d="M32 1024c0 177.333 22.833 347.834 68.5 511.501s110.334 316.834 194.001 459.501s184 272.5 301 389.5s246.833 217.333 389.5 301s295.834 148.334 459.501 194c163.667 45.667 334.167 68.5 511.5 68.5s347.833 -22.833 511.5 -68.5s316.834 -110.334 459.5 -194.001
c142.667 -83.667 272.5 -184 389.5 -301s217.333 -246.833 301 -389.5s148.334 -295.834 194 -459.501c45.667 -163.667 68.5 -334.167 68.5 -511.5s-22.833 -347.833 -68.5 -511.5s-110.334 -316.834 -194 -459.501c-83.667 -142.667 -184 -272.5 -301 -389.5
s-246.833 -217.333 -389.5 -301s-295.834 -148.334 -459.5 -194.001c-163.667 -45.667 -334.167 -68.5 -511.5 -68.5s-347.833 22.833 -511.5 68.5s-316.834 110.334 -459.501 194.001s-272.5 184 -389.5 301s-217.333 246.833 -301 389.5
s-148.334 295.834 -194.001 459.501s-68.5 334.167 -68.5 511.5zM317 1024c0 -150.667 19.499 -295.834 58.499 -435.501s94 -270.167 165 -391.5s156.333 -231.833 256 -331.5s210.334 -185.167 332.001 -256.5s252.334 -126.5 392.001 -165.5s284.834 -58.5 435.501 -58.5
c151.333 0 296.666 19.5 436 58.5c139.333 39 269.833 94.167 391.5 165.5s232.334 156.833 332 256.5c99.667 99.667 185 210.167 256 331.5s126 251.833 165 391.5s58.5 284.834 58.5 435.501c0 151.333 -19.5 296.666 -58.5 435.999s-94 269.833 -165 391.5
s-156.333 232.334 -256 332.001s-210.334 185 -332 256c-121.667 71 -252.167 126 -391.5 165s-284.666 58.5 -435.999 58.5c-150.667 0 -295.834 -19.5 -435.501 -58.5s-270.334 -94 -392.001 -165s-232.334 -156.333 -332.001 -256s-185 -210.334 -256 -332.001
s-126 -252.167 -165 -391.5s-58.5 -284.666 -58.5 -435.999zM1250 1251l463 -455l1027 1023l284 -283l-1311 -1304l-745 736z" />
    <glyph glyph-name="uniE13D" unicode="&#x20dd;&#x2717;" horiz-adv-x="3912" 
d="M32 1024c0 177.333 22.833 347.834 68.5 511.501s110.334 316.834 194.001 459.501s184 272.5 301 389.5s246.833 217.333 389.5 301s295.834 148.334 459.501 194c163.667 45.667 334.167 68.5 511.5 68.5s347.833 -22.833 511.5 -68.5s316.834 -110.334 459.5 -194.001
c142.667 -83.667 272.5 -184 389.5 -301s217.333 -246.833 301 -389.5s148.334 -295.834 194 -459.501c45.667 -163.667 68.5 -334.167 68.5 -511.5s-22.833 -347.833 -68.5 -511.5s-110.334 -316.834 -194 -459.501c-83.667 -142.667 -184 -272.5 -301 -389.5
s-246.833 -217.333 -389.5 -301s-295.834 -148.334 -459.5 -194.001c-163.667 -45.667 -334.167 -68.5 -511.5 -68.5s-347.833 22.833 -511.5 68.5s-316.834 110.334 -459.501 194.001s-272.5 184 -389.5 301s-217.333 246.833 -301 389.5
s-148.334 295.834 -194.001 459.501s-68.5 334.167 -68.5 511.5zM1956 -614.999c151.333 0 296.666 19.5 436 58.5c139.333 39 269.833 94.167 391.5 165.5s232.334 156.833 332 256.5c99.667 99.667 185 210.167 256 331.5s126 251.833 165 391.5
s58.5 284.834 58.5 435.501c0 151.333 -19.5 296.666 -58.5 435.999s-94 269.833 -165 391.5s-156.333 232.334 -256 332.001s-210.334 185 -332 256c-121.667 71 -252.167 126 -391.5 165s-284.666 58.5 -436 58.5c-150.667 0 -295.834 -19.5 -435.501 -58.5
s-270.334 -94 -392.001 -165s-232.334 -156.333 -332.001 -256s-185 -210.334 -256 -332.001s-126 -252.167 -165 -391.5s-58.5 -284.666 -58.5 -435.999c0 -150.667 19.5 -295.834 58.5 -435.501s94 -270.167 165 -391.5s156.333 -231.833 256 -331.5
s210.334 -185.167 332.001 -256.5s252.334 -126.5 392.001 -165.5s284.834 -58.5 435.501 -58.5zM1166 1527l283 283l507 -505l507 505l283 -283l-506 -504l504 -502l-283 -283l-505 503l-505 -503l-283 283l504 502z" />
    <glyph glyph-name="uniE13E" unicode="&#x30;&#x20de;" horiz-adv-x="3912" 
d="M444 2880h3024c112.667 0 198.167 -29.167 256.5 -87.5s87.5 -143.833 87.5 -256.5v-3024c0 -112.667 -29.167 -198.167 -87.5 -256.5s-143.833 -87.5 -256.5 -87.5h-3024c-112.667 0 -198.167 29.167 -256.5 87.5s-87.5 143.833 -87.5 256.5v3024
c0 112.667 29.167 198.167 87.5 256.5s143.833 87.5 256.5 87.5zM425 -547h3061c12.667 0 22.667 3.66699 30 11s11 17.333 11 30v3060c0 12.667 -3.66699 22.667 -11 30s-17.333 11 -30 11h-3061c-12 0 -21.667 -3.66699 -29 -11s-11 -17.333 -11 -30v-3060
c0 -12.667 3.66699 -22.667 11 -30s17 -11 29 -11zM1129 1022c0 168 19.002 317.332 57.002 447.999s92.667 240.834 164 330.501s158 158 260 205s217.333 70.5 346 70.5c128 0 243.167 -23.5 345.5 -70.5s189.166 -115.5 260.499 -205.5s126 -200.333 164 -331
s57 -279.667 57 -447c0 -168.667 -19 -319.167 -57 -451.5s-92.5 -244 -163.5 -335s-157.667 -160.5 -260 -208.5s-217.833 -72 -346.5 -72s-244.334 24.167 -347.001 72.5s-189.667 118 -261 209s-125.833 202.667 -163.5 335s-56.167 282.5 -55.5 450.5zM1956 313.999
c58.667 0 111.664 14.833 158.998 44.5c47.333 29.667 87.833 74 121.5 133s59.5 132.667 77.5 221s27 191.5 27 309.5c0 116 -9.16699 217.667 -27.5 305s-44.166 160.166 -77.5 218.499c-33.333 58.333 -73.833 102.166 -121.5 131.499s-100.5 44 -158.5 44
c-58.667 0 -111.667 -14.667 -159 -44s-87.833 -73.166 -121.5 -131.499s-59.667 -131.166 -78 -218.499s-27.5 -189 -27.5 -305c0 -118 9 -221.167 27 -309.5s43.833 -162 77.5 -221s74.334 -103.333 122.001 -133s100.834 -44.5 159.501 -44.5z" />
    <glyph glyph-name="uniE13F" unicode="&#x31;&#x20de;" horiz-adv-x="3912" 
d="M444 2880h3024c112.667 0 198.167 -29.167 256.5 -87.5s87.5 -143.833 87.5 -256.5v-3024c0 -112.667 -29.167 -198.167 -87.5 -256.5s-143.833 -87.5 -256.5 -87.5h-3024c-112.667 0 -198.167 29.167 -256.5 87.5s-87.5 143.833 -87.5 256.5v3024
c0 112.667 29.167 198.167 87.5 256.5s143.833 87.5 256.5 87.5zM385 2554v-3060c0 -12.667 3.66699 -22.667 11 -30s17 -11 29 -11h3061c12.667 0 22.667 3.66699 30 11s11 17.333 11 30v3060c0 12.667 -3.66699 22.667 -11 30s-17.333 11 -30 11h-3061
c-12 0 -21.667 -3.66699 -29 -11s-11 -17.333 -11 -30zM1310 1343v384l507 321h407v-2048h-433v1637h-12z" />
    <glyph glyph-name="uniE140" unicode="&#x32;&#x20de;" horiz-adv-x="3912" 
d="M444 2880h3024c112.667 0 198.167 -29.167 256.5 -87.5s87.5 -143.833 87.5 -256.5v-3024c0 -112.667 -29.167 -198.167 -87.5 -256.5s-143.833 -87.5 -256.5 -87.5h-3024c-112.667 0 -198.167 29.167 -256.5 87.5s-87.5 143.833 -87.5 256.5v3024
c0 112.667 29.167 198.167 87.5 256.5s143.833 87.5 256.5 87.5zM385 2554v-3060c0 -12.667 3.66699 -22.667 11 -30s17 -11 29 -11h3061c12.667 0 22.667 3.66699 30 11s11 17.333 11 30v3060c0 12.667 -3.66699 22.667 -11 30s-17.333 11 -30 11h-3061
c-12 0 -21.667 -3.66699 -29 -11s-11 -17.333 -11 -30zM1942 2076c110 0 209.831 -15.0029 299.498 -45.0029s166.334 -71.667 230 -125c63.667 -53.333 112.834 -117.166 147.5 -191.499c34.667 -74.333 52 -155.833 52 -244.5c0 -38.667 -3.5 -76.667 -10.5 -114
s-18.5 -75.333 -34.5 -114s-37.333 -78.667 -64 -120s-59.834 -85.5 -99.5 -132.5c-39.667 -47 -86.334 -97.5 -140 -151.5c-53.667 -54 -115.5 -113 -185.5 -177l-299 -293v-14h860v-354h-1460v312l729 675c46.667 44.667 87.834 85.834 123.501 123.501
s65.5 74.167 89.5 109.5s42.167 70.833 54.5 106.5s18.5 73.834 18.5 114.501c0 45.333 -7.83301 86 -23.5 122s-37.5 66.5 -65.5 91.5s-61.167 44.333 -99.5 58s-80.166 20.5 -125.499 20.5c-46.667 0 -89.167 -7.33301 -127.5 -22s-71 -35.5 -98 -62.5
s-47.833 -60 -62.5 -99s-22 -83.167 -22 -132.5h-411c0 100.667 17.5 191.5 52.5 272.5s84.333 150.167 148 207.5s140 101.5 229 132.5s187.167 46.5 294.5 46.5z" />
    <glyph glyph-name="uniE141" unicode="&#x33;&#x20de;" horiz-adv-x="3912" 
d="M444 2880h3024c112.667 0 198.167 -29.167 256.5 -87.5s87.5 -143.833 87.5 -256.5v-3024c0 -112.667 -29.167 -198.167 -87.5 -256.5s-143.833 -87.5 -256.5 -87.5h-3024c-112.667 0 -198.167 29.167 -256.5 87.5s-87.5 143.833 -87.5 256.5v3024
c0 112.667 29.167 198.167 87.5 256.5s143.833 87.5 256.5 87.5zM425 -547h3061c12.667 0 22.667 3.66699 30 11s11 17.333 11 30v3060c0 12.667 -3.66699 22.667 -11 30s-17.333 11 -30 11h-3061c-12 0 -21.667 -3.66699 -29 -11s-11 -17.333 -11 -30v-3060
c0 -12.667 3.66699 -22.667 11 -30s17 -11 29 -11zM1604 579c2 -37.333 11.999 -71.333 29.999 -102s42.167 -57 72.5 -79s65.833 -39 106.5 -51s85 -18 133 -18c49.333 0 94.666 6.66699 135.999 20s77 32.166 107 56.499s53.167 53.333 69.5 87s24.5 70.834 24.5 111.501
c0 41.333 -8.66699 79.166 -26 113.499s-42.166 64 -74.5 89c-32.333 25 -71.833 44.333 -118.5 58s-99 20.5 -157 20.5h-191v318h191c49.333 0 94.5 6.5 135.5 19.5s76.167 31.333 105.5 55s52 52.167 68 85.5s24 70 24 110c0 38.667 -6.83301 73.834 -20.5 105.501
s-33.334 59 -59 82c-25.667 23 -56.334 40.833 -92.001 53.5s-75.5 19 -119.5 19s-85.5 -6 -124.5 -18s-73.167 -29.333 -102.5 -52s-52.666 -49.667 -69.999 -81s-26.666 -66.666 -27.999 -105.999h-415c1.33301 88.667 21.166 169.667 59.499 243s90.5 136.5 156.5 189.5
s144 94.167 234 123.5s187.333 44 292 44c106 0 202.5 -14.833 289.5 -44.5s161.333 -70.5 223 -122.5s109.334 -113.167 143 -183.5c33.667 -70.333 50.5 -145.833 50.5 -226.5c0 -57.333 -9.33301 -110.333 -28 -159s-45 -91.5 -79 -128.5s-74.667 -68 -122 -93
s-99.666 -42.5 -157 -52.5v-16c75.333 -9.33301 141.833 -27.5 199.5 -54.5s106 -61 145 -102s68.333 -88.333 88 -142s29.5 -112.5 29.5 -176.5c0 -87.333 -19.333 -167.833 -58 -241.5s-93 -137.334 -163 -191.001s-153.167 -95.5 -249.5 -125.5
s-202.166 -45 -317.499 -45c-112.667 0 -216.167 14.833 -310.5 44.5s-175.666 71.334 -243.999 125.001s-122 117.667 -161 192s-59.5 156.166 -61.5 245.499h436z" />
    <glyph glyph-name="uniE142" unicode="&#x34;&#x20de;" horiz-adv-x="3912" 
d="M444 2880h3024c112.667 0 198.167 -29.167 256.5 -87.5s87.5 -143.833 87.5 -256.5v-3024c0 -112.667 -29.167 -198.167 -87.5 -256.5s-143.833 -87.5 -256.5 -87.5h-3024c-112.667 0 -198.167 29.167 -256.5 87.5s-87.5 143.833 -87.5 256.5v3024
c0 112.667 29.167 198.167 87.5 256.5s143.833 87.5 256.5 87.5zM425 -547h3061c12.667 0 22.667 3.66699 30 11s11 17.333 11 30v3060c0 12.667 -3.66699 22.667 -11 30s-17.333 11 -30 11h-3061c-12 0 -21.667 -3.66699 -29 -11s-11 -17.333 -11 -30v-3060
c0 -12.667 3.66699 -22.667 11 -30s17 -11 29 -11zM1075 360v341l855 1347h542v-1341h254v-347h-254v-360h-414v360h-983zM2066 707v869h-16l-539 -853v-16h555z" />
    <glyph glyph-name="uniE143" unicode="&#x35;&#x20de;" horiz-adv-x="3912" 
d="M444 2880h3024c112.667 0 198.167 -29.167 256.5 -87.5s87.5 -143.833 87.5 -256.5v-3024c0 -112.667 -29.167 -198.167 -87.5 -256.5s-143.833 -87.5 -256.5 -87.5h-3024c-112.667 0 -198.167 29.167 -256.5 87.5s-87.5 143.833 -87.5 256.5v3024
c0 112.667 29.167 198.167 87.5 256.5s143.833 87.5 256.5 87.5zM385 2554v-3060c0 -12.667 3.66699 -22.667 11 -30s17 -11 29 -11h3061c12.667 0 22.667 3.66699 30 11s11 17.333 11 30v3060c0 12.667 -3.66699 22.667 -11 30s-17.333 11 -30 11h-3061
c-12 0 -21.667 -3.66699 -29 -11s-11 -17.333 -11 -30zM1203 579h419.999c2.66699 -40 12.834 -76.333 30.501 -109s40.834 -60.667 69.501 -84s62 -41.5 100 -54.5s78.333 -19.5 121 -19.5c50.667 0 97.334 8.83301 140.001 26.5s79.334 42.334 110 74.001
c30.667 31.667 54.667 69.5 72 113.5s26 92.667 26 146c0 54 -8.83301 103.333 -26.5 148s-42.167 83 -73.5 115s-68.666 57 -112 75c-43.333 18 -90.666 27 -141.999 27c-30 0 -60 -3.16699 -90 -9.5s-58.333 -15.5 -85 -27.5s-51.167 -26.5 -73.5 -43.5
s-41.5 -36.167 -57.5 -57.5l-385 69l97 1080h1252v-354h-895l-53 -513h12c18 25.333 40.833 48.666 68.5 69.999s59.167 39.833 94.5 55.5s73.666 28 114.999 37s84.333 13.5 129 13.5c92 0 177.333 -16.667 256 -50s146.667 -80 204 -140s102 -131.167 134 -213.5
s48 -172.5 48 -270.5c0 -103.333 -18.333 -198.5 -55 -285.5s-88.667 -162 -156 -225s-148 -112.167 -242 -147.5s-198 -53 -312 -53c-106 0 -203.833 15 -293.5 45s-167.334 71.833 -233.001 125.5s-117.334 117.667 -155.001 192s-57.5 155.833 -59.5 244.5z" />
    <glyph glyph-name="uniE144" unicode="&#x36;&#x20de;" horiz-adv-x="3912" 
d="M444 2880h3024c112.667 0 198.167 -29.167 256.5 -87.5s87.5 -143.833 87.5 -256.5v-3024c0 -112.667 -29.167 -198.167 -87.5 -256.5s-143.833 -87.5 -256.5 -87.5h-3024c-112.667 0 -198.167 29.167 -256.5 87.5s-87.5 143.833 -87.5 256.5v3024
c0 112.667 29.167 198.167 87.5 256.5s143.833 87.5 256.5 87.5zM385 2554v-3060c0 -12.667 3.66699 -22.667 11 -30s17 -11 29 -11h3061c12.667 0 22.667 3.66699 30 11s11 17.333 11 30v3060c0 12.667 -3.66699 22.667 -11 30s-17.333 11 -30 11h-3061
c-12 0 -21.667 -3.66699 -29 -11s-11 -17.333 -11 -30zM1144 978c0.666992 173.333 20.6719 328.332 60.0049 464.999s95.166 252.334 167.499 347.001s159.666 167 261.999 217s216.833 75 343.5 75c102 0 195.5 -15.5 280.5 -46.5s159.167 -73.5 222.5 -127.5
s114.5 -118 153.5 -192s63.5 -154 73.5 -240h-427c-16.667 75.333 -51.667 133.333 -105 174s-119.333 61 -198 61c-66.667 0 -125.334 -15 -176.001 -45s-93.167 -73.167 -127.5 -129.5s-60.333 -124.833 -78 -205.5s-26.834 -171.667 -27.501 -273h14
c23.333 45.333 52.666 85.833 87.999 121.5s75.333 66 120 91s93.167 44 145.5 57s106.5 19.5 162.5 19.5c90.667 0 174.5 -16.5 251.5 -49.5s143.667 -78.667 200 -137s100.166 -128 131.499 -209s47 -169.5 47 -265.5c0 -104 -18.5 -199.833 -55.5 -287.5
s-89.167 -163.167 -156.5 -226.5s-148 -112.666 -242 -147.999s-198 -52.666 -312 -51.999c-70 0 -138.833 7.66699 -206.5 23s-131.667 39.333 -192 72s-116.166 75.167 -167.499 127.5s-95.5 115.666 -132.5 189.999s-66.167 160.666 -87.5 258.999s-32 209.833 -32 334.5
zM1612 672.999c0 -50 8.83301 -96.998 26.5 -140.998s42 -82.167 73 -114.5s67.667 -58 110 -77s88.5 -28.5 138.5 -28.5s96.333 9.16699 139 27.5s79.5 43.833 110.5 76.5s55.167 71 72.5 115s26 91.667 26 143c0 50.667 -8.5 98 -25.5 142s-40.833 82.167 -71.5 114.5
s-67.167 57.666 -109.5 75.999s-88.5 27.5 -138.5 27.5s-96.333 -9.5 -139 -28.5s-79.667 -44.833 -111 -77.5s-56 -70.834 -74 -114.501s-27 -90.5 -27 -140.5z" />
    <glyph glyph-name="uniE145" unicode="&#x37;&#x20de;" horiz-adv-x="3912" 
d="M100 -488v3024c0 112.667 29.167 198.167 87.5 256.5s143.833 87.5 256.5 87.5h3024c112.667 0 198.167 -29.167 256.5 -87.5s87.5 -143.833 87.5 -256.5v-3024c0 -112.667 -29.167 -198.167 -87.5 -256.5s-143.833 -87.5 -256.5 -87.5h-3024
c-112.667 0 -198.167 29.167 -256.5 87.5s-87.5 143.833 -87.5 256.5zM385 -506c0 -12.667 3.66699 -22.667 11 -30s17 -11 29 -11h3061c12.667 0 22.667 3.66699 30 11s11 17.333 11 30v3060c0 12.667 -3.66699 22.667 -11 30s-17.333 11 -30 11h-3061
c-12 0 -21.667 -3.66699 -29 -11s-11 -17.333 -11 -30v-3060zM1277 2048h1437v-359l-850 -1689h-447l849 1680v14h-989v354z" />
    <glyph glyph-name="uniE146" unicode="&#x38;&#x20de;" horiz-adv-x="3912" 
d="M444 2880h3024c112.667 0 198.167 -29.167 256.5 -87.5s87.5 -143.833 87.5 -256.5v-3024c0 -112.667 -29.167 -198.167 -87.5 -256.5s-143.833 -87.5 -256.5 -87.5h-3024c-112.667 0 -198.167 29.167 -256.5 87.5s-87.5 143.833 -87.5 256.5v3024
c0 112.667 29.167 198.167 87.5 256.5s143.833 87.5 256.5 87.5zM425 -547h3061c12.667 0 22.667 3.66699 30 11s11 17.333 11 30v3060c0 12.667 -3.66699 22.667 -11 30s-17.333 11 -30 11h-3061c-12 0 -21.667 -3.66699 -29 -11s-11 -17.333 -11 -30v-3060
c0 -12.667 3.66699 -22.667 11 -30s17 -11 29 -11zM1162 551c0 64 11.3301 124.499 33.9971 181.499s54 107.833 94 152.5s87 82 141 112s112.333 50 175 60v14c-54.667 11.333 -104.5 30.833 -149.5 58.5s-83.833 61.5 -116.5 101.5s-57.834 85 -75.501 135
s-26.5 103 -26.5 159c0 79.333 17.833 152.666 53.5 219.999s85.5 125.5 149.5 174.5s139.833 87.333 227.5 115s183.5 41.5 287.5 41.5c103.333 0 198.833 -13.833 286.5 -41.5s163.5 -66 227.5 -115s114.167 -107.167 150.5 -174.5s54.5 -140.666 54.5 -219.999
c0 -56 -9.16699 -109.167 -27.5 -159.5s-43.833 -95.5 -76.5 -135.5s-71.5 -73.667 -116.5 -101s-94.167 -46.666 -147.5 -57.999v-14c61.333 -10 119 -30 173 -60s101 -67.333 141 -112s71.667 -95.5 95 -152.5s35 -117.5 35 -181.5c0 -82.667 -19.833 -159.5 -59.5 -230.5
s-94.667 -132.167 -165 -183.5s-154.166 -91.666 -251.5 -120.999c-97.333 -29.333 -203.666 -44 -318.999 -44s-221.666 14.667 -318.999 44s-181.166 69.666 -251.499 120.999s-125.166 112.5 -164.499 183.5s-59 147.833 -59 230.5zM1612 584.999
c0 -43.333 8.33398 -82.999 25.001 -118.999s40 -67 70 -93s66.167 -46.333 108.5 -61s89.166 -22 140.499 -22s98.166 7.16699 140.499 21.5s78.5 34.5 108.5 60.5s53.333 57.167 70 93.5s25 76.166 25 119.499c0 44 -8.66699 84.667 -26 122s-41.333 69.5 -72 96.5
s-67 48.167 -109 63.5s-87.667 23 -137 23c-50 0 -96 -7.66699 -138 -23s-78.167 -36.5 -108.5 -63.5s-54.166 -59.167 -71.499 -96.5s-26 -78 -26 -122zM1660 1480c0 -40.667 7.33301 -77.834 22 -111.501s35 -62.667 61 -87s57.167 -43.166 93.5 -56.499
s76.166 -20 119.499 -20s83 6.66699 119 20s67.167 32.166 93.5 56.499s46.833 53.333 61.5 87s22 70.834 22 111.501c0 40 -7.33301 76.5 -22 109.5s-35 61.333 -61 85s-57.167 42.167 -93.5 55.5s-76.166 20 -119.499 20c-44 0 -84.167 -6.5 -120.5 -19.5
s-67.5 -31.5 -93.5 -55.5s-46.167 -52.5 -60.5 -85.5s-21.5 -69.5 -21.5 -109.5z" />
    <glyph glyph-name="uniE147" unicode="&#x39;&#x20de;" horiz-adv-x="3912" 
d="M444 2880h3024c112.667 0 198.167 -29.167 256.5 -87.5s87.5 -143.833 87.5 -256.5v-3024c0 -112.667 -29.167 -198.167 -87.5 -256.5s-143.833 -87.5 -256.5 -87.5h-3024c-112.667 0 -198.167 29.167 -256.5 87.5s-87.5 143.833 -87.5 256.5v3024
c0 112.667 29.167 198.167 87.5 256.5s143.833 87.5 256.5 87.5zM385 2554v-3060c0 -12.667 3.66699 -22.667 11 -30s17 -11 29 -11h3061c12.667 0 22.667 3.66699 30 11s11 17.333 11 30v3060c0 12.667 -3.66699 22.667 -11 30s-17.333 11 -30 11h-3061
c-12 0 -21.667 -3.66699 -29 -11s-11 -17.333 -11 -30zM1173 1368c-0.666992 104 17.333 199.834 54 287.501s88.667 163.167 156 226.5s148 112.666 242 147.999s198.333 52.666 313 52c70 0 138.833 -7.5 206.5 -22.5s131.834 -39 192.5 -72
c60.667 -33 116.5 -75.5 167.5 -127.5s95.167 -115.167 132.5 -189.5s66.5 -160.666 87.5 -258.999s31.5 -209.833 31.5 -334.5c0 -174 -19.667 -329.333 -59 -466s-95.166 -252.334 -167.5 -347.001c-72.333 -94.667 -159.833 -167 -262.5 -217s-217.334 -75 -344 -75
c-102.667 0 -196.5 15.333 -281.5 46s-159 73.167 -222 127.5s-114 118.5 -153 192.5s-63.5 154 -73.5 240h427c16.667 -74.667 51.667 -132.5 105 -173.5s119.333 -61.5 198 -61.5c66.667 0 125.5 15 176.5 45s93.667 73.167 128 129.5s60.333 124.833 78 205.5
s26.5 171.667 26.5 273h-14c-22.667 -44.667 -51.834 -85 -87.5 -121c-35.667 -36 -75.834 -66.333 -120.5 -91c-44.667 -24.667 -93.167 -43.667 -145.5 -57s-106.5 -20 -162.5 -20c-90.667 0 -174.5 16.5 -251.5 49.5s-143.5 78.667 -199.5 137s-99.833 128 -131.5 209
s-47.167 169.5 -46.5 265.5zM1593 1380c-0.666992 -50.667 7.5 -97.8359 24.5 -141.503s40.833 -81.667 71.5 -114s67.167 -57.666 109.5 -75.999s88.5 -27.5 138.5 -27.5c49.333 0 95.333 9.5 138 28.5s79.834 44.833 111.5 77.5c31.667 32.667 56.5 70.834 74.5 114.501
s27.333 90.5 28 140.5c-0.666992 49.333 -9.83398 95.833 -27.501 139.5s-42 81.834 -73 114.501s-67.5 58.5 -109.5 77.5s-88 28.5 -138 28.5s-96.5 -9.16699 -139.5 -27.5s-80 -43.833 -111 -76.5s-55.167 -71 -72.5 -115s-25.666 -91.667 -24.999 -143z" />
    <glyph glyph-name="uniE148" unicode="&#x20de;&#xe06b;" horiz-adv-x="3912" 
d="M444 2880h3024c112.667 0 198.167 -29.167 256.5 -87.5s87.5 -143.833 87.5 -256.5v-3024c0 -112.667 -29.167 -198.167 -87.5 -256.5s-143.833 -87.5 -256.5 -87.5h-3024c-112.667 0 -198.167 29.167 -256.5 87.5s-87.5 143.833 -87.5 256.5v3024
c0 112.667 29.167 198.167 87.5 256.5s143.833 87.5 256.5 87.5zM385 2554v-3060c0 -12.667 3.66699 -22.667 11 -30s17 -11 29 -11h3061c12.667 0 22.667 3.66699 30 11s11 17.333 11 30v3060c0 12.667 -3.66699 22.667 -11 30s-17.333 11 -30 11h-3061
c-12 0 -21.667 -3.66699 -29 -11s-11 -17.333 -11 -30zM1129 1024c0 168 19.002 317.332 57.002 447.999s92.667 240.834 164 330.501s158 158 260 205s217.333 70.5 346 70.5c128 0 243.167 -23.5 345.5 -70.5s189.166 -115.5 260.499 -205.5s126 -200.333 164 -331
s57 -279.667 57 -447c0 -168.667 -19 -319.167 -57 -451.5s-92.5 -244 -163.5 -335s-157.667 -160.5 -260 -208.5s-217.833 -72 -346.5 -72s-244.334 24.167 -347.001 72.5s-189.667 118 -261 209s-125.833 202.667 -163.5 335s-56.167 282.5 -55.5 450.5zM1956 315.999
c58.667 0 111.666 14.834 159 44.501c47.333 29.667 87.833 74 121.5 133s59.5 132.667 77.5 221s27 191.5 27 309.5c0 90.667 -5.5 172.167 -16.5 244.5s-26.833 136.166 -47.5 191.499l-537 -1055c60.667 -59.333 132.667 -89 216 -89zM1630 592l532.002 1050
c-56.667 54 -125.334 81 -206.001 81c-58.667 0 -111.667 -14.667 -159 -44s-87.833 -73.166 -121.5 -131.499s-59.667 -131.166 -78 -218.499s-27.5 -189 -27.5 -305c0 -89.333 5.16699 -169.833 15.5 -241.5s25.166 -135.167 44.499 -190.5z" />
    <glyph glyph-name="uniE149" unicode="&#x20de;&#xe06c;" horiz-adv-x="3912" 
d="M444 2880h3024c112.667 0 198.167 -29.167 256.5 -87.5s87.5 -143.833 87.5 -256.5v-3024c0 -112.667 -29.167 -198.167 -87.5 -256.5s-143.833 -87.5 -256.5 -87.5h-3024c-112.667 0 -198.167 29.167 -256.5 87.5s-87.5 143.833 -87.5 256.5v3024
c0 112.667 29.167 198.167 87.5 256.5s143.833 87.5 256.5 87.5zM425 -547h3061c12.667 0 22.667 3.66699 30 11s11 17.333 11 30v3060c0 12.667 -3.66699 22.667 -11 30s-17.333 11 -30 11h-3061c-12 0 -21.667 -3.66699 -29 -11s-11 -17.333 -11 -30v-3060
c0 -12.667 3.66699 -22.667 11 -30s17 -11 29 -11zM1388 1366l-0.000976562 344c66 0 126 11.667 180 35s100.333 52.333 139 87s68.834 71.5 90.501 110.5s33.167 74.167 34.5 105.5h424v-2048h-432v1518h-19c-10.667 -16.667 -27.834 -34 -51.501 -52
s-53.167 -34.5 -88.5 -49.5s-76.166 -27.167 -122.499 -36.5s-97.833 -14 -154.5 -14z" />
    <glyph glyph-name="uniE14A" unicode="&#x20de;&#xe06d;" horiz-adv-x="3912" 
d="M444 2880h3024c112.667 0 198.167 -29.167 256.5 -87.5s87.5 -143.833 87.5 -256.5v-3024c0 -112.667 -29.167 -198.167 -87.5 -256.5s-143.833 -87.5 -256.5 -87.5h-3024c-112.667 0 -198.167 29.167 -256.5 87.5s-87.5 143.833 -87.5 256.5v3024
c0 112.667 29.167 198.167 87.5 256.5s143.833 87.5 256.5 87.5zM385 2554v-3060c0 -12.667 3.66699 -22.667 11 -30s17 -11 29 -11h3061c12.667 0 22.667 3.66699 30 11s11 17.333 11 30v3060c0 12.667 -3.66699 22.667 -11 30s-17.333 11 -30 11h-3061
c-12 0 -21.667 -3.66699 -29 -11s-11 -17.333 -11 -30zM1160 579h436.997c2.66699 -38.667 13.334 -73.334 32.001 -104.001s43.334 -56.834 74.001 -78.501s66.167 -38.334 106.5 -50.001s83.833 -17.5 130.5 -17.5c49.333 0 94.666 6.5 135.999 19.5
s76.833 31.833 106.5 56.5s52.834 54.334 69.5 89.001c16.667 34.667 25 74 25 118c0 42 -8.16699 81 -24.5 117s-40.666 67.167 -73 93.5c-32.333 26.333 -72.5 47 -120.5 62s-103.667 22.5 -167 22.5h-221v301l454 472v14h-862v354h1394v-312l-550 -556v-16
c108 -10.667 201 -34 279 -70s142.333 -80.5 193 -133.5s88.167 -112.167 112.5 -177.5s36.5 -132 36.5 -200c0 -90.667 -20 -173.667 -60 -249s-95.167 -139.666 -165.5 -192.999s-153.666 -94.833 -250 -124.5c-96.333 -29.667 -200.833 -44.5 -313.5 -44.5
s-216 14.5 -310 43.5s-175.167 70.167 -243.5 123.5s-122.166 117.333 -161.499 192s-60.666 157.334 -63.999 248.001z" />
    <glyph glyph-name="uniE14B" unicode="&#x20de;&#xe06e;" horiz-adv-x="3912" 
d="M444 2880h3024c112.667 0 198.167 -29.167 256.5 -87.5s87.5 -143.833 87.5 -256.5v-3024c0 -112.667 -29.167 -198.167 -87.5 -256.5s-143.833 -87.5 -256.5 -87.5h-3024c-112.667 0 -198.167 29.167 -256.5 87.5s-87.5 143.833 -87.5 256.5v3024
c0 112.667 29.167 198.167 87.5 256.5s143.833 87.5 256.5 87.5zM425 -547h3061c12.667 0 22.667 3.66699 30 11s11 17.333 11 30v3060c0 12.667 -3.66699 22.667 -11 30s-17.333 11 -30 11h-3061c-12 0 -21.667 -3.66699 -29 -11s-11 -17.333 -11 -30v-3060
c0 -12.667 3.66699 -22.667 11 -30s17 -11 29 -11zM1083 701l765 1347h417l-747 -1325v-16h560v573h395v-573h261v-347h-261v-360h-407v360h-983v341z" />
    <glyph glyph-name="uniE14C" unicode="&#x20de;&#xe06f;" horiz-adv-x="3912" 
d="M444 2880h3024c112.667 0 198.167 -29.167 256.5 -87.5s87.5 -143.833 87.5 -256.5v-3024c0 -112.667 -29.167 -198.167 -87.5 -256.5s-143.833 -87.5 -256.5 -87.5h-3024c-112.667 0 -198.167 29.167 -256.5 87.5s-87.5 143.833 -87.5 256.5v3024
c0 112.667 29.167 198.167 87.5 256.5s143.833 87.5 256.5 87.5zM385 2554v-3060c0 -12.667 3.66699 -22.667 11 -30s17 -11 29 -11h3061c12.667 0 22.667 3.66699 30 11s11 17.333 11 30v3060c0 12.667 -3.66699 22.667 -11 30s-17.333 11 -30 11h-3061
c-12 0 -21.667 -3.66699 -29 -11s-11 -17.333 -11 -30zM1214 665c0 54 5.33203 107.501 15.999 160.501s26.834 107.167 48.501 162.5s48.834 112.5 81.501 171.5s71.334 121.167 116.001 186.5l474 702h436l-497 -728c25.333 5.33301 51.5 10.166 78.5 14.499
s54.5 6.5 82.5 6.5c94 0 180.667 -16.333 260 -49s147.833 -78.334 205.5 -137.001s102.5 -128.834 134.5 -210.501s48 -171.834 48 -270.501c0 -105.333 -18.333 -201.166 -55 -287.499s-87.667 -160.166 -153 -221.499s-143 -108.833 -233 -142.5s-188 -50.5 -294 -50.5
c-68 0 -133.833 7 -197.5 21s-123.334 34.5 -179.001 61.5s-106.334 60.333 -152.001 100s-85 85.167 -118 136.5s-58.5 108.333 -76.5 171s-26.667 130.334 -26 203.001zM1961 310.001c47.333 0 90.666 8.66797 129.999 26.001s73.166 41.5 101.5 72.5
c28.333 31 50.333 67.833 66 110.5s23.5 89.334 23.5 140.001c0 51.333 -8 98.333 -24 141s-38.167 79.5 -66.5 110.5s-62.166 55 -101.499 72s-82.333 25.5 -129 25.5c-48 0 -91.833 -8.5 -131.5 -25.5s-73.834 -40.833 -102.501 -71.5s-50.834 -67.334 -66.501 -110.001
s-23.5 -89.334 -23.5 -140.001c0 -51.333 7.83301 -98.5 23.5 -141.5s37.834 -80 66.501 -111s62.834 -55.167 102.501 -72.5s83.5 -26 131.5 -26z" />
    <glyph glyph-name="uniE14D" unicode="&#x20de;&#xe070;" horiz-adv-x="3912" 
d="M444 2880h3024c112.667 0 198.167 -29.167 256.5 -87.5s87.5 -143.833 87.5 -256.5v-3024c0 -112.667 -29.167 -198.167 -87.5 -256.5s-143.833 -87.5 -256.5 -87.5h-3024c-112.667 0 -198.167 29.167 -256.5 87.5s-87.5 143.833 -87.5 256.5v3024
c0 112.667 29.167 198.167 87.5 256.5s143.833 87.5 256.5 87.5zM425 -547h3061c12.667 0 22.667 3.66699 30 11s11 17.333 11 30v3060c0 12.667 -3.66699 22.667 -11 30s-17.333 11 -30 11h-3061c-12 0 -21.667 -3.66699 -29 -11s-11 -17.333 -11 -30v-3060
c0 -12.667 3.66699 -22.667 11 -30s17 -11 29 -11zM1949 2076c102 0 198.333 -15.501 289 -46.501s170.334 -76 239 -135c68.667 -59 122.834 -131.5 162.5 -217.5c39.667 -86 59.5 -184 59.5 -294c-0.666992 -54 -6.5 -107.5 -17.5 -160.5s-27.333 -107.167 -49 -162.5
s-48.834 -112.5 -81.5 -171.5c-32.667 -59 -71 -121.167 -115 -186.5l-474 -702h-435l496 730c-25.333 -6.66699 -51.333 -12.167 -78 -16.5s-54.334 -6.5 -83.001 -6.5c-94.667 0 -181.667 16.333 -261 49s-147.666 78.334 -204.999 137.001s-102 128.834 -134 210.501
s-48 171.834 -48 270.501c0 105.333 18.333 201.166 55 287.499s87.5 160.166 152.5 221.499s142.5 108.833 232.5 142.5s188.333 50.5 295 50.5zM1630 1389c0 -51.333 7.83301 -98.334 23.5 -141.001s37.667 -79.5 66 -110.5s62.166 -55 101.499 -72
s82.666 -25.5 129.999 -25.5s90.833 8.5 130.5 25.5s73.834 40.833 102.5 71.5c28.667 30.667 51 67.334 67 110.001s24 89.334 24 140.001c0 51.333 -8 98.5 -24 141.5s-38.333 80 -67 111s-62.834 55.167 -102.5 72.5c-39.667 17.333 -83.167 26 -130.5 26
s-90.666 -8.66699 -129.999 -26s-73.166 -41.5 -101.499 -72.5s-50.333 -67.833 -66 -110.5s-23.5 -89.334 -23.5 -140.001z" />
    <glyph glyph-name="uniE14E" unicode="&#x21;&#x20de;" horiz-adv-x="3912" 
d="M444 2880h3024c112.667 0 198.167 -29.167 256.5 -87.5s87.5 -143.833 87.5 -256.5v-3024c0 -112.667 -29.167 -198.167 -87.5 -256.5s-143.833 -87.5 -256.5 -87.5h-3024c-112.667 0 -198.167 29.167 -256.5 87.5s-87.5 143.833 -87.5 256.5v3024
c0 112.667 29.167 198.167 87.5 256.5s143.833 87.5 256.5 87.5zM385 2554v-3060c0 -12.667 3.66699 -22.667 11 -30s17 -11 29 -11h3061c12.667 0 22.667 3.66699 30 11s11 17.333 11 30v3060c0 12.667 -3.66699 22.667 -11 30s-17.333 11 -30 11h-3061
c-12 0 -21.667 -3.66699 -29 -11s-11 -17.333 -11 -30zM2178 2048l-39 -1434h-366l-40 1434h445zM1716 214c0 32.667 6.16699 63.5 18.5 92.5s29.5 54.167 51.5 75.5s47.667 38.333 77 51s60.333 19 93 19c32 0 62.5 -6.33301 91.5 -19s54.5 -29.667 76.5 -51
s39.5 -46.5 52.5 -75.5s19.5 -59.833 19.5 -92.5c0 -33.333 -6.5 -64.5 -19.5 -93.5s-30.5 -54.333 -52.5 -76s-47.5 -38.834 -76.5 -51.501s-59.5 -19 -91.5 -19c-32.667 0 -63.667 6.33301 -93 19s-55 29.834 -77 51.501s-39.167 47 -51.5 76s-18.5 60.167 -18.5 93.5z
" />
    <glyph glyph-name="uniE14F" unicode="&#x3f;&#x20de;" horiz-adv-x="3912" 
d="M444 2880h3024c112.667 0 198.167 -29.167 256.5 -87.5s87.5 -143.833 87.5 -256.5v-3024c0 -112.667 -29.167 -198.167 -87.5 -256.5s-143.833 -87.5 -256.5 -87.5h-3024c-112.667 0 -198.167 29.167 -256.5 87.5s-87.5 143.833 -87.5 256.5v3024
c0 112.667 29.167 198.167 87.5 256.5s143.833 87.5 256.5 87.5zM425 -547h3061c12.667 0 22.667 3.66699 30 11s11 17.333 11 30v3060c0 12.667 -3.66699 22.667 -11 30s-17.333 11 -30 11h-3061c-12 0 -21.667 -3.66699 -29 -11s-11 -17.333 -11 -30v-3060
c0 -12.667 3.66699 -22.667 11 -30s17 -11 29 -11zM1310 1486c2 100 20.999 186.998 56.999 260.998s84.167 135.333 144.5 184s130.5 85 210.5 109s165.333 36 256 36c99.333 0 190.5 -12.5 273.5 -37.5s154.5 -61.167 214.5 -108.5s106.833 -105.333 140.5 -174
s50.5 -146.667 50.5 -234c0 -58.667 -7.33301 -112.167 -22 -160.5s-35.5 -92.5 -62.5 -132.5s-59.5 -76.333 -97.5 -109s-80.333 -63 -127 -91c-39.333 -24 -73.333 -48.167 -102 -72.5s-52.5 -51.166 -71.5 -80.499s-33 -62.5 -42 -99.5s-13.833 -79.833 -14.5 -128.5v-34
h-379v34c0 87.333 5.83301 160.833 17.5 220.5s28.667 110.5 51 152.5s49.833 77.5 82.5 106.5s70 56.833 112 83.5c30.667 19.333 59.334 39.5 86.001 60.5s49.667 43.5 69 67.5s34.666 49.833 46 77.5c11.333 27.667 17 57.834 17 90.501
c0 34.667 -6.33301 66.167 -19 94.5s-30 52.5 -52 72.5s-47.833 35.333 -77.5 46s-61.5 16 -95.5 16c-32.667 0 -64.167 -5.33301 -94.5 -16s-57.333 -26.5 -81 -47.5s-43 -47.167 -58 -78.5s-23.167 -67.333 -24.5 -108h-408zM1936 451.998c32 0 62.5 -6.33301 91.5 -19
s54.5 -29.667 76.5 -51s39.5 -46.5 52.5 -75.5s19.5 -59.833 19.5 -92.5c0 -33.333 -6.5 -64.5 -19.5 -93.5s-30.5 -54.333 -52.5 -76s-47.5 -38.834 -76.5 -51.501s-59.5 -19 -91.5 -19c-32.667 0 -63.667 6.33301 -93 19s-55 29.834 -77 51.501s-39.167 47 -51.5 76
s-18.5 60.167 -18.5 93.5c0 32.667 6.16699 63.5 18.5 92.5s29.5 54.167 51.5 75.5s47.667 38.333 77 51s60.333 19 93 19z" />
    <glyph glyph-name="uniE150" unicode="&#x23;&#x20de;" horiz-adv-x="3912" 
d="M444 2880h3024c112.667 0 198.167 -29.167 256.5 -87.5s87.5 -143.833 87.5 -256.5v-3024c0 -112.667 -29.167 -198.167 -87.5 -256.5s-143.833 -87.5 -256.5 -87.5h-3024c-112.667 0 -198.167 29.167 -256.5 87.5s-87.5 143.833 -87.5 256.5v3024
c0 112.667 29.167 198.167 87.5 256.5s143.833 87.5 256.5 87.5zM425 -547h3061c12.667 0 22.667 3.66699 30 11s11 17.333 11 30v3060c0 12.667 -3.66699 22.667 -11 30s-17.333 11 -30 11h-3061c-12 0 -21.667 -3.66699 -29 -11s-11 -17.333 -11 -30v-3060
c0 -12.667 3.66699 -22.667 11 -30s17 -11 29 -11zM1071 508l53 320h280l64 392h-280l54 320h279l83 508h320l-83 -508h400l83 508h320l-83 -508h281l-54 -320h-280l-64 -392h280l-53 -320h-280l-83 -508h-320l83 508h-400l-83 -508h-320l83 508h-280zM2124 828l64 392h-400
l-64 -392h400z" />
    <glyph glyph-name="uniE151" unicode="&#x2d;&#x20de;" horiz-adv-x="3912" 
d="M100 -488v3024c0 112.667 29.167 198.167 87.5 256.5s143.833 87.5 256.5 87.5h3024c112.667 0 198.167 -29.167 256.5 -87.5s87.5 -143.833 87.5 -256.5v-3024c0 -112.667 -29.167 -198.167 -87.5 -256.5s-143.833 -87.5 -256.5 -87.5h-3024
c-112.667 0 -198.167 29.167 -256.5 87.5s-87.5 143.833 -87.5 256.5zM385 -506c0 -12.667 3.66699 -22.667 11 -30s17 -11 29 -11h3061c12.667 0 22.667 3.66699 30 11s11 17.333 11 30v3060c0 12.667 -3.66699 22.667 -11 30s-17.333 11 -30 11h-3061
c-12 0 -21.667 -3.66699 -29 -11s-11 -17.333 -11 -30v-3060zM2423 1193v-338h-934v338h934z" />
    <glyph glyph-name="uniE152" unicode="&#x3c;&#x20de;" horiz-adv-x="3912" 
d="M444 2880h3024c112.667 0 198.167 -29.167 256.5 -87.5s87.5 -143.833 87.5 -256.5v-3024c0 -112.667 -29.167 -198.167 -87.5 -256.5s-143.833 -87.5 -256.5 -87.5h-3024c-112.667 0 -198.167 29.167 -256.5 87.5s-87.5 143.833 -87.5 256.5v3024
c0 112.667 29.167 198.167 87.5 256.5s143.833 87.5 256.5 87.5zM425 -547h3061c12.667 0 22.667 3.66699 30 11s11 17.333 11 30v3060c0 12.667 -3.66699 22.667 -11 30s-17.333 11 -30 11h-3061c-12 0 -21.667 -3.66699 -29 -11s-11 -17.333 -11 -30v-3060
c0 -12.667 3.66699 -22.667 11 -30s17 -11 29 -11zM2620 1807v-405l-951 -382v-18l951 -382v-405l-1408 620v352z" />
    <glyph glyph-name="uniE153" unicode="&#x3e;&#x20de;" horiz-adv-x="3912" 
d="M444 2880h3024c112.667 0 198.167 -29.167 256.5 -87.5s87.5 -143.833 87.5 -256.5v-3024c0 -112.667 -29.167 -198.167 -87.5 -256.5s-143.833 -87.5 -256.5 -87.5h-3024c-112.667 0 -198.167 29.167 -256.5 87.5s-87.5 143.833 -87.5 256.5v3024
c0 112.667 29.167 198.167 87.5 256.5s143.833 87.5 256.5 87.5zM385 -506c0 -12.667 3.66699 -22.667 11 -30s17 -11 29 -11h3061c12.667 0 22.667 3.66699 30 11s11 17.333 11 30v3060c0 12.667 -3.66699 22.667 -11 30s-17.333 11 -30 11h-3061
c-12 0 -21.667 -3.66699 -29 -11s-11 -17.333 -11 -30v-3060zM1292 620l951 382v18l-951 382v405l1408 -620v-352l-1408 -620v405z" />
    <glyph glyph-name="uniE154" unicode="&#x3d;&#x20de;" horiz-adv-x="3912" 
d="M444 2880h3024c112.667 0 198.167 -29.167 256.5 -87.5s87.5 -143.833 87.5 -256.5v-3024c0 -112.667 -29.167 -198.167 -87.5 -256.5s-143.833 -87.5 -256.5 -87.5h-3024c-112.667 0 -198.167 29.167 -256.5 87.5s-87.5 143.833 -87.5 256.5v3024
c0 112.667 29.167 198.167 87.5 256.5s143.833 87.5 256.5 87.5zM385 -506c0 -12.667 3.66699 -22.667 11 -30s17 -11 29 -11h3061c12.667 0 22.667 3.66699 30 11s11 17.333 11 30v3060c0 12.667 -3.66699 22.667 -11 30s-17.333 11 -30 11h-3061
c-12 0 -21.667 -3.66699 -29 -11s-11 -17.333 -11 -30v-3060zM2646 1534v-355h-1381v355h1381zM2646 870v-355h-1381v355h1381z" />
    <glyph glyph-name="uniE155" unicode="&#x2b;&#x20de;" horiz-adv-x="3912" 
d="M444 2880h3024c112.667 0 198.167 -29.167 256.5 -87.5s87.5 -143.833 87.5 -256.5v-3024c0 -112.667 -29.167 -198.167 -87.5 -256.5s-143.833 -87.5 -256.5 -87.5h-3024c-112.667 0 -198.167 29.167 -256.5 87.5s-87.5 143.833 -87.5 256.5v3024
c0 112.667 29.167 198.167 87.5 256.5s143.833 87.5 256.5 87.5zM425 -547h3061c12.667 0 22.667 3.66699 30 11s11 17.333 11 30v3060c0 12.667 -3.66699 22.667 -11 30s-17.333 11 -30 11h-3061c-12 0 -21.667 -3.66699 -29 -11s-11 -17.333 -11 -30v-3060
c0 -12.667 3.66699 -22.667 11 -30s17 -11 29 -11zM1777 1199v529h358v-529h529v-358h-529v-529h-358v529h-529v358h529z" />
    <glyph glyph-name="uniE156" unicode="&#x20de;&#x2212;" horiz-adv-x="3912" 
d="M100 -488v3024c0 112.667 29.167 198.167 87.5 256.5s143.833 87.5 256.5 87.5h3024c112.667 0 198.167 -29.167 256.5 -87.5s87.5 -143.833 87.5 -256.5v-3024c0 -112.667 -29.167 -198.167 -87.5 -256.5s-143.833 -87.5 -256.5 -87.5h-3024
c-112.667 0 -198.167 29.167 -256.5 87.5s-87.5 143.833 -87.5 256.5zM385 -506c0 -12.667 3.66699 -22.667 11 -30s17 -11 29 -11h3061c12.667 0 22.667 3.66699 30 11s11 17.333 11 30v3060c0 12.667 -3.66699 22.667 -11 30s-17.333 11 -30 11h-3061
c-12 0 -21.667 -3.66699 -29 -11s-11 -17.333 -11 -30v-3060zM2656 1203v-358h-1400v358h1400z" />
    <glyph glyph-name="uniE157" unicode="&#xd7;&#x20de;" horiz-adv-x="3912" 
d="M444 2880h3024c112.667 0 198.167 -29.167 256.5 -87.5s87.5 -143.833 87.5 -256.5v-3024c0 -112.667 -29.167 -198.167 -87.5 -256.5s-143.833 -87.5 -256.5 -87.5h-3024c-112.667 0 -198.167 29.167 -256.5 87.5s-87.5 143.833 -87.5 256.5v3024
c0 112.667 29.167 198.167 87.5 256.5s143.833 87.5 256.5 87.5zM425 -547h3061c12.667 0 22.667 3.66699 30 11s11 17.333 11 30v3060c0 12.667 -3.66699 22.667 -11 30s-17.333 11 -30 11h-3061c-12 0 -21.667 -3.66699 -29 -11s-11 -17.333 -11 -30v-3060
c0 -12.667 3.66699 -22.667 11 -30s17 -11 29 -11zM1692 1012l-465 465l262 265l467 -466l466 466l263 -265l-466 -465l466 -465l-263 -263l-466 466l-467 -466l-262 263z" />
    <glyph glyph-name="uniE158" unicode="&#xf7;&#x20de;" horiz-adv-x="3912" 
d="M444 2880h3024c112.667 0 198.167 -29.167 256.5 -87.5s87.5 -143.833 87.5 -256.5v-3024c0 -112.667 -29.167 -198.167 -87.5 -256.5s-143.833 -87.5 -256.5 -87.5h-3024c-112.667 0 -198.167 29.167 -256.5 87.5s-87.5 143.833 -87.5 256.5v3024
c0 112.667 29.167 198.167 87.5 256.5s143.833 87.5 256.5 87.5zM425 -547h3061c12.667 0 22.667 3.66699 30 11s11 17.333 11 30v3060c0 12.667 -3.66699 22.667 -11 30s-17.333 11 -30 11h-3061c-12 0 -21.667 -3.66699 -29 -11s-11 -17.333 -11 -30v-3060
c0 -12.667 3.66699 -22.667 11 -30s17 -11 29 -11zM2656 1194v-339h-1400v339h1400zM1713 1583c0 33.333 6.33301 64.333 19 93s30 53.834 52 75.501s47.833 38.667 77.5 51s61.167 18.5 94.5 18.5s64.333 -6.16699 93 -18.5s53.834 -29.333 75.5 -51
c21.667 -21.667 38.667 -46.834 51 -75.501s18.5 -59.667 18.5 -93s-6.16699 -64.833 -18.5 -94.5s-29.333 -55.5 -51 -77.5s-46.834 -39.333 -75.5 -52c-28.667 -12.667 -59.667 -19 -93 -19s-64.833 6.33301 -94.5 19s-55.5 30 -77.5 52s-39.333 47.833 -52 77.5
s-19 61.167 -19 94.5zM1956 708c32.667 0 63.5 -6.33301 92.5 -19s54.167 -29.667 75.5 -51s38.333 -46.5 51 -75.5s19 -59.833 19 -92.5c0 -34 -6.33301 -65.667 -19 -95s-29.667 -55 -51 -77s-46.5 -39.333 -75.5 -52s-59.833 -19 -92.5 -19c-34 0 -65.667 6.33301 -95 19
s-55 30 -77 52s-39.333 47.667 -52 77s-19 61 -19 95c0 32.667 6.33301 63.5 19 92.5s30 54.167 52 75.5s47.667 38.333 77 51s61 19 95 19z" />
    <glyph glyph-name="uniE159" unicode="&#x20de;&#x2191;" horiz-adv-x="3912" 
d="M100 -488v3024c0 112.667 29.167 198.167 87.5 256.5s143.833 87.5 256.5 87.5h3024c112.667 0 198.167 -29.167 256.5 -87.5s87.5 -143.833 87.5 -256.5v-3024c0 -112.667 -29.167 -198.167 -87.5 -256.5s-143.833 -87.5 -256.5 -87.5h-3024
c-112.667 0 -198.167 29.167 -256.5 87.5s-87.5 143.833 -87.5 256.5zM385 -506c0 -12.667 3.66699 -22.667 11 -30s17 -11 29 -11h3061c12.667 0 22.667 3.66699 30 11s11 17.333 11 30v3060c0 12.667 -3.66699 22.667 -11 30s-17.333 11 -30 11h-3061
c-12 0 -21.667 -3.66699 -29 -11s-11 -17.333 -11 -30v-3060zM1022 1126l936 934l934 -934l-230 -232l-535 535v-1429h-338v1429l-533 -535z" />
    <glyph glyph-name="uniE15A" unicode="&#x20de;&#x2193;" horiz-adv-x="3912" 
d="M444 2880h3024c112.667 0 198.167 -29.167 256.5 -87.5s87.5 -143.833 87.5 -256.5v-3024c0 -112.667 -29.167 -198.167 -87.5 -256.5s-143.833 -87.5 -256.5 -87.5h-3024c-112.667 0 -198.167 29.167 -256.5 87.5s-87.5 143.833 -87.5 256.5v3024
c0 112.667 29.167 198.167 87.5 256.5s143.833 87.5 256.5 87.5zM385 2554v-3060c0 -12.667 3.66699 -22.667 11 -30s17 -11 29 -11h3061c12.667 0 22.667 3.66699 30 11s11 17.333 11 30v3060c0 12.667 -3.66699 22.667 -11 30s-17.333 11 -30 11h-3061
c-12 0 -21.667 -3.66699 -29 -11s-11 -17.333 -11 -30zM1022 922l230 232l535 -535v1429h338v-1429l533 535l234 -232l-936 -934z" />
    <glyph glyph-name="uniE15B" unicode="&#x20de;&#x2190;" horiz-adv-x="3912" 
d="M444 2880h3024c112.667 0 198.167 -29.167 256.5 -87.5s87.5 -143.833 87.5 -256.5v-3024c0 -112.667 -29.167 -198.167 -87.5 -256.5s-143.833 -87.5 -256.5 -87.5h-3024c-112.667 0 -198.167 29.167 -256.5 87.5s-87.5 143.833 -87.5 256.5v3024
c0 112.667 29.167 198.167 87.5 256.5s143.833 87.5 256.5 87.5zM385 -506c0 -12.667 3.66699 -22.667 11 -30s17 -11 29 -11h3061c12.667 0 22.667 3.66699 30 11s11 17.333 11 30v3060c0 12.667 -3.66699 22.667 -11 30s-17.333 11 -30 11h-3061
c-12 0 -21.667 -3.66699 -29 -11s-11 -17.333 -11 -30v-3060zM1936 2032l232 -230l-609 -609h1427v-338h-1427l609 -608l-232 -231l-1008 1008z" />
    <glyph glyph-name="uniE15C" unicode="&#x20de;&#x2192;" horiz-adv-x="3912" 
d="M444 2880h3024c112.667 0 198.167 -29.167 256.5 -87.5s87.5 -143.833 87.5 -256.5v-3024c0 -112.667 -29.167 -198.167 -87.5 -256.5s-143.833 -87.5 -256.5 -87.5h-3024c-112.667 0 -198.167 29.167 -256.5 87.5s-87.5 143.833 -87.5 256.5v3024
c0 112.667 29.167 198.167 87.5 256.5s143.833 87.5 256.5 87.5zM385 2554v-3060c0 -12.667 3.66699 -22.667 11 -30s17 -11 29 -11h3061c12.667 0 22.667 3.66699 30 11s11 17.333 11 30v3060c0 12.667 -3.66699 22.667 -11 30s-17.333 11 -30 11h-3061
c-12 0 -21.667 -3.66699 -29 -11s-11 -17.333 -11 -30zM928 1193h1427l-609 608l232 231l1008 -1008l-1008 -1008l-232 230l609 609h-1427v338z" />
    <glyph glyph-name="uniE15D" unicode="&#x20de;&#x2713;" horiz-adv-x="3912" 
d="M444 2880h3024c112.667 0 198.167 -29.167 256.5 -87.5s87.5 -143.833 87.5 -256.5v-3024c0 -112.667 -29.167 -198.167 -87.5 -256.5s-143.833 -87.5 -256.5 -87.5h-3024c-112.667 0 -198.167 29.167 -256.5 87.5s-87.5 143.833 -87.5 256.5v3024
c0 112.667 29.167 198.167 87.5 256.5s143.833 87.5 256.5 87.5zM385 2554v-3060c0 -12.667 3.66699 -22.667 11 -30s17 -11 29 -11h3061c12.667 0 22.667 3.66699 30 11s11 17.333 11 30v3060c0 12.667 -3.66699 22.667 -11 30s-17.333 11 -30 11h-3061
c-12 0 -21.667 -3.66699 -29 -11s-11 -17.333 -11 -30zM968 963l282 283l463 -455l1027 1023l284 -283l-1311 -1304z" />
    <glyph glyph-name="uniE15E" unicode="&#x20de;&#x2717;" horiz-adv-x="3912" 
d="M444 2880h3024c112.667 0 198.167 -29.167 256.5 -87.5s87.5 -143.833 87.5 -256.5v-3024c0 -112.667 -29.167 -198.167 -87.5 -256.5s-143.833 -87.5 -256.5 -87.5h-3024c-112.667 0 -198.167 29.167 -256.5 87.5s-87.5 143.833 -87.5 256.5v3024
c0 112.667 29.167 198.167 87.5 256.5s143.833 87.5 256.5 87.5zM425 -547h3061c12.667 0 22.667 3.66699 30 11s11 17.333 11 30v3060c0 12.667 -3.66699 22.667 -11 30s-17.333 11 -30 11h-3061c-12 0 -21.667 -3.66699 -29 -11s-11 -17.333 -11 -30v-3060
c0 -12.667 3.66699 -22.667 11 -30s17 -11 29 -11zM1449 1810l507 -505l507 505l283 -283l-506 -504l504 -502l-283 -283l-505 503l-505 -503l-283 283l504 502l-506 504z" />
    <glyph glyph-name="u1F130" unicode="A&#x20de;" horiz-adv-x="3912" 
d="M444 2880h3024c112.667 0 198.167 -29.167 256.5 -87.5s87.5 -143.833 87.5 -256.5v-3024c0 -112.667 -29.167 -198.167 -87.5 -256.5s-143.833 -87.5 -256.5 -87.5h-3024c-112.667 0 -198.167 29.167 -256.5 87.5s-87.5 143.833 -87.5 256.5v3024
c0 112.667 29.167 198.167 87.5 256.5s143.833 87.5 256.5 87.5zM425 -547h3061c12.667 0 22.667 3.66699 30 11s11 17.333 11 30v3060c0 12.667 -3.66699 22.667 -11 30s-17.333 11 -30 11h-3061c-12 0 -21.667 -3.66699 -29 -11s-11 -17.333 -11 -30v-3060
c0 -12.667 3.66699 -22.667 11 -30s17 -11 29 -11zM970 0l707 2048h558l706 -2048h-464l-152 467h-739l-152 -467h-464zM1696 805h520l-252 775h-16z" />
    <glyph glyph-name="u1F131" unicode="B&#x20de;" horiz-adv-x="3912" 
d="M444 2880h3024c112.667 0 198.167 -29.167 256.5 -87.5s87.5 -143.833 87.5 -256.5v-3024c0 -112.667 -29.167 -198.167 -87.5 -256.5s-143.833 -87.5 -256.5 -87.5h-3024c-112.667 0 -198.167 29.167 -256.5 87.5s-87.5 143.833 -87.5 256.5v3024
c0 112.667 29.167 198.167 87.5 256.5s143.833 87.5 256.5 87.5zM385 2554v-3060c0 -12.667 3.66699 -22.667 11 -30s17 -11 29 -11h3061c12.667 0 22.667 3.66699 30 11s11 17.333 11 30v3060c0 12.667 -3.66699 22.667 -11 30s-17.333 11 -30 11h-3061
c-12 0 -21.667 -3.66699 -29 -11s-11 -17.333 -11 -30zM1205 0v2048h820c113.333 0 212.333 -13 297 -39s155.5 -62.167 212.5 -108.5s99.667 -101.666 128 -165.999s42.5 -134.833 42.5 -211.5c0 -60 -9.33301 -114.5 -28 -163.5s-44.5 -92 -77.5 -129
s-72 -67.833 -117 -92.5s-94.167 -43 -147.5 -55v-20c58 -2.66699 114.167 -15.834 168.5 -39.501s102.333 -56.834 144 -99.501s75 -94 100 -154s37.5 -128 37.5 -204c0 -81.333 -15.167 -156.666 -45.5 -225.999s-75.166 -129.166 -134.5 -179.499
c-59.333 -50.333 -132.833 -89.666 -220.5 -117.999s-189.167 -42.5 -304.5 -42.5h-875zM1638 353.998l353 0.00195312c60.667 0 112.834 6 156.5 18c43.667 12 79.667 29.167 108 51.5s49.166 49.166 62.5 80.499c13.333 31.333 20 66.333 20 105
c0 42 -7.83301 80.833 -23.5 116.5s-38 66.167 -67 91.5s-64.333 45.166 -106 59.499s-88.5 21.5 -140.5 21.5h-363v-544zM1638 1191l321 0.00195312c44 0 85 6 123 18s70.667 29.167 98 51.5s48.833 49.5 64.5 81.5s23.5 68.333 23.5 109
c0 37.333 -6.66699 71.166 -20 101.499s-32.833 56.166 -58.5 77.499s-57.167 38 -94.5 50s-80 18 -128 18h-329v-507z" />
    <glyph glyph-name="u1F132" unicode="C&#x20de;" horiz-adv-x="3912" 
d="M444 2880h3024c112.667 0 198.167 -29.167 256.5 -87.5s87.5 -143.833 87.5 -256.5v-3024c0 -112.667 -29.167 -198.167 -87.5 -256.5s-143.833 -87.5 -256.5 -87.5h-3024c-112.667 0 -198.167 29.167 -256.5 87.5s-87.5 143.833 -87.5 256.5v3024
c0 112.667 29.167 198.167 87.5 256.5s143.833 87.5 256.5 87.5zM385 2554v-3060c0 -12.667 3.66699 -22.667 11 -30s17 -11 29 -11h3061c12.667 0 22.667 3.66699 30 11s11 17.333 11 30v3060c0 12.667 -3.66699 22.667 -11 30s-17.333 11 -30 11h-3061
c-12 0 -21.667 -3.66699 -29 -11s-11 -17.333 -11 -30zM1989 2076c118.667 0 229.004 -16.6729 331.004 -50.0059s192 -81.666 270 -144.999s142 -141.333 192 -234s82 -198 96 -316h-438c-8 56 -24.5 106.5 -49.5 151.5s-56.5 83 -94.5 114s-82.167 54.833 -132.5 71.5
s-105.166 25 -164.499 25c-79.333 0 -151.333 -14.833 -216 -44.5s-119.834 -73 -165.501 -130s-81 -127 -106 -210s-37.5 -177.833 -37.5 -284.5c0 -109.333 12.667 -205.666 38 -288.999s60.833 -153.166 106.5 -209.499s100.5 -98.833 164.5 -127.5s135 -43 213 -43
c58 0 111.833 7.66699 161.5 23s93.667 37.833 132 67.5s70.5 65.834 96.5 108.501s44 91.334 54 146.001l438 -2c-8 -62.667 -23.333 -124.167 -46 -184.5s-52.334 -117.333 -89.001 -171s-80.167 -103.167 -130.5 -148.5s-107 -84.5 -170 -117.5
s-132.5 -58.667 -208.5 -77s-157.667 -27.5 -245 -27.5c-91.333 0 -178.333 10.5 -261 31.5s-159.334 52 -230.001 93s-134.5 91.333 -191.5 151s-105.667 128.5 -146 206.5s-71.333 164.667 -93 260s-32.5 198.666 -32.5 309.999c0 167.333 24.333 316.333 73 447
s115.667 240.834 201 330.501s186.166 157.834 302.499 204.501s242.166 70 377.499 70z" />
    <glyph glyph-name="u1F133" unicode="D&#x20de;" horiz-adv-x="3912" 
d="M444 2880h3024c112.667 0 198.167 -29.167 256.5 -87.5s87.5 -143.833 87.5 -256.5v-3024c0 -112.667 -29.167 -198.167 -87.5 -256.5s-143.833 -87.5 -256.5 -87.5h-3024c-112.667 0 -198.167 29.167 -256.5 87.5s-87.5 143.833 -87.5 256.5v3024
c0 112.667 29.167 198.167 87.5 256.5s143.833 87.5 256.5 87.5zM385 2554v-3060c0 -12.667 3.66699 -22.667 11 -30s17 -11 29 -11h3061c12.667 0 22.667 3.66699 30 11s11 17.333 11 30v3060c0 12.667 -3.66699 22.667 -11 30s-17.333 11 -30 11h-3061
c-12 0 -21.667 -3.66699 -29 -11s-11 -17.333 -11 -30zM1128 2048l732 -0.000976562c154.667 0 293.5 -23.333 416.5 -70s227.5 -114 313.5 -202s151.833 -195.167 197.5 -321.5s68.5 -269.166 68.5 -428.499c0 -160 -23 -303.5 -69 -430.5s-112 -234.5 -198 -322.5
s-191 -155.5 -315 -202.5s-264 -70.5 -420 -70.5h-726v2048zM1561 1677v-1306h275c96 0 180.667 12.667 254 38s134.833 64.666 184.5 117.999s87 121.333 112 204s37.5 181 37.5 295s-12.5 212 -37.5 294s-62.333 149.5 -112 202.5s-111 92 -184 117
s-157.5 37.5 -253.5 37.5h-276z" />
    <glyph glyph-name="u1F134" unicode="E&#x20de;" horiz-adv-x="3912" 
d="M444 2880h3024c112.667 0 198.167 -29.167 256.5 -87.5s87.5 -143.833 87.5 -256.5v-3024c0 -112.667 -29.167 -198.167 -87.5 -256.5s-143.833 -87.5 -256.5 -87.5h-3024c-112.667 0 -198.167 29.167 -256.5 87.5s-87.5 143.833 -87.5 256.5v3024
c0 112.667 29.167 198.167 87.5 256.5s143.833 87.5 256.5 87.5zM425 -547h3061c12.667 0 22.667 3.66699 30 11s11 17.333 11 30v3060c0 12.667 -3.66699 22.667 -11 30s-17.333 11 -30 11h-3061c-12 0 -21.667 -3.66699 -29 -11s-11 -17.333 -11 -30v-3060
c0 -12.667 3.66699 -22.667 11 -30s17 -11 29 -11zM2642 2048v-357h-947v-488h876v-357h-876v-489h951v-357h-1384v2048h1380z" />
    <glyph glyph-name="u1F135" unicode="F&#x20de;" horiz-adv-x="3912" 
d="M444 2880h3024c112.667 0 198.167 -29.167 256.5 -87.5s87.5 -143.833 87.5 -256.5v-3024c0 -112.667 -29.167 -198.167 -87.5 -256.5s-143.833 -87.5 -256.5 -87.5h-3024c-112.667 0 -198.167 29.167 -256.5 87.5s-87.5 143.833 -87.5 256.5v3024
c0 112.667 29.167 198.167 87.5 256.5s143.833 87.5 256.5 87.5zM425 -547h3061c12.667 0 22.667 3.66699 30 11s11 17.333 11 30v3060c0 12.667 -3.66699 22.667 -11 30s-17.333 11 -30 11h-3061c-12 0 -21.667 -3.66699 -29 -11s-11 -17.333 -11 -30v-3060
c0 -12.667 3.66699 -22.667 11 -30s17 -11 29 -11zM2654 2048v-357h-923v-488h833v-357h-833v-846h-433v2048h1356z" />
    <glyph glyph-name="u1F136" unicode="G&#x20de;" horiz-adv-x="3912" 
d="M444 2880h3024c112.667 0 198.167 -29.167 256.5 -87.5s87.5 -143.833 87.5 -256.5v-3024c0 -112.667 -29.167 -198.167 -87.5 -256.5s-143.833 -87.5 -256.5 -87.5h-3024c-112.667 0 -198.167 29.167 -256.5 87.5s-87.5 143.833 -87.5 256.5v3024
c0 112.667 29.167 198.167 87.5 256.5s143.833 87.5 256.5 87.5zM385 2554v-3060c0 -12.667 3.66699 -22.667 11 -30s17 -11 29 -11h3061c12.667 0 22.667 3.66699 30 11s11 17.333 11 30v3060c0 12.667 -3.66699 22.667 -11 30s-17.333 11 -30 11h-3061
c-12 0 -21.667 -3.66699 -29 -11s-11 -17.333 -11 -30zM1030 1022c0 166 24.5 314.334 73.5 445.001s116.5 241 202.5 331s187.333 158.833 304 206.5s242.667 71.5 378 71.5c116 0 224.167 -17 324.5 -51s189 -81.5 266 -142.5s140.333 -133.667 190 -218
s81.5 -177.166 95.5 -278.499h-440c-14 48 -33.667 91 -59 129s-56.166 70.167 -92.5 96.5c-36.333 26.333 -77.666 46.5 -124 60.5c-46.333 14 -97.5 21 -153.5 21c-78 0 -149.333 -14.833 -214 -44.5s-120.167 -72.834 -166.5 -129.501
s-82.166 -126.334 -107.499 -209.001s-38 -177.334 -38 -284.001s12.333 -201.667 37 -285s60 -153.666 106 -210.999s101.667 -100.833 167 -130.5s138.666 -44.5 219.999 -44.5c72 0 136.5 9.66699 193.5 29s105.5 47 145.5 83s71 79.667 93 131
s33.667 108.666 35 171.999h-440v326h857v-258c0 -134.667 -21.833 -255.5 -65.5 -362.5s-104.834 -197.833 -183.5 -272.5c-78.667 -74.667 -172.167 -131.834 -280.5 -171.501s-227.166 -59.5 -356.499 -59.5c-144 0 -275.5 24.333 -394.5 73
s-220.833 118.334 -305.5 209.001s-150.334 200.834 -197.001 330.501s-70 275.5 -70 437.5z" />
    <glyph glyph-name="u1F137" unicode="H&#x20de;" horiz-adv-x="3912" 
d="M444 2880h3024c112.667 0 198.167 -29.167 256.5 -87.5s87.5 -143.833 87.5 -256.5v-3024c0 -112.667 -29.167 -198.167 -87.5 -256.5s-143.833 -87.5 -256.5 -87.5h-3024c-112.667 0 -198.167 29.167 -256.5 87.5s-87.5 143.833 -87.5 256.5v3024
c0 112.667 29.167 198.167 87.5 256.5s143.833 87.5 256.5 87.5zM425 -547h3061c12.667 0 22.667 3.66699 30 11s11 17.333 11 30v3060c0 12.667 -3.66699 22.667 -11 30s-17.333 11 -30 11h-3061c-12 0 -21.667 -3.66699 -29 -11s-11 -17.333 -11 -30v-3060
c0 -12.667 3.66699 -22.667 11 -30s17 -11 29 -11zM1517 2048v-845h879v845h432v-2048h-432v846h-879v-846h-433v2048h433z" />
    <glyph glyph-name="u1F138" unicode="I&#x20de;" horiz-adv-x="3912" 
d="M100 -488v3024c0 112.667 29.167 198.167 87.5 256.5s143.833 87.5 256.5 87.5h3024c112.667 0 198.167 -29.167 256.5 -87.5s87.5 -143.833 87.5 -256.5v-3024c0 -112.667 -29.167 -198.167 -87.5 -256.5s-143.833 -87.5 -256.5 -87.5h-3024
c-112.667 0 -198.167 29.167 -256.5 87.5s-87.5 143.833 -87.5 256.5zM385 -506c0 -12.667 3.66699 -22.667 11 -30s17 -11 29 -11h3061c12.667 0 22.667 3.66699 30 11s11 17.333 11 30v3060c0 12.667 -3.66699 22.667 -11 30s-17.333 11 -30 11h-3061
c-12 0 -21.667 -3.66699 -29 -11s-11 -17.333 -11 -30v-3060zM2172 2048v-2048h-433v2048h433z" />
    <glyph glyph-name="u1F139" unicode="J&#x20de;" horiz-adv-x="3912" 
d="M444 2880h3024c112.667 0 198.167 -29.167 256.5 -87.5s87.5 -143.833 87.5 -256.5v-3024c0 -112.667 -29.167 -198.167 -87.5 -256.5s-143.833 -87.5 -256.5 -87.5h-3024c-112.667 0 -198.167 29.167 -256.5 87.5s-87.5 143.833 -87.5 256.5v3024
c0 112.667 29.167 198.167 87.5 256.5s143.833 87.5 256.5 87.5zM385 2554v-3060c0 -12.667 3.66699 -22.667 11 -30s17 -11 29 -11h3061c12.667 0 22.667 3.66699 30 11s11 17.333 11 30v3060c0 12.667 -3.66699 22.667 -11 30s-17.333 11 -30 11h-3061
c-12 0 -21.667 -3.66699 -29 -11s-11 -17.333 -11 -30zM1236 576h431c0.666992 -40.667 7.16699 -77 19.5 -109s29.333 -59 51 -81s47.834 -38.667 78.501 -50s65 -17 103 -17c80.667 0 142.167 25.333 184.501 76c42.333 50.667 63.833 125.667 64.5 225v1428h428v-1428
c0 -99.333 -17 -189 -51 -269s-81.667 -148 -143 -204s-134.833 -99.167 -220.5 -129.5s-180.5 -45.5 -284.5 -45.5c-92.667 0 -179.334 12.333 -260.001 37s-150.834 62 -210.501 112s-106.5 112.833 -140.5 188.5s-50.667 164.5 -50 266.5z" />
    <glyph glyph-name="u1F13A" unicode="K&#x20de;" horiz-adv-x="3912" 
d="M444 2880h3024c112.667 0 198.167 -29.167 256.5 -87.5s87.5 -143.833 87.5 -256.5v-3024c0 -112.667 -29.167 -198.167 -87.5 -256.5s-143.833 -87.5 -256.5 -87.5h-3024c-112.667 0 -198.167 29.167 -256.5 87.5s-87.5 143.833 -87.5 256.5v3024
c0 112.667 29.167 198.167 87.5 256.5s143.833 87.5 256.5 87.5zM425 -547h3061c12.667 0 22.667 3.66699 30 11s11 17.333 11 30v3060c0 12.667 -3.66699 22.667 -11 30s-17.333 11 -30 11h-3061c-12 0 -21.667 -3.66699 -29 -11s-11 -17.333 -11 -30v-3060
c0 -12.667 3.66699 -22.667 11 -30s17 -11 29 -11zM1554 2048v-903h27l737 903h519l-760 -917l769 -1131h-518l-561 842l-213 -260v-582h-433v2048h433z" />
    <glyph glyph-name="u1F13B" unicode="L&#x20de;" horiz-adv-x="3912" 
d="M444 2880h3024c112.667 0 198.167 -29.167 256.5 -87.5s87.5 -143.833 87.5 -256.5v-3024c0 -112.667 -29.167 -198.167 -87.5 -256.5s-143.833 -87.5 -256.5 -87.5h-3024c-112.667 0 -198.167 29.167 -256.5 87.5s-87.5 143.833 -87.5 256.5v3024
c0 112.667 29.167 198.167 87.5 256.5s143.833 87.5 256.5 87.5zM385 2554v-3060c0 -12.667 3.66699 -22.667 11 -30s17 -11 29 -11h3061c12.667 0 22.667 3.66699 30 11s11 17.333 11 30v3060c0 12.667 -3.66699 22.667 -11 30s-17.333 11 -30 11h-3061
c-12 0 -21.667 -3.66699 -29 -11s-11 -17.333 -11 -30zM1328 2048h433v-1691h878v-357h-1311v2048z" />
    <glyph glyph-name="u1F13C" unicode="M&#x20de;" horiz-adv-x="3912" 
d="M444 2880h3024c112.667 0 198.167 -29.167 256.5 -87.5s87.5 -143.833 87.5 -256.5v-3024c0 -112.667 -29.167 -198.167 -87.5 -256.5s-143.833 -87.5 -256.5 -87.5h-3024c-112.667 0 -198.167 29.167 -256.5 87.5s-87.5 143.833 -87.5 256.5v3024
c0 112.667 29.167 198.167 87.5 256.5s143.833 87.5 256.5 87.5zM425 -547h3061c12.667 0 22.667 3.66699 30 11s11 17.333 11 30v3060c0 12.667 -3.66699 22.667 -11 30s-17.333 11 -30 11h-3061c-12 0 -21.667 -3.66699 -29 -11s-11 -17.333 -11 -30v-3060
c0 -12.667 3.66699 -22.667 11 -30s17 -11 29 -11zM1380 2048l564 -1376h24l564 1376h534v-2048h-420v1333h-17l-530 -1323h-286l-530 1328h-17v-1338h-420v2048h534z" />
    <glyph glyph-name="u1F13D" unicode="N&#x20de;" horiz-adv-x="3912" 
d="M444 2880h3024c112.667 0 198.167 -29.167 256.5 -87.5s87.5 -143.833 87.5 -256.5v-3024c0 -112.667 -29.167 -198.167 -87.5 -256.5s-143.833 -87.5 -256.5 -87.5h-3024c-112.667 0 -198.167 29.167 -256.5 87.5s-87.5 143.833 -87.5 256.5v3024
c0 112.667 29.167 198.167 87.5 256.5s143.833 87.5 256.5 87.5zM425 -547h3061c12.667 0 22.667 3.66699 30 11s11 17.333 11 30v3060c0 12.667 -3.66699 22.667 -11 30s-17.333 11 -30 11h-3061c-12 0 -21.667 -3.66699 -29 -11s-11 -17.333 -11 -30v-3060
c0 -12.667 3.66699 -22.667 11 -30s17 -11 29 -11zM1479 2048l884 -1288h18v1288h431v-2048h-374l-891 1289h-15v-1289h-433v2048h380z" />
    <glyph glyph-name="u1F13E" unicode="O&#x20de;" horiz-adv-x="3912" 
d="M444 2880h3024c112.667 0 198.167 -29.167 256.5 -87.5s87.5 -143.833 87.5 -256.5v-3024c0 -112.667 -29.167 -198.167 -87.5 -256.5s-143.833 -87.5 -256.5 -87.5h-3024c-112.667 0 -198.167 29.167 -256.5 87.5s-87.5 143.833 -87.5 256.5v3024
c0 112.667 29.167 198.167 87.5 256.5s143.833 87.5 256.5 87.5zM425 -547h3061c12.667 0 22.667 3.66699 30 11s11 17.333 11 30v3060c0 12.667 -3.66699 22.667 -11 30s-17.333 11 -30 11h-3061c-12 0 -21.667 -3.66699 -29 -11s-11 -17.333 -11 -30v-3060
c0 -12.667 3.66699 -22.667 11 -30s17 -11 29 -11zM1956 2076c136 0 262.333 -23.3291 379 -69.9961s218 -114.834 304 -204.501s153.5 -199.834 202.5 -330.501s73.5 -279.667 73.5 -447s-24.5 -316.333 -73.5 -447s-116.5 -240.834 -202.5 -330.501
s-187.333 -157.834 -304 -204.501s-243 -70 -379 -70c-90.667 0 -177.5 10.5 -260.5 31.5s-160 52 -231 93s-135.333 91.5 -193 151.5s-106.834 129 -147.501 207s-72 164.5 -94 259.5s-33 198.167 -33 309.5c0 112 11 215.667 33 311s53.333 181.833 94 259.5
s89.834 146.5 147.501 206.5s122 110.333 193 151s148 71.5 231 92.5s169.833 31.5 260.5 31.5zM1436 1024c0 -108.667 12.333 -204.5 37 -287.5s59.667 -152.833 105 -209.5s100 -99.5 164 -128.5s135.333 -43.5 214 -43.5s150 14.5 214 43.5s118.667 71.833 164 128.5
s80.333 126.5 105 209.5s37 178.833 37 287.5s-12.333 204.667 -37 288s-59.667 153.166 -105 209.499s-100 99 -164 128s-135.333 43.5 -214 43.5s-150 -14.5 -214 -43.5s-118.667 -71.667 -164 -128s-80.333 -126.166 -105 -209.499s-37 -179.333 -37 -288z" />
    <glyph glyph-name="u1F13F" unicode="P&#x20de;" horiz-adv-x="3912" 
d="M444 2880h3024c112.667 0 198.167 -29.167 256.5 -87.5s87.5 -143.833 87.5 -256.5v-3024c0 -112.667 -29.167 -198.167 -87.5 -256.5s-143.833 -87.5 -256.5 -87.5h-3024c-112.667 0 -198.167 29.167 -256.5 87.5s-87.5 143.833 -87.5 256.5v3024
c0 112.667 29.167 198.167 87.5 256.5s143.833 87.5 256.5 87.5zM425 -547h3061c12.667 0 22.667 3.66699 30 11s11 17.333 11 30v3060c0 12.667 -3.66699 22.667 -11 30s-17.333 11 -30 11h-3061c-12 0 -21.667 -3.66699 -29 -11s-11 -17.333 -11 -30v-3060
c0 -12.667 3.66699 -22.667 11 -30s17 -11 29 -11zM1237 2048l808 0.00195312c116 0 219.5 -17 310.5 -51s167.833 -81.667 230.5 -143s110.5 -134.5 143.5 -219.5s49.5 -178.5 49.5 -280.5s-16.667 -195.333 -50 -280s-81.833 -157.334 -145.5 -218.001
s-141.667 -107.834 -234 -141.501s-197.5 -50.5 -315.5 -50.5h-364v-664h-433v2048zM1670 1694v-683.001h294c62 0 116.167 8.33301 162.5 25s84.666 40.167 115 70.5c30.333 30.333 53.166 66.5 68.5 108.5c15.333 42 23 88.333 23 139c0 51.333 -7.66699 97.833 -23 139.5
s-38.333 77.334 -69 107.001s-69.167 52.667 -115.5 69s-100.833 24.5 -163.5 24.5h-292z" />
    <glyph glyph-name="u1F140" unicode="Q&#x20de;" horiz-adv-x="3912" 
d="M444 2880h3024c112.667 0 198.167 -29.167 256.5 -87.5s87.5 -143.833 87.5 -256.5v-3024c0 -112.667 -29.167 -198.167 -87.5 -256.5s-143.833 -87.5 -256.5 -87.5h-3024c-112.667 0 -198.167 29.167 -256.5 87.5s-87.5 143.833 -87.5 256.5v3024
c0 112.667 29.167 198.167 87.5 256.5s143.833 87.5 256.5 87.5zM425 -547h3061c12.667 0 22.667 3.66699 30 11s11 17.333 11 30v3060c0 12.667 -3.66699 22.667 -11 30s-17.333 11 -30 11h-3061c-12 0 -21.667 -3.66699 -29 -11s-11 -17.333 -11 -30v-3060
c0 -12.667 3.66699 -22.667 11 -30s17 -11 29 -11zM1955 2076c136 0 262.333 -23.332 379 -69.999s218 -114.834 304 -204.501s153.5 -199.834 202.5 -330.501s73.5 -279.667 73.5 -447c0 -91.333 -7.5 -177.166 -22.5 -257.499s-36.5 -155 -64.5 -224
s-62 -132.167 -102 -189.5s-85 -108.333 -135 -153l293 -368h-404l-165 203c-110 -42 -229.667 -63 -359 -63c-90.667 0 -177.5 10.5 -260.5 31.5s-160 52 -231 93s-135.333 91.5 -193 151.5s-106.834 129 -147.501 207s-72 164.5 -94 259.5s-33 198.167 -33 309.5
c0 112 11 215.667 33 311s53.333 181.833 94 259.5s89.834 146.5 147.501 206.5s122 110.333 193 151s148 71.5 231 92.5s169.833 31.5 260.5 31.5zM1435 1024c0 -108.667 12.333 -204.501 37 -287.501s59.667 -152.833 105 -209.5s100 -99.5 164 -128.5
s135.333 -43.5 214 -43.5c38 0 75.333 3.66699 112 11l-262 346h368l152 -195c48 56.667 85 127.334 111 212.001s39 183 39 295c0 108.667 -12.333 204.667 -37 288s-59.667 153.166 -105 209.499s-100 99 -164 128s-135.333 43.5 -214 43.5s-150 -14.5 -214 -43.5
s-118.667 -71.667 -164 -128s-80.333 -126.166 -105 -209.499s-37 -179.333 -37 -288z" />
    <glyph glyph-name="u1F141" unicode="R&#x20de;" horiz-adv-x="3912" 
d="M444 2880h3024c112.667 0 198.167 -29.167 256.5 -87.5s87.5 -143.833 87.5 -256.5v-3024c0 -112.667 -29.167 -198.167 -87.5 -256.5s-143.833 -87.5 -256.5 -87.5h-3024c-112.667 0 -198.167 29.167 -256.5 87.5s-87.5 143.833 -87.5 256.5v3024
c0 112.667 29.167 198.167 87.5 256.5s143.833 87.5 256.5 87.5zM385 2554v-3060c0 -12.667 3.66699 -22.667 11 -30s17 -11 29 -11h3061c12.667 0 22.667 3.66699 30 11s11 17.333 11 30v3060c0 12.667 -3.66699 22.667 -11 30s-17.333 11 -30 11h-3061
c-12 0 -21.667 -3.66699 -29 -11s-11 -17.333 -11 -30zM1204 2048h808c116 0 219.5 -15.833 310.5 -47.5s167.833 -76.5 230.5 -134.5s110.5 -128.167 143.5 -210.5s49.5 -174.5 49.5 -276.5c0 -140.667 -31 -260.5 -93 -359.5s-151.667 -173.5 -269 -223.5l435 -796h-478
l-388 726h-316v-726h-433v2048zM1637 1074h294c124.667 0 217.334 25.333 278 76c60.667 50.667 91 127 91 229s-30.5 180 -91.5 234s-154.167 81 -279.5 81h-292v-620z" />
    <glyph glyph-name="u1F142" unicode="S&#x20de;" horiz-adv-x="3912" 
d="M444 2880h3024c112.667 0 198.167 -29.167 256.5 -87.5s87.5 -143.833 87.5 -256.5v-3024c0 -112.667 -29.167 -198.167 -87.5 -256.5s-143.833 -87.5 -256.5 -87.5h-3024c-112.667 0 -198.167 29.167 -256.5 87.5s-87.5 143.833 -87.5 256.5v3024
c0 112.667 29.167 198.167 87.5 256.5s143.833 87.5 256.5 87.5zM425 -547h3061c12.667 0 22.667 3.66699 30 11s11 17.333 11 30v3060c0 12.667 -3.66699 22.667 -11 30s-17.333 11 -30 11h-3061c-12 0 -21.667 -3.66699 -29 -11s-11 -17.333 -11 -30v-3060
c0 -12.667 3.66699 -22.667 11 -30s17 -11 29 -11zM1146 643l419.001 0.00292969c3.33301 -51.333 15.666 -96.333 36.999 -135s49.5 -70.834 84.5 -96.501s76.333 -45 124 -58s99.5 -19.5 155.5 -19.5c55.333 0 105.166 6.16699 149.499 18.5s82.333 29.5 114 51.5
s56.167 48.5 73.5 79.5s26 65.167 26 102.5c0 34.667 -7.66699 65 -23 91s-37.833 49 -67.5 69s-66 37.667 -109 53s-92.5 29.666 -148.5 42.999l-223 56c-86.667 20.667 -164.5 47.167 -233.5 79.5s-127.5 71.333 -175.5 117s-84.833 98.5 -110.5 158.5
s-38.5 127.667 -38.5 203c-0.666992 93.333 18.333 178 57 254s92.5 141.167 161.5 195.5s151.167 96.333 246.5 126s199 44.5 311 44.5c114 0 217.5 -15 310.5 -45s172.667 -72.167 239 -126.5s118 -119.333 155 -195s56.167 -159.167 57.5 -250.5h-415
c-8 80.667 -42.333 143.334 -103 188.001s-143 67 -247 67c-52.667 0 -99.5 -5.66699 -140.5 -17s-75.5 -27.333 -103.5 -48s-49.167 -44.834 -63.5 -72.501s-21.5 -58.167 -21.5 -91.5c-0.666992 -36.667 7.5 -68.667 24.5 -96s40.167 -51 69.5 -71s63.833 -37 103.5 -51
s81.834 -26 126.501 -36l184 -44c89.333 -20 171.333 -46.667 246 -80s139.334 -74.5 194 -123.5c54.667 -49 97.334 -106.333 128 -172c30.667 -65.667 46 -141.167 46 -226.5c0 -94 -18 -178.833 -54 -254.5s-88 -140.167 -156 -193.5s-151.167 -94.333 -249.5 -123
s-210.166 -43 -335.499 -43c-124 0 -236.333 14.167 -337 42.5s-186.667 70.666 -258 126.999s-126.833 126.5 -166.5 210.5s-60.834 181.333 -63.501 292z" />
    <glyph glyph-name="u1F143" unicode="T&#x20de;" horiz-adv-x="3912" 
d="M444 2880h3024c112.667 0 198.167 -29.167 256.5 -87.5s87.5 -143.833 87.5 -256.5v-3024c0 -112.667 -29.167 -198.167 -87.5 -256.5s-143.833 -87.5 -256.5 -87.5h-3024c-112.667 0 -198.167 29.167 -256.5 87.5s-87.5 143.833 -87.5 256.5v3024
c0 112.667 29.167 198.167 87.5 256.5s143.833 87.5 256.5 87.5zM425 -547h3061c12.667 0 22.667 3.66699 30 11s11 17.333 11 30v3060c0 12.667 -3.66699 22.667 -11 30s-17.333 11 -30 11h-3061c-12 0 -21.667 -3.66699 -29 -11s-11 -17.333 -11 -30v-3060
c0 -12.667 3.66699 -22.667 11 -30s17 -11 29 -11zM2797 2048v-357h-627v-1691h-428v1691h-627v357h1682z" />
    <glyph glyph-name="u1F144" unicode="U&#x20de;" horiz-adv-x="3912" 
d="M444 2880h3024c112.667 0 198.167 -29.167 256.5 -87.5s87.5 -143.833 87.5 -256.5v-3024c0 -112.667 -29.167 -198.167 -87.5 -256.5s-143.833 -87.5 -256.5 -87.5h-3024c-112.667 0 -198.167 29.167 -256.5 87.5s-87.5 143.833 -87.5 256.5v3024
c0 112.667 29.167 198.167 87.5 256.5s143.833 87.5 256.5 87.5zM385 2554v-3060c0 -12.667 3.66699 -22.667 11 -30s17 -11 29 -11h3061c12.667 0 22.667 3.66699 30 11s11 17.333 11 30v3060c0 12.667 -3.66699 22.667 -11 30s-17.333 11 -30 11h-3061
c-12 0 -21.667 -3.66699 -29 -11s-11 -17.333 -11 -30zM1107 2048h433.001v-1293c0 -58.667 9.83301 -112.667 29.5 -162s47.667 -91.833 84 -127.5s80.166 -63.5 131.499 -83.5s108.333 -30 171 -30c63.333 0 120.5 10 171.5 30s94.667 47.833 131 83.5
s64.333 78.167 84 127.5s29.5 103.333 29.5 162v1293h433v-1330c0 -112 -20.333 -213.833 -61 -305.5s-98.167 -170.334 -172.5 -236.001s-163.666 -116.334 -268 -152.001c-104.333 -35.667 -220.166 -53.5 -347.5 -53.5c-128 0 -244.167 17.833 -348.5 53.5
s-193.5 86.334 -267.5 152.001s-131.333 144.334 -172 236.001s-61 193.5 -61 305.5v1330z" />
    <glyph glyph-name="u1F145" unicode="V&#x20de;" horiz-adv-x="3912" 
d="M444 2880h3024c112.667 0 198.167 -29.167 256.5 -87.5s87.5 -143.833 87.5 -256.5v-3024c0 -112.667 -29.167 -198.167 -87.5 -256.5s-143.833 -87.5 -256.5 -87.5h-3024c-112.667 0 -198.167 29.167 -256.5 87.5s-87.5 143.833 -87.5 256.5v3024
c0 112.667 29.167 198.167 87.5 256.5s143.833 87.5 256.5 87.5zM425 -547h3061c12.667 0 22.667 3.66699 30 11s11 17.333 11 30v3060c0 12.667 -3.66699 22.667 -11 30s-17.333 11 -30 11h-3061c-12 0 -21.667 -3.66699 -29 -11s-11 -17.333 -11 -30v-3060
c0 -12.667 3.66699 -22.667 11 -30s17 -11 29 -11zM1451 2048l495 -1556h19l496 1556h480l-706 -2048h-558l-707 2048h481z" />
    <glyph glyph-name="u1F146" unicode="W&#x20de;" horiz-adv-x="3912" 
d="M444 2880h3024c112.667 0 198.167 -29.167 256.5 -87.5s87.5 -143.833 87.5 -256.5v-3024c0 -112.667 -29.167 -198.167 -87.5 -256.5s-143.833 -87.5 -256.5 -87.5h-3024c-112.667 0 -198.167 29.167 -256.5 87.5s-87.5 143.833 -87.5 256.5v3024
c0 112.667 29.167 198.167 87.5 256.5s143.833 87.5 256.5 87.5zM385 -506c0 -12.667 3.66699 -22.667 11 -30s17 -11 29 -11h3061c12.667 0 22.667 3.66699 30 11s11 17.333 11 30v3060c0 12.667 -3.66699 22.667 -11 30s-17.333 11 -30 11h-3061
c-12 0 -21.667 -3.66699 -29 -11s-11 -17.333 -11 -30v-3060zM551 2048h473l339 -1423h17l374 1423h405l373 -1426h18l339 1426h473l-586 -2048h-422l-390 1339h-16l-389 -1339h-422z" />
    <glyph glyph-name="u1F147" unicode="X&#x20de;" horiz-adv-x="3912" 
d="M444 2880h3024c112.667 0 198.167 -29.167 256.5 -87.5s87.5 -143.833 87.5 -256.5v-3024c0 -112.667 -29.167 -198.167 -87.5 -256.5s-143.833 -87.5 -256.5 -87.5h-3024c-112.667 0 -198.167 29.167 -256.5 87.5s-87.5 143.833 -87.5 256.5v3024
c0 112.667 29.167 198.167 87.5 256.5s143.833 87.5 256.5 87.5zM425 -547h3061c12.667 0 22.667 3.66699 30 11s11 17.333 11 30v3060c0 12.667 -3.66699 22.667 -11 30s-17.333 11 -30 11h-3061c-12 0 -21.667 -3.66699 -29 -11s-11 -17.333 -11 -30v-3060
c0 -12.667 3.66699 -22.667 11 -30s17 -11 29 -11zM1032 0l641 1024l-629 1024h491l413 -698h16l415 698h489l-625 -1024l639 -1024h-498l-420 699h-16l-420 -699h-496z" />
    <glyph glyph-name="u1F148" unicode="Y&#x20de;" horiz-adv-x="3912" 
d="M444 2880h3024c112.667 0 198.167 -29.167 256.5 -87.5s87.5 -143.833 87.5 -256.5v-3024c0 -112.667 -29.167 -198.167 -87.5 -256.5s-143.833 -87.5 -256.5 -87.5h-3024c-112.667 0 -198.167 29.167 -256.5 87.5s-87.5 143.833 -87.5 256.5v3024
c0 112.667 29.167 198.167 87.5 256.5s143.833 87.5 256.5 87.5zM425 -547h3061c12.667 0 22.667 3.66699 30 11s11 17.333 11 30v3060c0 12.667 -3.66699 22.667 -11 30s-17.333 11 -30 11h-3061c-12 0 -21.667 -3.66699 -29 -11s-11 -17.333 -11 -30v-3060
c0 -12.667 3.66699 -22.667 11 -30s17 -11 29 -11zM1479 2048l467 -882h20l467 882h485l-747 -1324v-724h-430v724l-747 1324h485z" />
    <glyph glyph-name="u1F149" unicode="Z&#x20de;" horiz-adv-x="3912" 
d="M444 2880h3024c112.667 0 198.167 -29.167 256.5 -87.5s87.5 -143.833 87.5 -256.5v-3024c0 -112.667 -29.167 -198.167 -87.5 -256.5s-143.833 -87.5 -256.5 -87.5h-3024c-112.667 0 -198.167 29.167 -256.5 87.5s-87.5 143.833 -87.5 256.5v3024
c0 112.667 29.167 198.167 87.5 256.5s143.833 87.5 256.5 87.5zM425 -547h3061c12.667 0 22.667 3.66699 30 11s11 17.333 11 30v3060c0 12.667 -3.66699 22.667 -11 30s-17.333 11 -30 11h-3061c-12 0 -21.667 -3.66699 -29 -11s-11 -17.333 -11 -30v-3060
c0 -12.667 3.66699 -22.667 11 -30s17 -11 29 -11zM1171 2048h1568v-257l-1023 -1434h1025v-357h-1568v257l1022 1434h-1024v357z" />
    <glyph glyph-name=".notdef" horiz-adv-x="2956" 
d="M2665 1984v-512h-2374v512h2374zM291 2176v512h2374v-512h-2374zM2665 -128v-512h-2374v512h2374zM291 64v512h2374v-512h-2374zM2665 1280v-512h-2374v512h2374z" />
    <glyph glyph-name="uni000D" unicode="&#xd;" horiz-adv-x="704" 
 />
    <glyph glyph-name="space" unicode=" " horiz-adv-x="653" 
 />
    <glyph glyph-name="exclam" unicode="!" horiz-adv-x="914" 
d="M679 2048l-39 -1434h-366l-40 1434h445zM217 214c0 32.667 6.16699 63.5 18.5 92.5s29.5 54.167 51.5 75.5s47.667 38.333 77 51s60.333 19 93 19c32 0 62.5 -6.33301 91.5 -19s54.5 -29.667 76.5 -51s39.5 -46.5 52.5 -75.5s19.5 -59.833 19.5 -92.5
c0 -33.333 -6.5 -64.5 -19.5 -93.5s-30.5 -54.333 -52.5 -76s-47.5 -38.834 -76.5 -51.501s-59.5 -19 -91.5 -19c-32.667 0 -63.667 6.33301 -93 19s-55 29.834 -77 51.501s-39.167 47 -51.5 76s-18.5 60.167 -18.5 93.5z" />
    <glyph glyph-name="quotedbl" unicode="&#x22;" horiz-adv-x="1105" 
d="M657 2048h304v-778h-304v778zM140 2048h304v-778h-304v778z" />
    <glyph glyph-name="numbersign" unicode="#" horiz-adv-x="1829" 
d="M29 508l53 320h280l64 392h-280l54 320h279l83 508h320l-83 -508h400l83 508h320l-83 -508h281l-54 -320h-280l-64 -392h280l-53 -320h-280l-83 -508h-320l83 508h-400l-83 -508h-320l83 508h-280zM682 828h400l64 392h-400z" />
    <glyph glyph-name="dollar" unicode="$" horiz-adv-x="1844" 
d="M531 643c2.66699 -42 11.3271 -79.665 25.9941 -112.998s34.334 -62.333 59.001 -87s53.834 -45.167 87.501 -61.5s70.834 -28.5 111.501 -36.5l5 529l-96 24c-86.667 20.667 -164.5 47.167 -233.5 79.5s-127.5 71.333 -175.5 117s-84.833 98.5 -110.5 158.5
s-38.5 127.667 -38.5 203c-0.666992 85.333 15.333 163.5 48 234.5s78.334 133.167 137.001 186.5s128.834 96.666 210.501 129.999s171.5 54.666 269.5 63.999l2 233h236l-2 -235c96 -10.667 183 -32.834 261 -66.501s144.667 -77 200 -130s98.166 -114.5 128.499 -184.5
s46.166 -146.333 47.499 -229h-415c-6 63.333 -28.5 115.666 -67.5 156.999s-91.833 69.666 -158.5 84.999l-4 -500l59 -14c89.333 -20 171.333 -46.667 246 -80s139.334 -74.5 194.001 -123.5s97.334 -106.333 128.001 -172s46 -141.167 46 -226.5
c0 -86.667 -15.5 -165.667 -46.5 -237s-75.667 -133.166 -134 -185.499s-130 -94.666 -215 -126.999s-181.5 -52.5 -289.5 -60.5l-2 -231h-236l2 232c-106 9.33301 -201.5 30.333 -286.5 63s-157.667 77 -218 133s-107.166 123.333 -140.499 202
s-51.333 168.334 -54 269.001h419zM1050.99 345.002c76 15.333 135.501 44.167 178.501 86.5s64.833 93.833 65.5 154.5c0 28.667 -5.33301 54.167 -16 76.5s-26.167 42.5 -46.5 60.5s-45.333 34.333 -75 49s-63.834 28 -102.501 40zM822.994 1262l4.00195 442.002
c-70.667 -14.667 -124.5 -41.334 -161.5 -80.001s-55.5 -85 -55.5 -139c-0.666992 -28.667 4.16602 -54.334 14.499 -77.001s25 -43 44 -61s41.667 -34 68 -48s55.166 -26.333 86.499 -37z" />
    <glyph glyph-name="percent" unicode="%" horiz-adv-x="2420" 
d="M1287 492c0 61.333 10.001 119.669 30.001 175.002s49.167 103.666 87.5 144.999s85.5 74.166 141.5 98.499s120 36.5 192 36.5c73.333 0 138.166 -12 194.499 -36s103.5 -56.833 141.5 -98.5s66.667 -90 86 -145s29 -113.5 29 -175.5v-108
c0 -61.333 -9.83301 -119.5 -29.5 -174.5s-48.667 -103.333 -87 -145s-85.5 -74.667 -141.5 -99s-120.333 -36.5 -193 -36.5c-73.333 0 -138 12.167 -194 36.5s-103 57.333 -141 99s-66.833 90 -86.5 145s-29.5 113.167 -29.5 174.5v108zM686.001 2119
c74 0 139.167 -12 195.5 -36s103.5 -56.833 141.5 -98.5s66.667 -90 86 -145s29 -113.5 29 -175.5v-108c0 -62 -9.83301 -120.5 -29.5 -175.5s-48.667 -103 -87 -144s-85.666 -73.5 -141.999 -97.5s-120.833 -36 -193.5 -36s-137 12 -193 36s-103 56.667 -141 98
s-66.833 89.5 -86.5 144.5s-29.5 113.167 -29.5 174.5v108c0 62 10.167 120.5 30.5 175.5s49.666 103.333 87.999 145s85.333 74.5 141 98.5s119.167 36 190.5 36zM1742 2048h261l-1408 -2048h-261zM1578 384.003c0 -24 2.66797 -47.666 8.00098 -70.999
s14.166 -44.333 26.499 -63s28.666 -33.834 48.999 -45.501s45.833 -17.5 76.5 -17.5s56.167 5.66699 76.5 17s36.5 26.333 48.5 45s20.5 39.667 25.5 63s7.5 47.333 7.5 72v108c0 24.667 -2.16699 48.834 -6.5 72.501s-12.5 44.834 -24.5 63.501s-28.333 33.834 -49 45.501
s-46.667 17.5 -78 17.5c-30 0 -55.167 -5.83301 -75.5 -17.5s-36.666 -26.834 -48.999 -45.501s-21.333 -39.834 -27 -63.501s-8.5 -47.834 -8.5 -72.501v-108zM529.002 1664l0.00195312 -108.003c0 -24.667 2.66699 -48.667 8 -72s14.166 -44.333 26.499 -63
s28.5 -33.667 48.5 -45s44.667 -17 74 -17c30.667 0 56.167 5.66699 76.5 17s36.666 26.333 48.999 45s21 39.667 26 63s7.5 47.333 7.5 72v108c0 24.667 -2.33301 48.834 -7 72.501s-13 44.834 -25 63.501s-28.333 33.834 -49 45.501s-46.667 17.5 -78 17.5
c-30 0 -55 -5.83301 -75 -17.5s-36 -27 -48 -46s-20.667 -40.333 -26 -64s-8 -47.5 -8 -71.5z" />
    <glyph glyph-name="ampersand" unicode="&#x26;" horiz-adv-x="1898" 
d="M113 544c0 59.333 9.00195 113.332 27.002 161.999s43.333 94.334 76 137.001s71.834 83.167 117.501 121.5s96.5 76.5 152.5 114.5c-26.667 34 -51.834 69 -75.501 105s-44.334 73.5 -62.001 112.5s-31.667 79.5 -42 121.5s-15.5 85.667 -15.5 131
c0 74 13.333 143.167 40 207.5s64.5 120 113.5 167s107.833 84 176.5 111s145 40.5 229 40.5c82 0 155.833 -12.833 221.5 -38.5s121.5 -60.5 167.5 -104.5s81.333 -95.333 106 -154s37 -120.667 37 -186c0 -97.333 -23.667 -184.833 -71 -262.5
s-114.333 -147.834 -201 -210.501l-120 -86l338 -388c27.333 50.667 48.666 105.5 63.999 164.5s23 122.167 23 189.5h353c0 -140 -16.667 -263.667 -50 -371s-78.666 -199 -135.999 -275l308 -353h-444l-124 138c-38 -29.333 -78.167 -54.666 -120.5 -75.999
s-86 -38.833 -131 -52.5s-90.5 -23.667 -136.5 -30s-91.333 -9.5 -136 -9.5c-106.667 0 -202.334 14.833 -287.001 44.5s-156.5 70.167 -215.5 121.5s-104.167 112 -135.5 182s-47 145.333 -47 226zM819.002 311.999c46.667 0 93 7 139 21s90.667 34.333 134 61l-388 432
l-12 -8c-56.667 -41.333 -98.5 -83.5 -125.5 -126.5s-40.5 -84.167 -40.5 -123.5c0 -36.667 7 -70.5 21 -101.5s33.667 -58 59 -81s56 -41 92 -54s76.333 -19.5 121 -19.5zM785.002 1276l106.999 70c51.333 32.667 89 67 113 103s36 75.667 36 119
c0 20 -4.16699 40 -12.5 60s-20.5 37.667 -36.5 53s-35.667 27.666 -59 36.999s-50 14 -80 14s-57 -5.16699 -81 -15.5s-44.667 -24.166 -62 -41.499s-30.666 -37.333 -39.999 -60s-14 -47 -14 -73c0 -42.667 12 -85.667 36 -129s55 -89 93 -137z" />
    <glyph glyph-name="quotesingle" unicode="'" horiz-adv-x="588" 
d="M444 1270h-304v778h304v-778z" />
    <glyph glyph-name="parenleft" unicode="(" horiz-adv-x="1152" 
d="M264 821c0 248.667 33.167 477.164 99.5 685.497s167.833 401.5 304.5 579.5h407c-34.667 -44 -67.834 -94.833 -99.501 -152.5s-61.167 -120.167 -88.5 -187.5s-52.166 -138.666 -74.499 -213.999s-41.333 -152.5 -57 -231.5s-27.667 -159 -36 -240
s-12.5 -160.833 -12.5 -239.5s4.16699 -158.667 12.5 -240s20.333 -161.5 36 -240.5s34.667 -156.167 57 -231.5s47.166 -146.666 74.499 -213.999s56.833 -129.833 88.5 -187.5s64.834 -108.5 99.501 -152.5h-407c-136.667 178 -238.167 371.333 -304.5 580
s-99.5 437.334 -99.5 686.001z" />
    <glyph glyph-name="parenright" unicode=")" horiz-adv-x="1152" 
d="M77 -444c34.667 44 67.834 94.8359 99.501 152.503s61.167 120.167 88.5 187.5s52.166 138.666 74.499 213.999s41.333 152.5 57 231.5s27.667 159 36 240s12.5 160.833 12.5 239.5c0 79.333 -4.16699 159.5 -12.5 240.5s-20.333 161 -36 240s-34.667 156.167 -57 231.5
s-47.166 146.666 -74.499 213.999s-56.833 129.833 -88.5 187.5s-64.834 108.5 -99.501 152.5h407c136.667 -178 238.167 -371.333 304.5 -580s99.5 -437.334 99.5 -686.001s-33.167 -477.167 -99.5 -685.5s-167.833 -401.5 -304.5 -579.5h-407z" />
    <glyph glyph-name="asterisk" unicode="*" horiz-adv-x="1590" 
d="M686 1283l-324 -217l-134 236l349 170l-349 170l134 236l324 -217l-25 387h269l-26 -387l324 217l134 -236l-348 -170l348 -170l-134 -236l-324 217l26 -387h-269z" />
    <glyph glyph-name="plus" unicode="+" horiz-adv-x="1914" 
d="M249 998h529v529h358v-529h529v-358h-529v-529h-358v529h-529v358z" />
    <glyph glyph-name="comma" unicode="," horiz-adv-x="853" 
d="M157 -500l29.001 115.5c12 47.667 24.167 101.167 36.5 160.5s23.666 122.5 33.999 189.5s16.833 134.5 19.5 202.5l5 112h352l-11 -110c-6.66699 -66 -18 -132.5 -34 -199.5s-33.5 -130.167 -52.5 -189.5s-37.833 -113.5 -56.5 -162.5l-46 -118.5h-276z" />
    <glyph glyph-name="hyphen" unicode="-" horiz-adv-x="1320" 
d="M1127 672h-934v338h934v-338z" />
    <glyph glyph-name="period" unicode="." horiz-adv-x="838" 
d="M179 214c0 32.667 6.16699 63.5 18.5 92.5s29.5 54.167 51.5 75.5s47.667 38.333 77 51s60.333 19 93 19c32 0 62.5 -6.33301 91.5 -19s54.5 -29.667 76.5 -51s39.5 -46.5 52.5 -75.5s19.5 -59.833 19.5 -92.5c0 -33.333 -6.5 -64.5 -19.5 -93.5s-30.5 -54.333 -52.5 -76
s-47.5 -38.834 -76.5 -51.501s-59.5 -19 -91.5 -19c-32.667 0 -63.667 6.33301 -93 19s-55 29.834 -77 51.501s-39.167 47 -51.5 76s-18.5 60.167 -18.5 93.5z" />
    <glyph glyph-name="slash" unicode="/" horiz-adv-x="1098" 
d="M402 -308h-367l660 2452h367z" />
    <glyph glyph-name="zero" unicode="0" horiz-adv-x="1938" 
d="M142 1022c0 180 16.667 336.167 50 468.5s84 241.833 152 328.5s153.833 151.167 257.5 193.5s226.167 63.5 367.5 63.5s264 -21.167 368 -63.5s190 -106.833 258 -193.5s118.5 -196.167 151.5 -328.5s49.5 -288.5 49.5 -468.5c0 -181.333 -16.667 -338.833 -50 -472.5
s-84 -244.5 -152 -332.5s-153.833 -153.667 -257.5 -197s-226.167 -65 -367.5 -65s-264 21.667 -368 65s-190 109 -258 197s-118.5 198.833 -151.5 332.5s-49.5 291.167 -49.5 472.5zM969 314c71.333 0 131.502 12.333 180.502 37s88.667 65 119 121s52.166 129 65.499 219
s20 200.333 20 331c0 128.667 -6.66699 237.5 -20 326.5s-35.333 161 -66 216s-70.334 94.833 -119.001 119.5s-108.667 37 -180 37s-131.5 -12.333 -180.5 -37s-88.667 -64.5 -119 -119.5s-52.333 -127 -66 -216s-20.5 -197.833 -20.5 -326.5
c0 -130.667 6.66699 -241 20 -331s35.333 -163 66 -219s70.5 -96.333 119.5 -121s109.167 -37 180.5 -37z" />
    <glyph glyph-name="one" unicode="1" horiz-adv-x="1378" 
d="M1057 0h-433v1637l-481 -278v382l531 307h383v-2048z" />
    <glyph glyph-name="two" unicode="2" horiz-adv-x="1774" 
d="M870 2076c244.667 0 427.335 -50.333 548.002 -151s181 -252.334 181 -455.001c0 -47.333 -3.5 -91.166 -10.5 -131.499s-18.5 -79.833 -34.5 -118.5s-37.333 -77.5 -64 -116.5s-59.834 -80.667 -99.501 -125s-86.334 -92.333 -140.001 -144l-185.5 -173.5l-299 -307h860
v-354h-1460v312l729 675l123.5 116.5c35.667 33 65.5 65.667 89.5 98s42.167 67 54.5 104s18.5 82.167 18.5 135.5c0 57.333 -5.5 104.833 -16.5 142.5s-29 67.5 -54 89.5s-57.5 37.5 -97.5 46.5s-88.667 13.5 -146 13.5c-59.333 0 -108.833 -5 -148.5 -15
s-71.5 -27 -95.5 -51s-41 -56.333 -51 -97s-15 -91.667 -15 -153h-411c0 226 60.667 392.333 182 499s302 160 542 160z" />
    <glyph glyph-name="three" unicode="3" horiz-adv-x="1857" 
d="M146 579l436.002 -0.00488281c0 -50 8.83301 -91.167 26.5 -123.5s42 -57.833 73 -76.5s67.167 -31.667 108.5 -39s86 -11 134 -11c49.333 0 94.666 4.33301 135.999 13s77 23.5 107 44.5s53.167 49.167 69.5 84.5s24.5 79.666 24.5 132.999c0 54 -6.33301 99 -19 135
s-33.667 64.833 -63 86.5s-68 37 -116 46s-107.333 13.5 -178 13.5h-191v318h191c62 0 114.167 4.16699 156.5 12.5s76.666 22.833 102.999 43.5s45.166 48.334 56.499 83.001s17 78.334 17 131.001c0 51.333 -4.5 93.666 -13.5 126.999s-24.667 59.833 -47 79.5
s-52.333 33.5 -90 41.5s-84.5 12 -140.5 12c-56.667 0 -105.5 -3.66699 -146.5 -11s-74.667 -20.666 -101 -39.999s-45.833 -45.666 -58.5 -78.999s-19 -75.666 -19 -126.999h-415c0 101.333 16.667 189.5 50 264.5s81.666 137.333 144.999 187s141 86.834 233 111.501
s196.667 37 314 37c237.333 0 414.5 -49.5 531.5 -148.5s175.167 -241.833 174.5 -428.5c0 -70 -9.33301 -131.167 -28 -183.5s-45 -96.833 -79 -133.5s-74.667 -66.334 -122 -89.001s-99.666 -39 -156.999 -49c75.333 -9.33301 141.833 -24.833 199.5 -46.5
s106 -51 145 -88s68.333 -83 88 -138s29.5 -120.5 29.5 -196.5c0 -100 -19.333 -187.667 -58 -263s-93 -138.166 -163 -188.499s-153.167 -88.166 -249.5 -113.499s-202.166 -38 -317.499 -38c-112.667 0 -216.5 12.5 -311.5 37.5s-177 62.667 -246 113
s-122.833 113.5 -161.5 189.5s-58 165 -58 267z" />
    <glyph glyph-name="four" unicode="4" horiz-adv-x="1909" 
d="M135 701l855 1347h542v-1341h254v-347h-254v-360h-414v360h-983v341zM571 723v-16h555v869h-16z" />
    <glyph glyph-name="five" unicode="5" horiz-adv-x="1815" 
d="M593 579c0 -52 6.33496 -95.168 19.002 -129.501s32.167 -61.666 58.5 -81.999s59.666 -34.666 99.999 -42.999s88.166 -12.5 143.499 -12.5c63.333 0 117 6.5 161 19.5s79.833 33.667 107.5 62s47.834 65.333 60.501 111s19 101.5 19 167.5s-6.5 122.167 -19.5 168.5
s-33.5 84 -61.5 113s-64.5 50.167 -109.5 63.5s-99.5 20 -163.5 20c-42.667 0 -79.667 -3.16699 -111 -9.5s-58.833 -15.5 -82.5 -27.5s-44.334 -26.5 -62.001 -43.5s-34.5 -36.167 -50.5 -57.5l-385 69l97 1080h1252v-354h-895l-53 -513h12
c18 25.333 38.5 48.666 61.5 69.999s50.5 39.833 82.5 55.5s69.5 28 112.5 37s93.167 13.5 150.5 13.5c209.333 0 368.833 -57 478.5 -171s164.167 -281.667 163.5 -503c0.666992 -232 -63.333 -408.5 -192 -529.5s-319.667 -181.5 -573 -181.5
c-118.667 0 -224 12.667 -316 38s-169.5 63.333 -232.5 114s-110.833 114 -143.5 190s-49 164.333 -49 265h420z" />
    <glyph glyph-name="six" unicode="6" horiz-adv-x="1859" 
d="M134 978c1.33301 372 70.998 649.001 208.998 831.001s346 273 624 273c114.667 0 215.334 -15.5 302.001 -46.5s160 -73.5 220 -127.5s107.167 -118 141.5 -192s56.5 -154 66.5 -240h-427c-8 37.333 -18.667 70.666 -32 99.999s-31.5 54 -54.5 74
s-51.833 35.167 -86.5 45.5s-78 15.5 -130 15.5c-79.333 0 -145.166 -15 -197.499 -45s-94 -73.167 -125 -129.5s-53 -124.833 -66 -205.5s-19.833 -171.667 -20.5 -273h14c23.333 45.333 50.333 85.833 81 121.5s66.834 66 108.501 91s89.334 44 143.001 57
s114.834 19.5 183.501 19.5c206.667 0 363.5 -55.833 470.5 -167.5s160.167 -276.167 159.5 -493.5c0.666992 -233.333 -63.5 -411 -192.5 -533s-320.167 -182.333 -573.5 -181c-78.667 0 -153.334 6.5 -224.001 19.5s-136.334 34.5 -197.001 64.5
s-115.334 69.833 -164.001 119.5s-90.167 111.834 -124.5 186.501s-61 162.667 -80 264s-28.5 218.666 -28.5 351.999zM949.998 312.001c62.667 0 116 6.83203 160 20.499s80 35.167 108 64.5s48.333 66.833 61 112.5s19 100.5 19 164.5
c0 63.333 -6.16699 117.666 -18.5 162.999s-32.333 82.666 -60 111.999s-63.334 50.833 -107.001 64.5s-96.834 20.5 -159.501 20.5c-62 0 -115.167 -7.16699 -159.5 -21.5s-80.666 -36.166 -108.999 -65.499s-49.166 -66.833 -62.499 -112.5s-20 -99.5 -20 -161.5
c0 -62.667 6.33301 -116.667 19 -162s33 -82.666 61 -111.999s64 -51.166 108 -65.499s97.333 -21.5 160 -21.5z" />
    <glyph glyph-name="seven" unicode="7" horiz-adv-x="1675" 
d="M1096 1680v14h-989v354h1437v-359l-850 -1689h-447z" />
    <glyph glyph-name="eight" unicode="8" horiz-adv-x="1861" 
d="M136 551c0 76.667 11.333 144.167 34 202.5s54 108.333 94 150s87 75.167 141 100.5s112.333 43 175 53v14c-54.667 11.333 -104.5 30.333 -149.5 57s-83.833 59.667 -116.5 99s-57.834 84.166 -75.501 134.499s-26.5 104.833 -26.5 163.5c0 92 15.5 172.333 46.5 241
s76.833 126 137.5 172s135.834 80.5 225.501 103.5s192.5 34.5 308.5 34.5c232 0 409.667 -46 533 -138s185.333 -229.667 186 -413c0 -58.667 -9.16699 -113.167 -27.5 -163.5s-43.833 -95.166 -76.5 -134.499s-71.5 -72.333 -116.5 -99s-94.167 -45.667 -147.5 -57v-14
c61.333 -10 119 -27.667 173 -53s101 -58.833 141 -100.5s71.667 -91.667 95 -150s35 -125.833 35 -202.5c0 -95.333 -17.5 -179.166 -52.5 -251.499s-86.167 -132.666 -153.5 -180.999s-150.333 -84.833 -249 -109.5s-212 -37 -340 -37s-241.333 12.333 -340 37
s-181.667 61.167 -249 109.5s-118.333 108.666 -153 180.999s-52 156.166 -52 251.499zM930 290c64 0 117.834 7.16797 161.501 21.501s79 34.5 106 60.5s46.5 57.167 58.5 93.5s18 76.166 18 119.499c0 44 -6.33301 84.667 -19 122s-32.667 69.5 -60 96.5
s-62.833 48.167 -106.5 63.5s-96.5 23 -158.5 23s-114.833 -7.66699 -158.5 -23s-79.334 -36.5 -107.001 -63.5s-47.667 -59.167 -60 -96.5s-18.5 -78 -18.5 -122c0 -43.333 6 -83 18 -119s31.5 -67 58.5 -93s62.333 -46.333 106 -61s97.5 -22 161.5 -22zM930.001 1205
c55.333 0 101.999 6.66699 139.999 20s68.5 32.166 91.5 56.499s39.5 53.333 49.5 87s15 70.834 15 111.501c0 40 -7.33301 76.5 -22 109.5s-35 61.333 -61 85s-57.167 42.167 -93.5 55.5s-76.166 20 -119.499 20c-44 0 -84.167 -6.5 -120.5 -19.5s-67.5 -31.5 -93.5 -55.5
s-46.167 -52.5 -60.5 -85.5s-21.5 -69.5 -21.5 -109.5c0 -40.667 5 -77.834 15 -111.501s26.5 -62.667 49.5 -87s53.333 -43.166 91 -56.499s84.5 -20 140.5 -20z" />
    <glyph glyph-name="nine" unicode="9" horiz-adv-x="1859" 
d="M134 1368c0 116.667 16.167 219.668 48.5 309.001s80.5 164 144.5 224s143.833 105.333 239.5 136s206.834 45.667 333.501 45c78.667 0 153.334 -6.5 224.001 -19.5s136.334 -34.5 197.001 -64.5s115.334 -69.833 164.001 -119.5s90.167 -111.834 124.5 -186.501
s61 -162.667 80 -264s28.5 -218.666 28.5 -351.999c-0.666992 -372 -70.167 -649 -208.5 -831s-346.5 -273 -624.5 -273c-114.667 0 -215.334 15.5 -302.001 46.5s-160 73.5 -220 127.5s-107.167 118 -141.5 192s-56.5 154 -66.5 240h427
c8 -37.333 18.667 -70.666 32 -99.999s31.5 -54 54.5 -74s51.833 -35.167 86.5 -45.5s78 -15.5 130 -15.5c79.333 0 145.166 15 197.499 45s94 73.167 125 129.5s53 124.833 66 205.5s19.833 171.667 20.5 273h-14c-22.667 -45.333 -49.5 -85.833 -80.5 -121.5
s-67.333 -66 -109 -91s-89.334 -44 -143.001 -57s-114.834 -19.5 -183.501 -19.5c-103.333 0 -194.333 14.167 -273 42.5s-144.5 70.166 -197.5 125.499s-92.833 124.166 -119.5 206.499s-40 177.833 -40 286.5zM554 1380c0 -63.333 6.16699 -117.667 18.5 -163
s32.333 -82.666 60 -111.999s63.334 -50.833 107.001 -64.5s96.834 -20.5 159.501 -20.5c62 0 115.167 7.16699 159.5 21.5s80.666 36.166 108.999 65.499s49.166 66.833 62.499 112.5s20 99.5 20 161.5c0 62.667 -6.33301 116.667 -19 162s-33 82.833 -61 112.5
s-64 51.5 -108 65.5s-97.333 21 -160 21s-116 -6.83301 -160 -20.5s-80 -35.167 -108 -64.5s-48.333 -66.833 -61 -112.5s-19 -100.5 -19 -164.5z" />
    </font>
</defs>
</svg>
